<?xml version="1.0" encoding="utf-8"?>
<!-- Generator: Adobe Illustrator 19.1.0, SVG Export Plug-In . SVG Version: 6.00 Build 0)  -->
<svg version="1.1" id="Layer_1" xmlns="http://www.w3.org/2000/svg" xmlns:xlink="http://www.w3.org/1999/xlink" x="0px" y="0px"
	 viewBox="0 0 1190.6 841.9" style="enable-background:new 0 0 1190.6 841.9;" xml:space="preserve">
<path d="M724.2,414.6L655.6,346c-4.2-4.2-11-4.2-15.3,0c-4.2,4.2-4.2,11,0,15.3l50.2,50.2H571.4c-6,0-10.8,4.8-10.8,10.8
	s4.8,10.8,10.8,10.8h119.1l-50.2,50.2c-4.2,4.2-4.2,11,0,15.3c2.1,2.1,4.9,3.2,7.6,3.2c2.7,0,5.5-1,7.6-3.2l68.6-68.6
	C728.5,425.7,728.5,418.8,724.2,414.6L724.2,414.6z M724.2,414.6"/>
</svg>
