<?xml version="1.0" encoding="utf-8"?>
<!-- Generator: Adobe Illustrator 19.1.0, SVG Export Plug-In . SVG Version: 6.00 Build 0)  -->
<svg version="1.1" id="Layer_1" xmlns="http://www.w3.org/2000/svg" xmlns:xlink="http://www.w3.org/1999/xlink" x="0px" y="0px"
	 viewBox="0 0 379.8 334.5" style="enable-background:new 0 0 379.8 334.5;" xml:space="preserve">
<style type="text/css">
	.st0{fill:#030404;}
</style>
<g>
	<g>
		<g>
			<path class="st0" d="M364.4,162.2c-5.9,0-10.6,4.3-10.6,9.7V260c0,23.9-21.3,43.4-47.4,43.4H74.1c-26.2,0-47.4-19.5-47.4-43.4
				v-89.6c0-5.4-4.7-9.7-10.6-9.7s-10.6,4.3-10.6,9.7V260c0,34.7,30.8,62.8,68.6,62.8h232.2c37.9,0,68.6-28.2,68.6-62.8v-88.1
				C375,166.6,370.3,162.2,364.4,162.2z"/>
			<g>
				<path d="M364.4,156.2c-9,0.5-16.2,6.4-16.6,15.7c-0.1,1.7,0,3.4,0,5.1c0,10.2,0,20.4,0,30.5c0,18.1,0.9,36.4-0.1,54.5
					c-0.9,16.9-14.6,30.1-30.4,34.1c-5.3,1.3-10.5,1.3-15.8,1.3c-15.7,0-31.5,0-47.2,0c-47.5,0-95,0-142.5,0
					c-12.3,0-24.5,0.1-36.8,0c-12-0.1-23.5-4.1-32-12.8c-7.8-8-10.3-17.8-10.3-28.5c0-21.7,0-43.4,0-65c0-6.8,0.3-13.7,0-20.5
					c-0.7-17.9-28-21.9-32.7-4.1c-1.6,5.8-0.5,13-0.5,18.9c0,12.1,0,24.2,0,36.3c0,10.5,0,20.9,0,31.4c0,9,0.3,17.9,3.1,26.6
					c10.1,30.6,40.6,48.9,72,49.1c11.6,0.1,23.3,0,34.9,0c47.4,0,94.8,0,142.2,0c16.3,0,32.6,0,48.8,0c22.3,0,43.6-5.6,60-21.5
					c12.4-12.1,20-28.6,20.4-45.9c0.1-6,0-12,0-18c0-22.2,0-44.4,0-66.6c0-1.6,0.1-3.3,0-4.9C380.6,162.6,373.3,156.8,364.4,156.2
					c-7.7-0.5-7.7,11.5,0,12c6.9,0.4,4.6,11.5,4.6,16.2c0,11.2,0,22.4,0,33.6c0,10.9,0,21.8,0,32.7c0,7.5,0.3,14.9-1.6,22.2
					c-7.1,27.8-34.5,43.9-62,44c-11.8,0-23.7,0-35.5,0c-46.2,0-92.3,0-138.5,0c-16.5,0-32.9,0-49.4,0c-2.6,0-5.2,0-7.9,0
					c-16.4-0.1-32.6-5.8-44.7-17.1c-11.2-10.4-17.7-24.5-17.9-39.8c-0.1-6,0-12,0-18c0-21.8,0-43.6,0-65.4c0-1.9-0.3-4.1,0-6
					c0.8-5,8.3-5.1,9.2-0.1c1,5.6,0,12.4,0,18c0,21.7,0,43.4,0,65.1c0,8.9,0.5,17.4,4.3,25.7c6.9,15.2,22,26.1,38.3,29
					c10.8,1.9,22.3,1,33.2,1c44.6,0,89.3,0,133.9,0c19.4,0,38.9,0,58.3,0c12.9,0,26.1,1,38.3-3.9c15.2-6,27.8-18.7,31.5-34.9
					c1.7-7.1,1.3-14.5,1.3-21.7c0-22.1,0-44.2,0-66.3c0-4.5-2.1-14.1,4.6-14.4C372.1,167.8,372.1,155.8,364.4,156.2z"/>
			</g>
		</g>
		<g>
			<path class="st0" d="M182.8,245.9c2.1,1.9,4.8,2.8,7.5,2.8c2.7,0,5.4-0.9,7.5-2.8l67.3-61.5c4.1-3.8,4.1-9.9,0-13.7
				s-10.8-3.8-15,0l-49.2,45V19.1c0-5.4-4.7-9.7-10.6-9.7s-10.6,4.3-10.6,9.7v196.6l-49.3-45.1c-4.1-3.8-10.8-3.8-15,0
				s-4.1,9.9,0,13.7L182.8,245.9z"/>
			<g>
				<path d="M179.8,251.1c14.1,10.9,26.8-5.1,36.4-13.9c13.1-12,26.2-23.9,39.2-35.9c8.9-8.2,26.8-20.2,14.9-33.8
					c-7.1-8.1-18.3-6.7-25.6-0.1c-4.8,4.3-9.5,8.7-14.2,13c-11.3,10.3-22.6,20.7-33.9,31c3.4,1.4,6.8,2.8,10.2,4.2
					c0-24.5,0-49,0-73.5c0-36,0-72,0-108c0-9.4,2.1-21.8-7-27.8c-10.8-7.2-25.6-0.1-26.2,12.9c-0.1,2.5,0,5,0,7.5
					c0,33.4,0,66.7,0,100.1c0,18.7,0,37.3,0,56c0,10.3-0.9,21.1,0,31.3c0,0.5,0,1,0,1.5c3.4-1.4,6.8-2.8,10.2-4.2
					c-8.9-8.2-17.9-16.4-26.8-24.6c-5.7-5.2-11.5-10.5-17.2-15.7c-3.8-3.5-7.5-7.6-12.7-8.9c-13.1-3.3-26.3,10.5-18.7,23
					c2,3.2,5.3,5.7,8.1,8.2c11.5,10.5,23,21,34.6,31.5c9.2,8.4,18.4,16.8,27.6,25.2c5.7,5.2,14.2-3.3,8.5-8.5
					c-17.9-16.4-35.9-32.7-53.8-49.1c-3.8-3.5-7.7-7-11.5-10.5c-0.7-0.6-1.4-1.2-2.1-1.9c-2.6-2.9-1-6.5,3.1-6.5
					c3.4,0,6.5,4.1,8.7,6.1c5.3,4.8,10.6,9.7,15.9,14.5c9.3,8.5,18.6,17,27.9,25.6c3.8,3.4,10.2,1.1,10.2-4.2c0-23.1,0-46.1,0-69.2
					c0-35.6,0-71.3,0-106.9c0-4.9,0-9.8,0-14.8c0-1.8-0.3-3.9,0-5.7c0.8-4.9,8.4-4.9,9.2,0c0.1,0.5,0,1,0,1.5c0.1,3.5,0,7.1,0,10.6
					c0,33.7,0,67.4,0,101.2c0,27.3-0.6,54.7,0,82c0,0.5,0,0.9,0,1.4c0,5.4,6.5,7.7,10.2,4.2c8.1-7.4,16.2-14.8,24.2-22.2
					c5.6-5.1,11.2-10.3,16.9-15.4c2.6-2.4,5.2-5.4,8.1-7.4c3.9-2.7,10.4,0.6,6.6,5.2c-0.5,0.6-1.2,1.1-1.7,1.6
					c-3.5,3.2-6.9,6.3-10.4,9.5c-11.6,10.6-23.2,21.3-34.9,31.9c-5.2,4.8-10.5,9.6-15.7,14.4c-3.8,3.5-6.8,7.5-12.3,3.3
					c-2.6-2-6.7-0.4-8.2,2.2C175.8,245.9,177.3,249.1,179.8,251.1z"/>
			</g>
		</g>
	</g>
</g>
</svg>
