<?xml version="1.0" encoding="utf-8"?>
<!-- Generator: Adobe Illustrator 19.1.0, SVG Export Plug-In . SVG Version: 6.00 Build 0)  -->
<svg version="1.1" id="Layer_1" xmlns="http://www.w3.org/2000/svg" xmlns:xlink="http://www.w3.org/1999/xlink" x="0px" y="0px"
	 viewBox="0 0 1190.6 841.9" style="enable-background:new 0 0 1190.6 841.9;" xml:space="preserve">
<style type="text/css">
	.st0{fill-rule:evenodd;clip-rule:evenodd;}
</style>
<g>
	<path class="st0" d="M654.7,395.5c0-8.6-6.9-15.5-15.5-15.5c-8.6,0-15.5,6.9-15.5,15.5c0,8.6,6.9,15.5,15.5,15.5
		C647.7,411,654.7,404.1,654.7,395.5L654.7,395.5z M625.1,395.5c0-7.8,6.3-14.1,14.1-14.1s14.1,6.3,14.1,14.1
		c0,7.8-6.3,14.1-14.1,14.1S625.1,403.3,625.1,395.5L625.1,395.5z M625.1,395.5"/>
	<path class="st0" d="M639.8,404.5v-8.9h2.9l0.5-3h-3.4v-1.5c0-0.8,0.3-1.5,1.4-1.5h2.2v-3h-3.1c-2.6,0-3.4,1.7-3.4,4.2v1.8H635v3
		h1.8v8.9H639.8z M639.8,404.5"/>
</g>
</svg>
