<?xml version="1.0" encoding="utf-8"?>
<!-- Generator: Adobe Illustrator 19.1.0, SVG Export Plug-In . SVG Version: 6.00 Build 0)  -->
<svg version="1.1" id="Layer_1" xmlns="http://www.w3.org/2000/svg" xmlns:xlink="http://www.w3.org/1999/xlink" x="0px" y="0px"
	 viewBox="0 0 1190.6 841.9" style="enable-background:new 0 0 1190.6 841.9;" xml:space="preserve">
<style type="text/css">
	.st0{fill-rule:evenodd;clip-rule:evenodd;}
</style>
<g>
	<g>
		<path d="M590.6,395.5c0-3.8,3.1-6.9,6.9-6.9c1.5,0,3,0.5,4.2,1.4l-1.6,2.1c-0.8-0.6-1.7-0.9-2.6-0.9c-2.4,0-4.3,1.9-4.3,4.3
			c0,2.4,1.9,4.3,4.3,4.3c1.9,0,3.5-1.2,4.1-3h-4.1v-2.6h6.9v1.3c0,3.8-3.1,6.9-6.9,6.9C593.7,402.4,590.6,399.3,590.6,395.5
			L590.6,395.5z M590.6,395.5"/>
	</g>
	<path class="st0" d="M613,395.5c0-8.6-6.9-15.5-15.5-15.5c-8.6,0-15.5,6.9-15.5,15.5c0,8.6,6.9,15.5,15.5,15.5
		C606,411,613,404.1,613,395.5L613,395.5z M583.4,395.5c0-7.8,6.3-14.1,14.1-14.1s14.1,6.3,14.1,14.1c0,7.8-6.3,14.1-14.1,14.1
		S583.4,403.3,583.4,395.5L583.4,395.5z M583.4,395.5"/>
</g>
</svg>
