<?xml version="1.0" encoding="utf-8"?>
<!-- Generator: Adobe Illustrator 19.1.0, SVG Export Plug-In . SVG Version: 6.00 Build 0)  -->
<svg version="1.1" id="Layer_1" xmlns="http://www.w3.org/2000/svg" xmlns:xlink="http://www.w3.org/1999/xlink" x="0px" y="0px"
	 viewBox="0 0 379.8 334.5" style="enable-background:new 0 0 379.8 334.5;" xml:space="preserve">
<g>
	<g>
		<g>
			<path d="M190.2,333.3L190.2,333.3c-2.1,0-4-0.9-5.5-2.4L57.5,196.1c-28.8-30-44.6-65.8-44.6-100.6c0-56.3,35.8-94.1,89.1-94.1
				c45.8,0,64,21.3,88.2,50.9c24.2-29.7,42.3-50.9,88.2-50.9c53.3,0,89.2,37.8,89.2,94.1c0,34.9-15.9,70.6-44.7,100.7L195.7,330.9
				C194.2,332.4,192.3,333.3,190.2,333.3z M102,17.3c-44.9,0-73.8,30.7-73.8,78.1c0,30.6,14.3,62.3,40.2,89.4l121.8,129.1l121.8-129
				c25.9-27.1,40.2-58.8,40.2-89.4c0-47.5-29-78.1-73.9-78.1c-39.6,0-54,17.7-77.9,47l-4.5,5.5c-1.5,1.8-3.6,2.8-5.8,2.8l0,0
				c-2.2,0-4.4-1-5.8-2.8l-4.5-5.5C156.1,35,141.7,17.3,102,17.3z"/>
		</g>
	</g>
</g>
<g>
	<g>
		<g>
			<g>
				<path d="M190.2,333.3L190.2,333.3c-2.1,0-4-0.9-5.5-2.4L57.5,196.1c-28.8-30-44.6-65.8-44.6-100.6c0-56.3,35.8-94.1,89.1-94.1
					c45.8,0,64,21.3,88.2,50.9c24.2-29.7,42.3-50.9,88.2-50.9c53.3,0,89.2,37.8,89.2,94.1c0,34.9-15.9,70.6-44.7,100.7L195.7,330.9
					C194.2,332.4,192.3,333.3,190.2,333.3z M102,17.3c-44.9,0-73.8,30.7-73.8,78.1c0,30.6,14.3,62.3,40.2,89.4l121.8,129.1
					l121.8-129c25.9-27.1,40.2-58.8,40.2-89.4c0-47.5-29-78.1-73.9-78.1c-39.6,0-54,17.7-77.9,47l-4.5,5.5c-1.5,1.8-3.6,2.8-5.8,2.8
					l0,0c-2.2,0-4.4-1-5.8-2.8l-4.5-5.5C156.1,35,141.7,17.3,102,17.3z"/>
				<g>
					<path d="M190.2,327.3c-1.5-0.2-3.2-2.7-4.1-3.7c-2.8-3-5.7-6-8.5-9c-9.4-9.9-18.8-19.9-28.1-29.8
						c-22.4-23.7-44.8-47.4-67.2-71.2c-20.3-21.5-41-42.2-53-69.8C11.4,102.5,14.9,44.9,56.7,19.3C76,7.5,100.4,4.8,122.3,9
						c22,4.2,38.1,17.5,52.5,34c3.8,4.4,7.5,8.9,11.2,13.4c1.9,2.3,6.6,2.3,8.5,0c13.4-16.5,27.5-34.3,47.6-42.7
						c20.9-8.8,46.8-8.7,68-1c45,16.3,58.7,68.7,47.7,111.5c-6.6,25.8-21.2,48.6-39.3,67.8c-4.7,5-9.4,9.9-14.1,14.9
						c-21.7,22.9-43.3,45.9-65,68.8c-10.3,10.9-20.5,21.7-30.8,32.6c-5.4,5.8-10.6,12.3-16.6,17.6
						C191.5,326.4,191.2,327.1,190.2,327.3c-7.6,0.8-7.7,12.8,0,12c8.8-0.9,14-8.7,19.7-14.7c9.8-10.4,19.7-20.9,29.5-31.3
						c23.4-24.8,46.8-49.6,70.2-74.4c5.7-6,11.3-12,17-18c17.7-18.8,32.3-40.5,40.3-65.1c15-45.9,4.5-104.2-40.8-128.8
						c-21.7-11.8-48-14.1-72-9.3c-23.1,4.6-41,18.6-56.2,36c-4.1,4.7-8.1,9.5-12,14.4c2.8,0,5.7,0,8.5,0
						c-14.4-17.6-29.4-35.7-50.8-44.9C120.9-6.7,92.8-7.4,69.4,0.3c-21.1,7-38.9,21.5-49.6,41.1C7.6,63.7,4.6,90.4,8.5,115.3
						c4.7,29.9,20,57.3,39.9,79.8c5.3,5.9,10.8,11.6,16.3,17.4c22.5,23.8,45,47.7,67.5,71.5c10.8,11.4,21.5,22.8,32.3,34.2
						c5.3,5.6,10.3,11.4,15.8,16.8c2.9,2.8,6,4,9.9,4.4C197.9,340.1,197.8,328,190.2,327.3z"/>
					<path d="M102,11.3c-18.1,0.1-35.9,4.9-50.3,16.1c-13.4,10.5-22.3,25.6-26.4,42c-11,44.1,8.9,87.8,38.9,119.6
						c28.6,30.4,57.3,60.7,85.9,91c12,12.7,24,25.4,35.9,38.1c2.2,2.3,6.3,2.3,8.5,0c17.2-18.3,34.5-36.5,51.7-54.8
						c22.3-23.6,44.5-47.1,66.8-70.7c14.2-15,26.9-31.2,35.1-50.4c11.3-26.2,14.4-57.2,3.5-84.1c-9.4-23-28.9-39.6-53.3-44.8
						c-25.5-5.4-53.1-1-73.5,15.7c-10.1,8.2-18.3,18.6-26.5,28.6c-1.4,1.8-5.6,8.9-8,8.9c-2.4,0-6.5-7.1-7.9-8.9
						c-16-19.6-32.7-39-58.6-44.3C116.5,11.9,109.3,11.4,102,11.3c-7.7,0-7.7,12,0,12c12.5,0.1,25,1.9,36,8
						c10.3,5.8,18.5,14.5,26.2,23.4c4,4.7,7.9,9.5,11.8,14.3c3,3.7,5.7,7.7,10.6,9c11.7,3.2,19.3-11.1,25.5-18.6
						c7.5-9.1,15.5-18.4,25.3-25.1c9.9-6.7,21.3-10,33.2-10.8c23.7-1.6,48.3,5.3,62.4,25.7c15.2,21.8,16.1,51.1,8.5,75.9
						c-6.7,22-20,40.8-35.6,57.4c-20.3,21.5-40.6,43-60.9,64.5c-12.3,13-24.6,26-36.9,39c-7,7.4-14.8,14.6-21.3,22.6
						c-0.3,0.4-0.7,0.7-1,1.1c2.8,0,5.7,0,8.5,0c-26.9-28.5-53.9-57.1-80.8-85.6c-12.9-13.7-25.8-27.3-38.7-41
						c-22.7-24-40.7-53.6-40.8-87.6c0-18.9,5.1-38.6,18.3-52.6c12.9-13.7,31-19.4,49.5-19.5C109.7,23.3,109.8,11.3,102,11.3z"/>
				</g>
			</g>
		</g>
	</g>
</g>
</svg>
