<?xml version="1.0" encoding="utf-8"?>
<!-- Generator: Adobe Illustrator 19.1.0, SVG Export Plug-In . SVG Version: 6.00 Build 0)  -->
<svg version="1.1" id="Layer_1" xmlns="http://www.w3.org/2000/svg" xmlns:xlink="http://www.w3.org/1999/xlink" x="0px" y="0px"
	 viewBox="0 0 379.8 334.5" style="enable-background:new 0 0 379.8 334.5;" xml:space="preserve">
<path d="M326.1,7c-21.7-11.8-48-14.1-72-9.3c-23.1,4.6-41,18.6-56.2,36c-2.6,3-5.2,6.1-7.8,9.2C177,27,162.9,11.5,143.6,3.2
	C120.9-6.7,92.8-7.4,69.4,0.3c-21.1,7-38.9,21.5-49.6,41.1C7.6,63.7,4.6,90.4,8.5,115.3c4.7,29.9,20,57.3,39.9,79.8
	c5.3,5.9,10.8,11.6,16.3,17.4c22.5,23.8,45,47.7,67.5,71.5c10.8,11.4,21.5,22.8,32.3,34.2c5.3,5.6,10.3,11.4,15.8,16.8
	c2.2,2.1,4.5,3.3,7.1,3.9c0.6,0.3,1.4,0.4,2.2,0.4c0.2,0,0.4,0.1,0.5,0.1c1.6,0.1,2.8-0.2,3.7-1c6.6-2.4,11.1-8.7,16-13.8
	c9.8-10.4,19.7-20.9,29.5-31.3c23.4-24.8,46.8-49.6,70.2-74.4c5.7-6,11.3-12,17-18c17.7-18.8,32.3-40.5,40.3-65.1
	C381.9,89.9,371.4,31.6,326.1,7z"/>
</svg>
