<?xml version="1.0" encoding="utf-8"?>
<!-- Generator: Adobe Illustrator 19.1.0, SVG Export Plug-In . SVG Version: 6.00 Build 0)  -->
<svg version="1.1" id="Layer_1" xmlns="http://www.w3.org/2000/svg" xmlns:xlink="http://www.w3.org/1999/xlink" x="0px" y="0px"
	 viewBox="0 0 379.8 334.5" style="enable-background:new 0 0 379.8 334.5;" xml:space="preserve">
<g>
	<g>
		<g>
			<path d="M190.2,333.3L190.2,333.3c-2.1,0-4-0.9-5.5-2.4L57.5,196.1c-28.8-30-44.6-65.8-44.6-100.6c0-56.3,35.8-94.1,89.1-94.1
				c45.8,0,64,21.3,88.2,50.9c24.2-29.7,42.3-50.9,88.2-50.9c53.3,0,89.2,37.8,89.2,94.1c0,34.9-15.9,70.6-44.7,100.7L195.7,330.9
				C194.2,332.4,192.3,333.3,190.2,333.3z M102,17.3c-44.9,0-73.8,30.7-73.8,78.1c0,30.6,14.3,62.3,40.2,89.4l121.8,129.1l121.8-129
				c25.9-27.1,40.2-58.8,40.2-89.4c0-47.5-29-78.1-73.9-78.1c-39.6,0-54,17.7-77.9,47l-4.5,5.5c-1.5,1.8-3.6,2.8-5.8,2.8l0,0
				c-2.2,0-4.4-1-5.8-2.8l-4.5-5.5C156.1,35,141.7,17.3,102,17.3z"/>
		</g>
	</g>
</g>
<g>
	<g>
		<g>
			<g>
				<g>
					<g>
						<path d="M190.2,333.3L190.2,333.3c-2.1,0-4-0.9-5.5-2.4L57.5,196.1c-28.8-30-44.6-65.8-44.6-100.6c0-56.3,35.8-94.1,89.1-94.1
							c45.8,0,64,21.3,88.2,50.9c24.2-29.7,42.3-50.9,88.2-50.9c53.3,0,89.2,37.8,89.2,94.1c0,34.9-15.9,70.6-44.7,100.7
							L195.7,330.9C194.2,332.4,192.3,333.3,190.2,333.3z M102,17.3c-44.9,0-73.8,30.7-73.8,78.1c0,30.6,14.3,62.3,40.2,89.4
							l121.8,129.1l121.8-129c25.9-27.1,40.2-58.8,40.2-89.4c0-47.5-29-78.1-73.9-78.1c-39.6,0-54,17.7-77.9,47l-4.5,5.5
							c-1.5,1.8-3.6,2.8-5.8,2.8l0,0c-2.2,0-4.4-1-5.8-2.8l-4.5-5.5C156.1,35,141.7,17.3,102,17.3z"/>
						<path d="M190.2,337.8c-3.2,0-6.3-1.3-8.7-3.7l-0.1-0.1L54.2,199.2C24.7,168.4,8.4,131.6,8.4,95.5c0-28.8,8.9-53.4,25.8-71.3
							C51.1,6.3,74.6-3.1,102-3.1c46.2,0,66.5,21.9,88.2,48.3C211.8,18.8,232-3.1,278.4-3.1c27.4,0,50.9,9.5,67.9,27.3
							c16.9,17.8,25.8,42.5,25.8,71.3c0,36-16.3,72.8-45.9,103.8L198.9,334.1C196.5,336.5,193.4,337.8,190.2,337.8z M187.9,327.7
							c1.4,1.4,3.1,1.4,4.6,0l127.1-134.6c28-29.3,43.5-64,43.5-97.6c0-53.6-34-89.6-84.7-89.6c-44.6,0-61.4,20.7-84.7,49.2
							l-3.5,4.3l-3.5-4.3C163.3,26.5,146.5,5.9,102,5.9c-50.6,0-84.6,36-84.6,89.6c0,33.7,15.4,68.4,43.3,97.5L187.9,327.7z
							 M190.2,320.4L65.1,187.9c-26.7-27.9-41.4-60.8-41.4-92.5c0-24.4,7.4-45.2,21.3-59.9c14-14.8,33.7-22.7,57-22.7
							c42,0,57.6,19.4,81.3,48.8l4.5,5.6c0.5,0.7,1.4,1.1,2.2,1.1c0.9,0,1.7-0.4,2.3-1.2l4.5-5.5c23.9-29.3,39.6-48.6,81.3-48.6
							c23.3,0,43,7.8,57.1,22.6c14,14.8,21.3,35.5,21.3,60c0,31.7-14.7,64.5-41.4,92.5L190.2,320.4z M102,21.8
							c-42.1,0-69.3,28.9-69.3,73.6c0,29.4,13.8,60,39,86.3l118.5,125.7l118.5-125.5c25.1-26.3,39-56.9,39-86.3
							c0-44.7-27.2-73.6-69.4-73.6c-37.4,0-50.5,16.1-74.3,45.3l-4.6,5.6c-2.4,2.8-5.7,4.5-9.3,4.5c-3.6,0-7.1-1.7-9.3-4.5l-4.5-5.5
							C152.7,37.9,139.7,21.8,102,21.8z"/>
					</g>
					<g>
						<path d="M190.2,334.8c-2.4,0-4.7-1-6.6-2.8L56.4,197.1c-29-30.2-45-66.3-45-101.6c0-57.2,36.4-95.6,90.6-95.6
							c46.5,0,65.2,22,88.2,50c22.9-28.1,41.6-50,88.2-50c54.3,0,90.7,38.4,90.7,95.6c0,35.2-16,71.3-45.1,101.7L196.8,331.9
							C194.9,333.8,192.6,334.8,190.2,334.8z M102,2.9c-52.4,0-87.6,37.2-87.6,92.6c0,34.5,15.7,69.9,44.2,99.6l127.2,134.8
							c1.3,1.3,2.8,1.9,4.4,1.9s3.2-0.7,4.4-2l127.2-134.7c28.6-29.9,44.3-65.2,44.3-99.7c0-55.4-35.2-92.6-87.7-92.6
							c-46,0-64.1,22.2-87,50.3l-1.2,1.4l-1.2-1.4C166,25.1,147.9,2.9,102,2.9z M190.2,316.1L67.3,185.8
							c-26.2-27.4-40.6-59.5-40.6-90.4c0-48.4,29.6-79.6,75.3-79.6c40.5,0,55,17.9,79,47.7l4.5,5.5c1.1,1.4,2.8,2.2,4.6,2.2
							c1.8,0,3.5-0.8,4.6-2.3l4.6-5.6c24.1-29.6,38.7-47.5,79-47.5c45.8,0,75.4,31.2,75.4,79.6c0,30.9-14.4,63-40.6,90.4
							L190.2,316.1z M102,18.8c-43.9,0-72.3,30.1-72.3,76.6c0,30.1,14.1,61.5,39.8,88.4l120.7,128l120.7-127.8
							c25.7-26.9,39.8-58.2,39.8-88.4c0-46.5-28.4-76.6-72.4-76.6c-38.9,0-53.1,17.5-76.7,46.4l-4.6,5.6c-1.8,2.1-4.3,3.4-7,3.4
							c-2.7,0-5.3-1.3-7-3.4l-4.5-5.5C155.2,36.3,141.1,18.8,102,18.8z"/>
						<path d="M190.2,339.3c-3.7,0-7-1.4-9.7-4.2l-0.1-0.1L53.1,200.2C23.3,169.2,6.9,132,6.9,95.5c0-29.2,9.1-54.2,26.2-72.3
							C50.3,5,74.1-4.6,102-4.6c46.9,0,66.9,21.5,88.2,47.4c21.2-25.9,41.2-47.4,88.2-47.4c27.9,0,51.7,9.6,69,27.8
							c17.2,18.1,26.2,43.1,26.2,72.3c0,36.4-16.5,73.6-46.4,104.8L200,335.1C197.2,337.8,193.9,339.3,190.2,339.3z M189,326.7
							c0.4,0.4,0.8,0.6,1.2,0.6c0.1,0,0.6,0,1.2-0.6l127.1-134.6c27.8-29,43.1-63.3,43.1-96.6c0-52.7-33.4-88.1-83.2-88.1
							c-43.9,0-60.5,20.4-83.5,48.7l-4.6,5.7l-4.7-5.7C162.4,27.8,145.7,7.4,102,7.4c-49.7,0-83.1,35.4-83.1,88.1
							c0,33.4,15.2,67.6,42.9,96.4L189,326.7z M190.2,322.6L64,188.9c-27-28.2-41.8-61.4-41.8-93.5c0-24.9,7.5-46,21.7-61
							C58.2,19.3,78.3,11.3,102,11.3c42.7,0,58.5,19.6,82.5,49.3l4.5,5.6c0.5,0.6,1.6,0.7,2.3-0.1l4.5-5.5
							c24.1-29.6,40.1-49.1,82.5-49.1c23.7,0,43.8,8,58.1,23.1c14.2,15,21.8,36.1,21.8,61c0,32.1-14.9,65.3-41.9,93.5L190.2,322.6z
							 M102,23.3c-41.2,0-67.8,28.3-67.8,72.1c0,29,13.7,59.3,38.5,85.3l117.5,124.5l117.4-124.4c24.9-26,38.6-56.3,38.6-85.3
							c0-43.8-26.7-72.1-67.9-72.1c-36.7,0-49.7,15.9-73.2,44.7l-4.6,5.6c-2.7,3.2-6.5,5-10.4,5c-4.1,0-8-1.9-10.5-5.1l-4.4-5.4
							C151.8,39.2,139,23.3,102,23.3z"/>
					</g>
				</g>
				<g>
					<g>
						<g>
							<path d="M190.2,327.3c-1.5-0.2-3.2-2.7-4.1-3.7c-2.8-3-5.7-6-8.5-9c-9.4-9.9-18.8-19.9-28.1-29.8
								c-22.4-23.7-44.8-47.4-67.2-71.2c-20.3-21.5-41-42.2-53-69.8C11.4,102.5,14.9,44.9,56.7,19.3C76,7.5,100.4,4.8,122.3,9
								c22,4.2,38.1,17.5,52.5,34c3.8,4.4,7.5,8.9,11.2,13.4c1.9,2.3,6.6,2.3,8.5,0c13.4-16.5,27.5-34.3,47.6-42.7
								c20.9-8.8,46.8-8.7,68-1c45,16.3,58.7,68.7,47.7,111.5c-6.6,25.8-21.2,48.6-39.3,67.8c-4.7,5-9.4,9.9-14.1,14.9
								c-21.7,22.9-43.3,45.9-65,68.8c-10.3,10.9-20.5,21.7-30.8,32.6c-5.4,5.8-10.6,12.3-16.6,17.6
								C191.5,326.4,191.2,327.1,190.2,327.3c-7.6,0.8-7.7,12.8,0,12c8.8-0.9,14-8.7,19.7-14.7c9.8-10.4,19.7-20.9,29.5-31.3
								c23.4-24.8,46.8-49.6,70.2-74.4c5.7-6,11.3-12,17-18c17.7-18.8,32.3-40.5,40.3-65.1c15-45.9,4.5-104.2-40.8-128.8
								c-21.7-11.8-48-14.1-72-9.3c-23.1,4.6-41,18.6-56.2,36c-4.1,4.7-8.1,9.5-12,14.4c2.8,0,5.7,0,8.5,0
								C180,30.5,165,12.4,143.6,3.2C120.9-6.7,92.8-7.4,69.4,0.3c-21.1,7-38.9,21.5-49.6,41.1C7.6,63.7,4.6,90.4,8.5,115.3
								c4.7,29.9,20,57.3,39.9,79.8c5.3,5.9,10.8,11.6,16.3,17.4c22.5,23.8,45,47.7,67.5,71.5c10.8,11.4,21.5,22.8,32.3,34.2
								c5.3,5.6,10.3,11.4,15.8,16.8c2.9,2.8,6,4,9.9,4.4C197.9,340.1,197.8,328,190.2,327.3z"/>
							<path d="M190.8,343.9c-0.3,0-0.7,0-1,0c-0.1,0-0.3,0-0.4,0c-1.2,0-2.3-0.2-3.4-0.6c-3.4-0.9-6.3-2.5-8.8-5
								c-3.6-3.6-7.1-7.3-10.4-10.9c-1.8-2-3.7-4-5.6-6c-5.4-5.7-10.8-11.4-16.2-17.1c-5.4-5.7-10.7-11.4-16.1-17.1
								c-11.3-11.9-22.5-23.8-33.8-35.8c-11.2-11.9-22.5-23.8-33.7-35.7l-3.2-3.4c-4.4-4.6-8.9-9.3-13.2-14.1
								c-22.4-25.3-36.5-53.7-41-82.1c-4.3-27.7-0.1-54.9,11.8-76.8C27,18.8,45.5,3.5,68-4c25.1-8.3,54.1-7.1,77.4,3
								c18.6,8,32.6,22.4,44.7,36.8c1.5-1.7,2.9-3.4,4.4-5.1c18.6-21.3,37.2-33.2,58.7-37.5c26.9-5.4,53.6-1.9,75,9.8
								c48.4,26.3,58.2,87.4,42.9,134.2c-7.6,23.2-21.5,45.7-41.3,66.8c-2.8,3-5.7,6-8.5,9c-2.8,3-5.7,6-8.6,9.1l-99.7,105.7
								c-1,1-1.9,2.1-2.9,3.2c-3.9,4.4-8.3,9.3-14.3,11.6C194.4,343.4,192.7,343.9,190.8,343.9z M189.1,334.7c0.2,0,0.5,0.1,0.7,0.1
								c0.5-0.1,1-0.2,1.6-0.3c0.1-0.3,0.1-0.8,0-1.4c-0.2-0.8-0.7-1.1-1.1-1.3c-0.4,0.1-0.8,0.4-1.1,1.2
								C188.9,333.8,189,334.4,189.1,334.7z M197.9,326.6c0.7,0.8,1.2,1.7,1.6,2.7c1.4-1.4,2.7-2.8,4-4.4c1-1.1,2-2.3,3.1-3.4
								l99.7-105.7c2.9-3,5.7-6,8.5-9c2.8-3,5.6-6,8.5-9c18.9-20.1,32.1-41.4,39.3-63.4C376.8,91.2,368,34.9,324,10.9
								c-19.3-10.5-44.5-13.7-69-8.8c-19.4,3.9-36.5,14.8-53.7,34.5c-1.8,2.1-3.6,4.1-5.3,6.2c0.6,0.8,1.3,1.5,1.9,2.3
								c11.9-14.4,24.8-28.2,42.5-35.6c21.2-8.9,48.5-9.3,71.3-1.1c22.2,8.1,38.7,24.8,47.5,48.5c7.8,20.7,8.8,45.6,3,68.4
								c-6.3,24.5-19.9,48-40.4,69.8c-2.3,2.5-4.7,5-7,7.4c-2.4,2.5-4.7,5-7.1,7.5c-10.9,11.5-21.8,23-32.7,34.6
								c-10.8,11.4-21.5,22.8-32.3,34.2l-30.8,32.6c-1.6,1.7-3.2,3.5-4.8,5.4C204.1,320,201.1,323.4,197.9,326.6z M102.7-0.4
								c-10.9,0-21.8,1.6-31.9,5c-20.3,6.7-37,20.6-47.1,39c-11,20.1-14.8,45.3-10.8,71c4.2,26.7,17.6,53.6,38.8,77.5
								c4.2,4.7,8.7,9.4,13,13.9l3.2,3.4c11.3,11.9,22.5,23.8,33.8,35.8c11.2,11.9,22.5,23.8,33.7,35.7c5.4,5.7,10.8,11.4,16.2,17.1
								c5.4,5.7,10.7,11.4,16.1,17.1c1.9,2,3.8,4.1,5.7,6.1c2.4,2.7,4.9,5.4,7.5,8c0.4-1,1-1.9,1.7-2.8c-1.3-1.4-2.7-2.8-4-4.3
								c-1.4-1.5-2.9-3-4.3-4.5c-9.3-9.8-18.6-19.7-28.1-29.8c-21.9-23.2-44.6-47.2-67.2-71.2c-1.4-1.5-2.9-3-4.3-4.5
								C56,192.4,36.6,172,25.2,145.6C6.5,102.6,10.4,42.4,54.4,15.5C73.4,3.8,98.5-0.2,123.1,4.6c25.6,4.9,42.9,21.5,55,35.5
								c1.5,1.7,2.9,3.4,4.3,5.1c0.6-0.7,1.2-1.5,1.8-2.2c-11.7-14-25.1-28.1-42.5-35.6C130.1,2.2,116.4-0.4,102.7-0.4z M102.7,11.6
								c-16,0-31.3,4-43.6,11.5C19.5,47.4,16.3,102.5,33.4,142c10.8,24.9,28.8,43.9,47.8,63.9c1.4,1.5,2.9,3,4.3,4.6
								c22.6,24,45.3,48,67.2,71.2c9.5,10.1,18.8,20,28.1,29.8c1.4,1.5,2.8,3,4.3,4.5c1.4,1.5,2.9,3,4.3,4.5
								c0.3,0.3,0.5,0.6,0.8,0.9c3.5-3.3,6.9-7,10.1-10.7c1.6-1.8,3.3-3.7,5-5.5l30.8-32.6c10.8-11.4,21.6-22.8,32.3-34.2
								c10.9-11.5,21.8-23.1,32.7-34.6c2.4-2.5,4.7-5,7.1-7.5c2.3-2.5,4.7-4.9,7-7.4c19.5-20.7,32.3-42.8,38.2-65.8
								c10.2-39.9-2-90.6-44.9-106.2c-20.7-7.5-45.5-7.2-64.7,0.9c-16.3,6.8-28.7,20.4-40.2,34.4l0.2,0.3h-0.5
								c-1.5,1.8-2.9,3.6-4.4,5.4l-1,1.3c-1.8,2.2-4.6,3.4-7.7,3.4h0c-3.1,0-6-1.2-7.7-3.4c-1.8-2.2-3.7-4.4-5.5-6.7h-0.5l0.2-0.3
								c-1.8-2.1-3.6-4.3-5.4-6.4c-16.6-19.1-32-29.1-49.9-32.5C115.2,12.2,108.9,11.6,102.7,11.6z M189.4,53.5
								c0.4,0.2,1.3,0.2,1.7,0l0.7-0.9h-3.1C188.9,52.9,189.2,53.2,189.4,53.5z"/>
						</g>
						<g>
							<path d="M190.8,340.9c-0.2,0-0.5,0-0.7,0c-0.2,0-0.3,0-0.5-0.1c-0.9,0-1.8-0.2-2.5-0.5c-3-0.7-5.5-2.1-7.7-4.3
								c-3.6-3.5-7-7.2-10.2-10.8c-1.8-2-3.7-4.1-5.6-6c-5.4-5.7-10.8-11.4-16.2-17.1c-5.4-5.7-10.7-11.4-16.1-17.1
								c-11.3-11.9-22.5-23.8-33.8-35.8c-11.2-11.9-22.5-23.8-33.7-35.7l-3.2-3.4c-4.3-4.6-8.8-9.3-13.1-14
								c-22-24.8-35.9-52.7-40.3-80.6c-4.2-27-0.2-53.6,11.5-74.9C29.3,20.9,47.2,6.1,68.9-1.1c24.5-8,52.6-6.9,75.3,2.9
								c19.2,8.2,33.5,23.7,45.9,38.7c2.2-2.6,4.4-5.3,6.7-7.8C214.9,12,233,0.4,253.8-3.8C280-9,306-5.7,326.8,5.7
								c46.9,25.5,56.4,85,41.5,130.6c-7.4,22.8-21.1,44.9-40.6,65.7c-2.8,3-5.6,6-8.5,9c-2.8,3-5.7,6-8.5,9L211,325.6
								c-1,1.1-2,2.1-3,3.3c-3.9,4.4-7.9,8.9-13.5,10.9C193.5,340.5,192.2,340.9,190.8,340.9z M187.9,337.5c0.6,0.1,1.2,0.2,1.9,0.3
								c0.1,0,0.2,0,0.3,0c1.1-0.1,2.1-0.3,3.1-0.7c1-0.9,1.2-2.2,1.2-2.7c0.2-2.5-1.2-5.2-4.2-5.6c-3.1,0.4-4.5,3.2-4.2,5.7
								C186.1,335.1,186.4,336.8,187.9,337.5z M102.9-3.5c-11.2,0-22.4,1.7-33,5.2c-21,7-38.3,21.3-48.8,40.4
								C9.8,62.8,5.9,88.7,10,115.1c4.3,27.3,18,54.6,39.5,79c4.2,4.7,8.7,9.4,13,14l3.2,3.4c11.3,11.9,22.5,23.8,33.8,35.8
								c11.2,11.9,22.5,23.8,33.7,35.7c5.4,5.7,10.8,11.4,16.2,17.1c5.4,5.7,10.7,11.4,16.1,17.1c1.9,2,3.8,4.1,5.6,6.1
								c3.3,3.6,6.6,7.2,10.1,10.7c0.6,0.5,1.1,1,1.7,1.5c0-0.2-0.1-0.4-0.1-0.6c-0.3-3,1-6.3,3.9-8c-0.5-0.5-0.9-1-1.3-1.5
								c-0.2-0.3-0.4-0.5-0.6-0.7c-1.4-1.5-2.8-3-4.2-4.5c-1.4-1.5-2.9-3-4.3-4.5c-9.3-9.8-18.6-19.7-28.1-29.8
								c-21.9-23.2-44.6-47.2-67.2-71.2c-1.4-1.5-2.9-3-4.3-4.5c-18.5-19.6-37.7-39.8-49-65.7C9.8,102.5,13.4,44,55.9,18
								C74.3,6.7,98.6,2.9,122.6,7.5c24.7,4.7,41.5,20.9,53.3,34.5c3.8,4.4,7.6,9,11.2,13.4c0.6,0.8,1.8,1.2,3.1,1.2c0,0,0,0,0,0
								c1.3,0,2.5-0.5,3.1-1.2l1-1.3c13.4-16.5,27.2-33.5,47.2-41.9c20.5-8.6,47-9,69.1-1C332,19,347.8,35.2,356.4,58
								c7.5,20.1,8.6,44.4,2.9,66.6c-6.1,24-19.5,47.1-39.7,68.5c-2.3,2.5-4.7,5-7,7.4c-2.4,2.5-4.7,5-7.1,7.5
								c-10.9,11.5-21.8,23-32.7,34.6c-10.8,11.4-21.5,22.8-32.3,34.2l-30.8,32.6c-1.6,1.8-3.3,3.6-4.9,5.4
								c-3.6,4.1-7.4,8.3-11.5,12c2.9,1.6,4.3,4.9,4,8c0,0.1,0,0.2,0,0.3c3.1-2.1,5.8-5.1,8.4-8.1c1-1.1,2-2.3,3-3.4l99.7-105.7
								c2.9-3,5.7-6,8.5-9c2.8-3,5.6-6,8.5-9c19.2-20.4,32.7-42.1,40-64.5C380,90.9,370.9,33,325.4,8.3c-19.9-10.8-45.8-14.2-71-9.1
								c-20.1,4-37.7,15.3-55.4,35.5c-2.3,2.7-4.7,5.4-7,8.2c1.2,1.4,2.3,2.9,3.5,4.3l2,2.4h-14.8l1.9-2.4c1.1-1.4,2.3-2.9,3.4-4.3
								C175.9,28,161.7,12.6,143,4.6C130.8-0.8,116.9-3.5,102.9-3.5z M102.7,8.6c-16.5,0-32.4,4.1-45.2,12
								c-41,25.1-44.4,81.9-26.8,122.6c11,25.4,29.2,44.6,48.4,64.8c1.4,1.5,2.9,3,4.3,4.5c22.6,24,45.3,48,67.2,71.2
								c9.5,10.1,18.8,20,28.1,29.8c1.4,1.5,2.8,3,4.3,4.5c1.4,1.5,2.8,3,4.2,4.5c0.2,0.2,0.4,0.5,0.7,0.8c0.5,0.6,1.6,1.9,2.3,2.3
								c0.1-0.1,0.2-0.2,0.3-0.4c0.1-0.2,0.3-0.3,0.4-0.5c4.2-3.7,8-8,11.6-12.1c1.6-1.8,3.3-3.7,4.9-5.5l30.8-32.6
								c10.8-11.4,21.6-22.8,32.3-34.2c10.9-11.5,21.8-23.1,32.7-34.6c2.4-2.5,4.7-5,7.1-7.5c2.3-2.5,4.7-4.9,7-7.4
								c19.8-21,32.9-43.6,38.9-67.1c10.6-41.1-2.2-93.6-46.8-109.7c-21.4-7.8-47-7.4-66.9,1c-19.2,8-32.8,24.8-46,41l-1,1.3
								c-1.2,1.4-3.2,2.3-5.4,2.3c0,0,0,0,0,0c-2.2,0-4.2-0.8-5.4-2.3c-3.7-4.4-7.4-9-11.2-13.4c-11.5-13.2-27.8-29-51.6-33.5
								C115.6,9.2,109.1,8.6,102.7,8.6z M189,46.6h2.2c-0.4-0.4-0.7-0.9-1.1-1.4C189.8,45.7,189.4,46.1,189,46.6z"/>
							<path d="M190.8,345.4c-0.4,0-0.8,0-1.1-0.1l-0.3,0l0,0.1l-0.2-0.1c-1.3,0-2.5-0.3-3.6-0.6c-3.6-0.9-6.8-2.7-9.5-5.4
								c-3.7-3.6-7.1-7.4-10.4-11c-1.7-1.9-3.7-4-5.6-6c-5.4-5.7-10.8-11.4-16.2-17.1c-5.4-5.7-10.7-11.4-16.1-17.1
								c-11.3-11.9-22.5-23.8-33.8-35.8c-11.2-11.9-22.5-23.8-33.7-35.7l-3.2-3.4c-4.4-4.6-8.9-9.3-13.2-14.1
								C21.4,173.6,7.1,145,2.6,116.2c-4.4-28-0.1-55.6,12-77.7c11.3-20.7,30.1-36.3,53-43.9c25.5-8.4,54.8-7.2,78.5,3.1
								c17.9,7.7,31.8,21.5,44.1,35.8c1.1-1.3,2.2-2.5,3.3-3.8c18.8-21.5,37.7-33.6,59.5-37.9c27.3-5.4,54.3-1.9,76,9.9
								c49.1,26.7,59.1,88.6,43.6,135.9C365,161.1,351,183.8,331,205c-2.8,3-5.7,6-8.5,9c-2.8,3-5.7,6-8.6,9.1l-99.7,105.7
								c-1,1-1.9,2.1-2.9,3.2c-4,4.5-8.5,9.6-14.9,12C194.8,344.9,192.9,345.4,190.8,345.4z M199.8,326.8
								C199.8,326.8,199.8,326.8,199.8,326.8c0.1-0.1,0.2-0.2,0.3-0.3C200,326.5,199.9,326.6,199.8,326.8z M170.9,316.2
								c1.3,1.4,2.5,2.7,3.7,4c2,2.2,4,4.4,6.1,6.5c0,0,0.1-0.1,0.1-0.1c-1-1.1-2.1-2.2-3.2-3.4c-1.4-1.5-2.9-3-4.3-4.5
								C172.4,317.9,171.7,317,170.9,316.2z M102.7,13.1c-16,0-30.8,3.9-42.9,11.3c-38.9,23.8-41.9,78-25,117
								c10.7,24.7,28.6,43.5,47.5,63.5c1.4,1.5,2.9,3,4.3,4.6c22.4,23.8,44.9,47.6,66.7,70.6l0.5,0.6c9.5,10.1,18.8,20,28.1,29.8
								c1.4,1.5,2.8,3,4.3,4.5l0.1,0.1c1.3,1.4,2.7,2.8,4,4.2c3.1-3,6-6.3,8.9-9.5c1.6-1.8,3.3-3.7,5-5.6l30.8-32.6
								c10.8-11.4,21.6-22.8,32.3-34.2c10.9-11.5,21.8-23.1,32.7-34.6c2.4-2.5,4.7-5,7.1-7.5c2.3-2.5,4.7-4.9,7-7.4
								c19.3-20.5,32-42.4,37.9-65.2c10.1-39.2-1.9-89.1-43.9-104.4c-20.4-7.4-44.8-7.1-63.6,0.9c-15.7,6.5-27.6,19.5-38.8,33.1
								l1.5,1.8h-3c-1.3,1.6-2.6,3.2-3.9,4.8l-1,1.3c-2.1,2.5-5.3,3.9-8.9,3.9c-3.5,0-6.9-1.5-8.9-3.9c-1.7-2-3.4-4.1-5.1-6.1h-2.9
								l1.4-1.8c-1.5-1.8-3.1-3.6-4.6-5.4c-11-12.6-26.6-27.7-49.1-32C115.1,13.7,108.8,13.1,102.7,13.1z M316.9,202.4
								c-0.2,0.2-0.3,0.4-0.5,0.6l-0.5,0.6c-2.4,2.5-4.7,5-7.1,7.5c-10.9,11.5-21.8,23-32.7,34.6c-10.8,11.4-21.6,22.8-32.3,34.2
								L213,312.4c-1.3,1.4-2.7,3-4.1,4.5l96.4-102.2c2.7-2.8,5.3-5.6,8-8.4l0.6-0.6C314.8,204.6,315.9,203.5,316.9,202.4z
								 M25.1,149.2c6.7,14.5,16,28.7,27.7,41.9c4.2,4.6,8.6,9.3,12.9,13.8l3.3,3.4c11.3,11.9,22.5,23.8,33.8,35.8
								c11.2,11.9,22.5,23.8,33.7,35.7c5.4,5.7,10.8,11.4,16.2,17.1c0.2,0.2,0.3,0.4,0.5,0.5c-2.7-2.8-5.4-5.7-8.1-8.6l-0.3-0.3
								c-21.8-23.1-44.4-47-66.9-70.9c-1.4-1.5-2.9-3-4.3-4.5C55.5,194.1,36.8,174.4,25.1,149.2z M23,48.2
								c-9.3,19.1-12.3,42.4-8.6,66.2c1.5,9.5,4.1,18.9,7.9,28.3C10.7,113.3,9.2,76.9,23,48.2z M347.8,33.1
								c5.2,6.8,9.5,14.6,12.7,23.3c3.8,10,6,21.1,6.6,32.3C366.1,68.6,360,48.8,347.8,33.1z M138.8,7.7c8.1,3.4,15.2,7.8,21.5,12.8
								c-5.8-4.7-12.1-8.8-19-11.8C140.4,8.4,139.6,8,138.8,7.7z M102.9,1C91.9,1,81.3,2.7,71.3,6c-3,1-5.9,2.2-8.8,3.5
								C80.3,1.4,101.8-1,123,3C116.5,1.7,109.7,1,102.9,1z"/>
						</g>
					</g>
					<g>
						<g>
							<path d="M102,11.3c-18.1,0.1-35.9,4.9-50.3,16.1C38.3,37.9,29.4,53,25.3,69.4c-11,44.1,8.9,87.8,38.9,119.6
								c28.6,30.4,57.3,60.7,85.9,91c12,12.7,24,25.4,35.9,38.1c2.2,2.3,6.3,2.3,8.5,0c17.2-18.3,34.5-36.5,51.7-54.8
								c22.3-23.6,44.5-47.1,66.8-70.7c14.2-15,26.9-31.2,35.1-50.4c11.3-26.2,14.4-57.2,3.5-84.1c-9.4-23-28.9-39.6-53.3-44.8
								c-25.5-5.4-53.1-1-73.5,15.7c-10.1,8.2-18.3,18.6-26.5,28.6c-1.4,1.8-5.6,8.9-8,8.9s-6.5-7.1-7.9-8.9
								c-16-19.6-32.7-39-58.6-44.3C116.5,11.9,109.3,11.4,102,11.3c-7.7,0-7.7,12,0,12c12.5,0.1,25,1.9,36,8
								c10.3,5.8,18.5,14.5,26.2,23.4c4,4.7,7.9,9.5,11.8,14.3c3,3.7,5.7,7.7,10.6,9c11.7,3.2,19.3-11.1,25.5-18.6
								c7.5-9.1,15.5-18.4,25.3-25.1c9.9-6.7,21.3-10,33.2-10.8c23.7-1.6,48.3,5.3,62.4,25.7c15.2,21.8,16.1,51.1,8.5,75.9
								c-6.7,22-20,40.8-35.6,57.4c-20.3,21.5-40.6,43-60.9,64.5c-12.3,13-24.6,26-36.9,39c-7,7.4-14.8,14.6-21.3,22.6
								c-0.3,0.4-0.7,0.7-1,1.1c2.8,0,5.7,0,8.5,0c-26.9-28.5-53.9-57.1-80.8-85.6c-12.9-13.7-25.8-27.3-38.7-41
								c-22.7-24-40.7-53.6-40.8-87.6c0-18.9,5.1-38.6,18.3-52.6c12.9-13.7,31-19.4,49.5-19.5C109.7,23.3,109.8,11.3,102,11.3z"/>
							<path d="M190.3,324.3c-2.9,0-5.6-1.1-7.5-3.1c-11.9-12.7-24.1-25.6-35.9-38.1c-9.7-10.3-19.4-20.5-29.1-30.8
								c-18.6-19.7-37.9-40.1-56.8-60.2c-35.6-37.8-50.2-82.9-40-123.8c4.5-18.1,14.5-33.8,28-44.5c14.2-11,32.5-16.9,53-17.1
								c0,0,0.1,0,0.1,0h0c0.1,0,0.2,0,0.3,0c8.5,0.1,15.6,0.8,22.3,2.1c28.6,5.8,46.7,28,61.2,45.9l0.1,0.1
								c0.4,0.5,0.9,1.2,1.4,2.1c0.6,0.9,1.9,2.8,2.9,4.1c1.1-1.3,2.4-3.3,3-4.2c0.6-0.8,1-1.5,1.4-2l0.1-0.1l2-2.4
								c7.6-9.3,15.5-19,25.1-26.8c20.3-16.6,48.5-22.7,77.3-16.6c25.8,5.5,46.4,22.8,56.5,47.5c10.5,26,9.3,57.9-3.5,87.6
								c-7.3,17.1-18.7,33.5-36,51.7l-66.8,70.7c-8.6,9.1-17.2,18.3-25.9,27.4c-6.4,6.7-12.7,13.5-19.1,20.2l0.2,0.2h-0.4
								c-2.2,2.3-4.4,4.7-6.6,7C195.9,323.2,193.1,324.3,190.3,324.3z M188.5,314.2c0.3,0.3,0.5,0.5,0.8,0.8c0.3,0.3,1.6,0.4,2,0
								c0.2-0.3,0.5-0.5,0.7-0.8H188.5z M196,304.9l2.4,2.5c6.2-6.6,12.5-13.2,18.7-19.8c8.6-9.1,17.2-18.2,25.8-27.4l66.8-70.7
								c16.7-17.7,27.3-32.8,34.2-49.1c11.8-27.5,13.1-56.9,3.5-80.6c-8.9-21.9-27.2-37.2-50.1-42.1c-26.1-5.5-51.5-0.1-69.7,14.8
								c-8.9,7.3-16.5,16.5-23.9,25.5l-2,2.4c-0.3,0.3-0.6,0.9-1,1.5c-3.6,5.3-6.5,9.1-10.5,9.1c-4,0-6.8-3.8-10.4-9.1
								c-0.4-0.6-0.8-1.2-1.1-1.5c-17.3-21.2-32.5-37.9-56-42.7c-3.4-0.6-6.9-1.1-10.6-1.4c0,0.3,0,0.6,0,0.9c0,0.7-0.1,1.4-0.2,2.1
								c11,1,20.1,3.7,28.1,8.1c11.4,6.4,20.1,15.9,27.4,24.4c4.1,4.8,8,9.7,11.9,14.4c0.3,0.4,0.7,0.8,1,1.3
								c2.3,2.9,4.3,5.4,7.2,6.2c6.2,1.7,11.3-4.4,17.3-12.5c1.2-1.7,2.4-3.2,3.6-4.6c7.7-9.3,16-18.9,26.2-25.9
								c10-6.8,21.9-10.7,35.4-11.6c28.7-1.9,52.9,8.1,66.4,27.6c14.6,20.9,18,50.8,9.1,79.8c-6.1,20.1-18.1,39.5-36.6,59.2
								l-60.9,64.5l-36.9,39c-2.3,2.4-4.7,4.9-7,7.2C201.5,299.1,198.7,302,196,304.9z M91.8,16.4C77.4,18,64.7,23,54.5,30.9
								c-12,9.4-20.8,23.4-24.8,39.5c-9.4,37.9,4.3,79.9,37.8,115.4c18.9,20.1,38.2,40.5,56.8,60.2c9.7,10.3,19.4,20.5,29.1,30.8
								c9.4,10,19.1,20.2,28.6,30.4l0.2-0.3c0.3-0.5,0.7-0.8,0.9-1c0,0,0.1-0.1,0.1-0.1l0.1-0.1c0.2-0.2,0.3-0.4,0.5-0.6l-73.6-78
								c-6.5-6.9-13-13.8-19.5-20.7c-6.4-6.8-12.8-13.6-19.2-20.4c-27.8-29.4-41.9-59.9-42-90.7c0-22.6,6.9-42.3,19.5-55.7
								c10.8-11.5,25.5-18.4,42.9-20.3c-0.1-0.7-0.2-1.4-0.2-2.2C91.7,17,91.7,16.7,91.8,16.4z M103.1,27.8
								c-0.4,0.1-0.8,0.1-1.3,0.1C88.4,28,69.5,31.2,55.6,46c-11,11.7-17.1,29.3-17.1,49.5c0.1,28.4,13.4,56.8,39.6,84.5
								c6.4,6.8,12.8,13.6,19.2,20.3c6.5,6.9,13,13.8,19.5,20.7l73,77.4c2.7-2.9,5.4-5.7,8.1-8.4c2.3-2.3,4.7-4.7,6.9-7.1l36.9-39
								l60.9-64.5c17.5-18.7,28.9-36.9,34.6-55.6c8.1-26.4,5.1-53.3-7.9-72c-11.6-16.8-32.9-25.5-58.4-23.8
								c-11.9,0.8-22.3,4.2-31,10c-9.3,6.3-16.8,15.1-24.4,24.2c-1,1.2-2.1,2.7-3.3,4.3c-6,8.1-14.3,19.3-26.9,15.8
								c-5.8-1.5-9.1-5.7-12-9.3c-0.3-0.4-0.6-0.8-1-1.2c-3.8-4.7-7.8-9.6-11.7-14.2c-6.8-7.8-14.9-16.7-25-22.4
								C127.1,30.4,116.7,28,103.1,27.8z M101.8,15.8c-0.4,0-1.1,0.1-1.1,1.5c0,1.5,0.9,1.5,1.3,1.5c0.1,0,0.3,0,0.4,0
								c0.6-0.2,0.9-0.7,0.9-1.6c0-1.2-0.7-1.4-1.1-1.4C102.1,15.8,102,15.8,101.8,15.8z"/>
						</g>
						<g>
							<path d="M190.3,321.3c-2.1,0-4-0.8-5.3-2.2C173,306.4,160.8,293.5,149,281c-9.7-10.3-19.4-20.5-29.1-30.8
								C101.3,230.5,82,210.1,63.1,190c-34.9-37-49.2-81.1-39.3-121c4.4-17.4,13.9-32.6,26.9-42.8C64.4,15.6,82.1,9.9,101.9,9.8
								c0,0,0.1,0,0.1,0h0c0.1,0,0.2,0,0.3,0c8.3,0.1,15.3,0.8,21.8,2c27.5,5.6,45.2,27.4,59.5,44.8c0.4,0.5,0.8,1.1,1.3,1.9
								c1,1.5,4.2,6.2,5.4,6.4c1.2-0.2,4.5-5,5.5-6.5c0.5-0.8,0.9-1.4,1.3-1.8l2-2.5c7.5-9.2,15.3-18.7,24.7-26.4
								c19.6-16.1,46.9-21.9,74.8-16c24.9,5.3,44.7,22,54.4,45.7c10.2,25.3,9,56.3-3.5,85.3c-7.1,16.7-18.4,32.9-35.4,50.8
								l-66.8,70.7c-8.6,9.1-17.2,18.3-25.8,27.4c-8.6,9.1-17.2,18.2-25.8,27.4C194.3,320.5,192.3,321.3,190.3,321.3z M95.9,13
								c-16.7,1.1-31.6,6.4-43.3,15.6C40.1,38.4,30.9,53,26.8,69.8c-9.7,38.9,4.3,82,38.5,118.2c18.9,20.1,38.2,40.5,56.8,60.2
								c9.7,10.3,19.4,20.5,29.1,30.8c11.8,12.5,24,25.4,35.9,38.1c0.8,0.8,1.9,1.3,3.2,1.3s2.4-0.5,3.2-1.3
								c8.6-9.1,17.2-18.3,25.8-27.4c8.6-9.1,17.2-18.2,25.8-27.4l66.8-70.7c16.7-17.7,27.8-33.6,34.8-50
								c12.2-28.2,13.4-58.4,3.5-82.9c-9.3-22.8-28.4-38.8-52.2-43.9c-27-5.7-53.3-0.1-72.2,15.4c-9.2,7.4-16.9,16.8-24.3,25.9
								l-2,2.4c-0.3,0.3-0.7,0.9-1.1,1.6c-3,4.4-5.5,7.8-8,7.8c-2.5,0-4.9-3.4-7.9-7.7c-0.5-0.7-0.9-1.4-1.2-1.7
								c-13.9-17.1-31.3-38.3-57.7-43.8c-4.8-0.9-9.8-1.5-15.4-1.8c0.8,1.2,1.2,2.7,1.2,4.2c0,1.7-0.5,3.4-1.5,4.8
								c12.4,0.7,22.4,3.3,30.9,8c10.9,6.2,19.5,15.5,26.6,23.7c4,4.7,8,9.6,11.8,14.3c0.3,0.4,0.7,0.8,1,1.2
								c2.5,3.2,4.9,6.2,8.8,7.3c8.7,2.4,15-6.1,20.5-13.6c1.2-1.6,2.3-3.2,3.5-4.5c7.5-9.1,15.7-18.6,25.6-25.4
								c9.6-6.5,21-10.2,33.9-11.1c27.6-1.9,50.9,7.7,63.7,26.3c14.1,20.2,17.3,49,8.7,77.2c-6,19.7-17.7,38.6-35.9,58L246.1,248
								l-36.9,39c-2.3,2.4-4.7,4.8-7,7.2c-3.5,3.5-7,7.1-10.3,10.8l5.9,6.2h-15l1.8-2.4c0.2-0.3,0.4-0.5,0.6-0.7
								c0.1-0.1,0.3-0.2,0.4-0.4c0.7-0.9,1.5-1.8,2.2-2.7l-75.4-79.9c-6.5-6.9-13-13.8-19.5-20.7c-6.4-6.8-12.8-13.5-19.2-20.3
								c-27.3-28.8-41.1-58.6-41.2-88.6c0-21.8,6.6-40.8,18.7-53.6C64.8,27.5,82.3,23,96.3,22.1c-1-1.4-1.6-3.1-1.6-4.8
								C94.7,15.8,95.1,14.3,95.9,13z M189.1,308.2h1.7l-0.9-1C189.6,307.5,189.3,307.9,189.1,308.2z M103,24.8
								c-0.4,0.1-0.8,0.1-1.2,0.1c-14,0.1-33.7,3.4-48.4,19C41.9,56.2,35.5,74.5,35.5,95.5c0.1,29.2,13.7,58.3,40.4,86.6
								c6.4,6.8,12.8,13.6,19.2,20.3c6.5,6.9,13,13.8,19.5,20.7l75.2,79.7c3.3-3.7,6.8-7.2,10.2-10.7c2.3-2.3,4.7-4.7,6.9-7.1
								l36.9-39l60.9-64.5c17.9-19,29.4-37.6,35.3-56.8c8.4-27.3,5.3-55.2-8.3-74.6c-12.2-17.7-34.5-26.9-61.1-25.1
								c-12.4,0.8-23.4,4.4-32.5,10.5c-9.6,6.6-17.6,15.9-25,24.8c-1.1,1.3-2.2,2.8-3.4,4.4c-5.8,7.8-13.1,17.6-23.7,14.7
								c-4.8-1.3-7.7-4.8-10.4-8.3c-0.3-0.4-0.6-0.8-1-1.2c-3.8-4.7-7.8-9.6-11.8-14.3c-7-8.1-15.3-17.1-25.8-23.1
								C128.1,27.5,117.2,25,103,24.8z M101.9,12.8c-2.9,0.1-4.1,2.3-4.1,4.5c0,2.2,1.3,4.5,4.3,4.5c0.3,0,0.5,0,0.7,0
								c2.5-0.5,3.6-2.6,3.5-4.6c0-2.1-1.3-4.3-4.1-4.4C102.1,12.8,102,12.8,101.9,12.8z"/>
							<path d="M190.3,325.8c-3.3,0-6.4-1.3-8.6-3.6c-2-2.2-4.1-4.4-6.1-6.5h-1.7l0.8-1c-9.7-10.3-19.4-20.6-28.8-30.6
								c-8.5-9.1-17.1-18.1-25.6-27.2l-3.4-3.6c-17.6-18.6-37.6-39.7-56.8-60.2C23.9,155,9.1,109.3,19.5,67.9
								C24.1,49.6,34.2,33.5,48,22.7C62.4,11.4,81.1,5.4,101.9,5.3l0.1,0c0.1,0,0.3,0,0.4,0c8.6,0.1,15.7,0.8,22.5,2.1
								c29.1,6,47.4,28.4,62.1,46.4l0.1,0.1c0.5,0.6,0.9,1.3,1.5,2.2c0.7,1,1.2,1.8,1.7,2.4c0.5-0.7,1.1-1.5,1.8-2.6
								c0.5-0.8,1-1.5,1.4-2l0.1-0.1l2-2.5c7.7-9.4,15.6-19.1,25.4-27c20.7-16.9,49.3-23.1,78.5-16.9c26.3,5.6,47.3,23.3,57.6,48.4
								c10.7,26.4,9.4,58.7-3.5,88.7c-7.4,17.2-18.9,33.8-36.3,52.1l-66.8,70.7c-8.6,9.1-17.2,18.3-25.8,27.4
								c-6,6.4-12.1,12.8-18.1,19.2l1.6,1.7H205c-2,2.2-4.1,4.3-6.1,6.5C196.7,324.5,193.5,325.8,190.3,325.8z M198,304.9l0.3,0.3
								c5.9-6.2,11.8-12.4,17.6-18.7c8.6-9.1,17.2-18.2,25.8-27.4l66.8-70.7c16.4-17.3,27.2-32.8,33.9-48.6
								c11.7-27.1,12.9-56.1,3.5-79.5c-2.6-6.5-6.1-12.4-10.3-17.5c0.8,1,1.5,2,2.2,3c14.8,21.3,18.3,51.6,9.3,81.1
								c-6.2,20.3-18.3,39.9-37,59.8l-60.9,64.5l-36.9,39c-2.3,2.4-4.7,4.8-7,7.2C203,299.8,200.5,302.3,198,304.9z M103.2,29.3
								c-0.4,0-0.9,0.1-1.3,0.1C88.7,29.5,70.3,32.6,56.7,47C45.9,58.4,40,75.6,40,95.5c0.1,28,13.3,56.1,39.2,83.5
								c6.4,6.8,12.8,13.6,19.2,20.3l1.1,1.1c6.1,6.5,12.3,13,18.4,19.5l71.9,76.2c2.4-2.5,4.7-4.9,7.1-7.3c2.3-2.3,4.6-4.7,6.9-7
								l36.9-39l60.9-64.5c17.4-18.5,28.6-36.5,34.2-55c8-26,5.1-52.4-7.7-70.7c-11.3-16.4-32.1-24.8-57.1-23.1
								c-11.6,0.8-21.8,4.1-30.2,9.8c-9.1,6.2-16.9,15.2-24,23.9c-1,1.2-2.1,2.6-3.2,4.2c-5.2,7-12.7,17.1-23.5,17.1
								c-1.6,0-3.3-0.2-5-0.7c-6.2-1.7-9.8-6.2-12.7-9.8c-0.3-0.4-0.6-0.8-0.9-1.2c-3.8-4.7-7.8-9.6-11.7-14.2
								c-6.7-7.7-14.7-16.5-24.6-22.1C126.6,31.8,116.5,29.5,103.2,29.3z M186.6,71.5c0.5,0.3,1,0.5,1.5,0.7c0.2,0,0.3,0.1,0.5,0.1
								C187.9,72.2,187.2,71.9,186.6,71.5z M160.2,41.3c3.1,3.2,5.9,6.4,8.6,9.4c3.4,4,6.8,8.1,10,12.1c0,0-0.1-0.1-0.1-0.1
								c-0.4-0.6-0.8-1.2-1-1.5C172.4,54.9,166.7,47.8,160.2,41.3z M203,61.3c-0.2,0.3-0.5,0.7-0.9,1.3l-0.1,0.1c0,0,0,0,0,0
								c0.6-0.8,1.2-1.6,1.8-2.4c0,0,0-0.1,0.1-0.1L203,61.3z M277.2,17.3c18.4,0,34.7,5.1,47.2,14.5c-7.9-6.1-17.2-10.4-27.4-12.6
								c-11.7-2.5-23.3-2.7-34.2-0.9c2.4-0.4,4.8-0.6,7.3-0.8C272.6,17.3,274.9,17.3,277.2,17.3z M113.8,17.9
								c7.6,0.8,14.2,2.4,20.2,4.8c-3.6-1.5-7.4-2.8-11.4-3.6C119.8,18.6,116.9,18.2,113.8,17.9C113.8,17.9,113.8,17.9,113.8,17.9z
								 M90.3,18.1c-4.3,0.6-8.4,1.5-12.3,2.6C81.8,19.6,86,18.7,90.3,18.1C90.3,18.1,90.3,18.1,90.3,18.1z"/>
						</g>
					</g>
				</g>
			</g>
		</g>
	</g>
</g>
</svg>
