<?xml version="1.0" encoding="utf-8"?>
<!-- Generator: Adobe Illustrator 19.1.0, SVG Export Plug-In . SVG Version: 6.00 Build 0)  -->
<svg version="1.1" baseProfile="basic" id="Layer_1"
	 xmlns="http://www.w3.org/2000/svg" xmlns:xlink="http://www.w3.org/1999/xlink" x="0px" y="0px" viewBox="0 0 22 22"
	 xml:space="preserve">
<style type="text/css">
	.st0{fill:#FFFFFF;}
</style>
<g>
	<ellipse cx="11" cy="11" rx="9.9" ry="10"/>
	<path d="M11,21.5C5.3,21.5,0.6,16.8,0.6,11C0.6,5.2,5.3,0.5,11,0.5S21.4,5.2,21.4,11C21.4,16.8,16.7,21.5,11,21.5z M11,1.5
		c-5.2,0-9.4,4.3-9.4,9.5c0,5.2,4.2,9.5,9.4,9.5c5.2,0,9.4-4.3,9.4-9.5C20.4,5.8,16.2,1.5,11,1.5z"/>
</g>
<path class="st0" d="M16.4,10.5L11.8,6c-0.3-0.3-0.7-0.3-1,0c-0.3,0.3-0.3,0.7,0,1l3.4,3.3H6.2c-0.4,0-0.7,0.3-0.7,0.7
	c0,0.4,0.3,0.7,0.7,0.7h7.9L10.8,15c-0.3,0.3-0.3,0.7,0,1c0.1,0.1,0.3,0.2,0.5,0.2c0.2,0,0.4-0.1,0.5-0.2l4.6-4.5
	C16.6,11.2,16.6,10.8,16.4,10.5L16.4,10.5z M16.4,10.5"/>
</svg>
