<?xml version="1.0" encoding="utf-8"?>
<!-- Generator: Adobe Illustrator 19.1.0, SVG Export Plug-In . SVG Version: 6.00 Build 0)  -->
<svg version="1.1" id="Layer_1" xmlns="http://www.w3.org/2000/svg" xmlns:xlink="http://www.w3.org/1999/xlink" x="0px" y="0px"
	 viewBox="-12 8.7 22 22" style="enable-background:new -12 8.7 22 22;" xml:space="preserve">
<style type="text/css">
	.st0{fill:#FFFFFF;}
</style>
<g>
	<ellipse transform="matrix(-5.612810e-004 1 -1 -5.612810e-004 18.6894 20.7011)" cx="-1" cy="19.7" rx="10" ry="9.9"/>
	<path d="M-1,9.2c5.7,0,10.4,4.7,10.4,10.5c0,5.8-4.7,10.5-10.4,10.5c-5.7,0-10.4-4.7-10.4-10.5C-11.4,13.9-6.7,9.2-1,9.2z M-1,29.2
		c5.2,0,9.4-4.3,9.4-9.5c0-5.2-4.2-9.5-9.4-9.5s-9.4,4.3-9.4,9.5C-10.4,24.9-6.2,29.2-1,29.2z"/>
</g>
<path class="st0" d="M-6.4,20.2l4.6,4.5c0.3,0.3,0.7,0.3,1,0s0.3-0.7,0-1l-3.4-3.3l8,0c0.4,0,0.7-0.3,0.7-0.7c0-0.4-0.3-0.7-0.7-0.7
	l-7.9,0l3.3-3.3c0.3-0.3,0.3-0.7,0-1c-0.1-0.1-0.3-0.2-0.5-0.2c-0.2,0-0.4,0.1-0.5,0.2l-4.6,4.5C-6.6,19.5-6.6,19.9-6.4,20.2
	L-6.4,20.2z"/>
</svg>
