<?xml version="1.0" encoding="utf-8"?>
<!-- Generator: Adobe Illustrator 19.1.0, SVG Export Plug-In . SVG Version: 6.00 Build 0)  -->
<svg version="1.1" id="Layer_1" xmlns="http://www.w3.org/2000/svg" xmlns:xlink="http://www.w3.org/1999/xlink" x="0px" y="0px"
	 viewBox="0 0 1190.6 841.9" style="enable-background:new 0 0 1190.6 841.9;" xml:space="preserve">
<style type="text/css">
	.st0{fill-rule:evenodd;clip-rule:evenodd;}
</style>
<g>
	<g>
		<path d="M560,392.1c-1.7,0-2.4,0.9-2.8,1.6v-1.3H554c0,0.9,0,9.5,0,9.5h3.2v-5.3c0-0.3,0-0.6,0.1-0.8c0.2-0.6,0.7-1.2,1.6-1.2
			c1.1,0,1.6,0.9,1.6,2.1v5.1h3.2v-5.4C563.6,393.5,562.1,392.1,560,392.1L560,392.1z M557.2,393.7L557.2,393.7
			C557.2,393.7,557.2,393.7,557.2,393.7L557.2,393.7z M557.2,393.7"/>
		<rect x="549.1" y="392.4" width="3.2" height="9.5"/>
		<path d="M550.7,387.8c-1.1,0-1.8,0.7-1.8,1.6c0,0.9,0.7,1.6,1.7,1.6h0c1.1,0,1.8-0.7,1.8-1.6C552.5,388.5,551.8,387.8,550.7,387.8
			L550.7,387.8z M550.7,387.8"/>
	</g>
	<path class="st0" d="M571.2,395.5c0-8.6-6.9-15.5-15.5-15.5c-8.6,0-15.5,6.9-15.5,15.5c0,8.6,6.9,15.5,15.5,15.5
		C564.3,411,571.2,404.1,571.2,395.5L571.2,395.5z M541.7,395.5c0-7.8,6.3-14.1,14.1-14.1s14.1,6.3,14.1,14.1
		c0,7.8-6.3,14.1-14.1,14.1S541.7,403.3,541.7,395.5L541.7,395.5z M541.7,395.5"/>
</g>
</svg>
