<?xml version="1.0" encoding="utf-8"?>
<!-- Generator: Adobe Illustrator 19.1.0, SVG Export Plug-In . SVG Version: 6.00 Build 0)  -->
<svg version="1.1" id="Layer_1" xmlns="http://www.w3.org/2000/svg" xmlns:xlink="http://www.w3.org/1999/xlink" x="0px" y="0px"
	 viewBox="0 0 379.8 334.5" style="enable-background:new 0 0 379.8 334.5;" xml:space="preserve">
<g>
	<g>
		<path d="M329.5,19.9H50.6c-24.9,0-45.1,21.2-45.1,47.3v199.7c0,26.1,20.2,47.3,45.1,47.3h278.8c24.9,0,45.1-21.2,45.1-47.3V67.2
			C374.6,41.2,354.3,19.9,329.5,19.9L329.5,19.9z M354,266.9c0,14.2-11,25.7-24.5,25.7H50.6c-13.5,0-24.5-11.5-24.5-25.7V67.2
			c0-14.2,11-25.7,24.5-25.7h278.8c13.5,0,24.5,11.5,24.5,25.7L354,266.9L354,266.9z M354,266.9"/>
		<g>
			<path d="M329.5,14.9c-31.7,0-63.5,0-95.2,0c-50.2,0-100.4,0-150.6,0c-10.9,0-21.8-0.1-32.8,0c-29.2,0.3-50.3,25-50.4,53.4
				c-0.2,41.8,0,83.6,0,125.4c0,21,0,42,0,63c0,3.4,0,6.8,0,10.2c0.2,18.3,9.3,35.8,25.2,45.4c13,7.8,27,6.9,41.4,6.9
				c19.9,0,39.8,0,59.6,0c51.6,0,103.1,0,154.7,0c14.8,0,29.6,0,44.4,0c6.9,0,13.8-0.5,20.4-3c16.9-6.4,29.4-21.8,32.4-39.6
				c2.3-13.2,0.9-27.6,0.9-40.9c0-25.2,0-50.4,0-75.6c0-23.8,0-47.6,0-71.4c0-16.6,1.5-33.6-7.2-48.6
				C363.4,24.8,347.2,15.2,329.5,14.9c-6.4-0.1-6.4,9.9,0,10c18.1,0.3,33.4,12.8,38.3,30c1.7,6,1.7,12.1,1.7,18.3
				c0,18.6,0,37.2,0,55.8c0,44.1,0,88.2,0,132.3c0,6.5-0.1,12.8-2.1,19.2c-5.3,16.6-20.5,28.4-38,28.7c-9.1,0.1-18.1,0-27.2,0
				c-47.5,0-94.9,0-142.4,0c-35.8,0-71.7,0.1-107.5,0c-24.1-0.1-41.7-19.3-41.8-43.1c-0.1-14.4,0-28.7,0-43.1c0-47.2,0-94.3,0-141.5
				c0-4.6,0-9.1,0-13.7c0.1-13.9,6.1-27.3,17.6-35.5c11.8-8.4,25-7.3,38.6-7.3c45,0,89.9,0,134.9,0c40.4,0,80.8,0,121.1,0
				c2.3,0,4.5,0,6.8,0C335.9,24.9,335.9,14.9,329.5,14.9z"/>
			<path d="M349,266.9c-0.3,11.6-8.7,20.6-20.4,20.7c-3.5,0-7,0-10.5,0c-16.4,0-32.7,0-49.1,0c-47.7,0-95.4,0-143.1,0
				c-18.4,0-36.9,0-55.3,0c-8.3,0-20.3,1.9-28.1-1.9C28.3,278.7,31.1,261,31.1,248c0-21,0-42,0-63c0-38.5,0-77.1,0-115.6
				c0-9.2,3.9-18.2,13.1-21.6c3.7-1.4,7.5-1.1,11.3-1.1c13.7,0,27.4,0,41.1,0c46.7,0,93.3,0,140,0c30.7,0,61.4-0.3,92.1,0
				c11.6,0.1,19.9,9.3,20.2,20.7c0.1,3.1,0,6.2,0,9.2c0,18.4,0,36.9,0,55.3c0,42.3,0,84.6,0,126.9
				C348.9,261.4,348.9,264.1,349,266.9c-0.1,2.7,2.2,5,4.9,5c0,0,0.1,0,0.1,0c6.4,0,6.4-10,0-10c0,0-0.1,0-0.1,0
				c1.7,1.7,3.3,3.3,5,5c0-34.9,0-69.9,0-104.8c0-22.9,0-45.8,0-68.7c0-6.9,0-13.8,0-20.7c0-5.9,0-11.7-2.4-17.3
				c-4.7-11.5-15.5-18.6-27.8-18.8c-3.4,0-6.9,0-10.3,0c-16.9,0-33.8,0-50.8,0c-49,0-98.1,0-147.1,0c-18.1,0-36.3,0-54.4,0
				c-12.6,0-25.4-1.4-35.5,8.1c-11.8,11.1-9.6,27.8-9.6,42.4c0,22,0,44,0,66.1c0,37.7-0.3,75.4,0,113.1c0.1,13.2,7.7,25.4,20.4,29.8
				c4.5,1.5,9,1.5,13.6,1.5c14,0,27.9,0,41.9,0c48.4,0,96.8,0,145.2,0c29,0,58.1,0.7,87.2,0c16.8-0.4,29.1-14.2,29.5-30.7
				C359.1,260.4,349.1,260.4,349,266.9z"/>
			<path d="M354,271.9c6.4,0,6.4-10,0-10C347.5,261.9,347.5,271.9,354,271.9L354,271.9z"/>
		</g>
	</g>
	<g>
		<path d="M238.2,164.5l90.2-84.8c4.2-4,4.6-10.8,0.8-15.3c-3.8-4.4-10.3-4.8-14.6-0.8l-124.5,117L165.9,158
			c-0.1-0.1-0.1-0.2-0.1-0.2c-0.5-0.6-1.1-1-1.7-1.5L65.3,63.6c-4.3-4-10.8-3.6-14.6,0.9c-3.8,4.5-3.4,11.3,0.8,15.3l91.3,85.5
			l-90.9,89.2c-4.1,4.1-4.4,10.9-0.5,15.3c2.1,2.2,4.8,3.4,7.6,3.4c2.5,0,5-1,7-2.9l92.3-90.5l25,23.4c2,1.8,4.4,2.7,6.9,2.7
			c2.4,0,5-1,6.9-2.8l25.7-24.2l91.8,91.4c2,2,4.6,3,7.1,3c2.7,0,5.4-1.1,7.5-3.4c3.9-4.3,3.7-11.2-0.4-15.3L238.2,164.5z
			 M238.2,164.5"/>
		<g>
			<path d="M241.7,168.1c15.3-14.4,30.6-28.7,45.8-43.1c10.3-9.7,20.6-19.3,30.8-29c4.8-4.5,10.2-8.8,14.5-13.8
				c7.3-8.5,3.6-22.8-7.6-25.8c-5.7-1.5-10.9,0.6-15.1,4.4c-5.4,4.9-10.6,10-15.9,14.9c-20.8,19.6-41.6,39.1-62.4,58.7
				c-15.1,14.2-30.2,28.4-45.3,42.6c2.4,0,4.7,0,7.1,0c-8-7.5-16.2-14.8-24-22.5c-0.3-0.3-0.9-0.7,0.4,0.5c-0.8-0.8-1.6-1.7-2.5-2.5
				c-0.1-0.1-0.2-0.2-0.3-0.2c-0.6-0.6-1.3-1.2-1.9-1.8c-2.7-2.6-5.5-5.1-8.2-7.7c-20.7-19.4-41.4-38.9-62.2-58.3
				C87.4,77.5,79.7,70.2,72,63c-1.7-1.6-3.4-3.4-5.3-4.7c-9.3-6.1-21.6-0.1-23.4,10.7c-1.7,10.2,6.5,16,13,22
				c9.5,8.9,19.1,17.9,28.6,26.8c18.1,17,36.2,33.9,54.4,50.9c0-2.4,0-4.7,0-7.1c-28.6,28.1-57.2,56.2-85.9,84.2
				c-6.2,6-12.3,12.4-8.7,22c3.6,9.6,15.5,13.2,23.6,6.9c1.4-1.1,2.6-2.4,3.9-3.6c15.6-15.3,31.2-30.5,46.8-45.8
				c14.3-14,28.6-28.1,42.9-42.1c-2.4,0-4.7,0-7.1,0c5.1,4.8,10.3,9.6,15.4,14.4c5.8,5.4,12.1,13.6,20.8,13.2
				c8-0.4,14.2-8.5,19.6-13.6c5.3-4.9,10.5-9.9,15.8-14.8c-2.4,0-4.7,0-7.1,0c28.6,28.5,57.3,57,85.9,85.5
				c5.9,5.8,11.7,12.6,21.2,9.5c9-2.9,13.1-13.8,9-22.2c-1.2-2.5-3.1-4.3-5-6.2c-15.1-15.1-30.3-30.1-45.4-45.2
				c-14.4-14.3-28.8-28.6-43.2-43c-4.6-4.5-11.6,2.5-7.1,7.1c27.4,27.3,54.8,54.6,82.3,81.8c2.8,2.8,9.5,7.4,10.1,11.8
				c0.8,6.2-5.6,8-9.5,4.5c-1.8-1.6-3.4-3.4-5.1-5.1c-15.7-15.6-31.4-31.2-47.1-46.9c-13-12.9-25.9-25.8-38.9-38.7
				c-2-1.9-5.1-1.9-7.1,0c-4.4,4.1-8.8,8.3-13.2,12.4c-3,2.9-6.1,5.7-9.1,8.6c-1.7,1.6-3.5,3.9-5.9,4.3c-3.1,0.5-5-1.9-7-3.8
				c-2.9-2.7-5.7-5.3-8.6-8c-4.5-4.2-9.1-8.5-13.6-12.7c-2-1.9-5.1-1.9-7.1,0c-27.5,27-55.1,54-82.6,81c-3.2,3.1-6.2,6.8-9.7,9.5
				c-6.4,5-11.2-4.3-6.6-9.2c1.5-1.6,3.1-3,4.6-4.5c15.6-15.3,31.2-30.6,46.8-45.9c13-12.8,26.1-25.6,39.1-38.3c1.9-1.8,2-5.2,0-7.1
				c-30.2-28.3-61.2-55.9-90.7-84.9c-0.8-0.8-1.7-1.6-2.2-2.7c-2.2-5.2,3.5-10.4,8.2-7c1.3,0.9,2.4,2.2,3.5,3.3
				c7.2,6.7,14.3,13.4,21.5,20.1c20.1,18.8,40.2,37.7,60.2,56.5c13.3,12.4,26.4,24.8,39.7,37.2c2,1.9,5,1.9,7.1,0
				c32.1-30.2,64.3-60.4,96.4-90.7c7.3-6.8,14.5-13.6,21.8-20.5c1.8-1.7,3.5-3.4,5.4-5.1c0.3-0.3,0.6-0.6,0.9-0.8
				c4.2-3.1,9.7,0.5,8.5,5.8c-0.6,2.6-2.9,4.2-4.7,6c-2.9,2.8-5.9,5.5-8.8,8.3c-9.4,8.9-18.9,17.7-28.3,26.6
				c-16.7,15.7-33.5,31.5-50.2,47.2C230,165.4,237.1,172.5,241.7,168.1z"/>
			<path d="M238.2,169.5c6.4,0,6.4-10,0-10C231.8,159.5,231.8,169.5,238.2,169.5L238.2,169.5z"/>
		</g>
	</g>
</g>
</svg>
