<?xml version="1.0" encoding="utf-8"?>
<!-- Generator: Adobe Illustrator 19.1.0, SVG Export Plug-In . SVG Version: 6.00 Build 0)  -->
<svg version="1.1" id="Layer_1" xmlns="http://www.w3.org/2000/svg" xmlns:xlink="http://www.w3.org/1999/xlink" x="0px" y="0px"
	 viewBox="0 0 379.8 334.5" style="enable-background:new 0 0 379.8 334.5;" xml:space="preserve">
<g>
	<g>
		<path d="M333.7,20.9H48.1c-25.5,0-46.2,21.2-46.2,47.3v199.7c0,26.1,20.7,47.3,46.2,47.3h285.5c25.5,0,46.2-21.2,46.2-47.3V68.2
			C379.9,42.2,359.2,20.9,333.7,20.9L333.7,20.9z M358.8,267.9c0,14.2-11.3,25.7-25.1,25.7H48.1C34.2,293.5,23,282,23,267.9V68.2
			c0-14.2,11.3-25.7,25.1-25.7h285.5c13.8,0,25.1,11.5,25.1,25.7L358.8,267.9L358.8,267.9z M358.8,267.9"/>
		<g>
			<path d="M333.7,14.9c-31.9,0-63.8,0-95.7,0c-51.1,0-102.3,0-153.4,0c-11.9,0-23.8-0.1-35.7,0C19.1,15-3.9,39.3-4.1,68.7
				c-0.4,41.3,0,82.7,0,124c0,21.5,0,43,0,64.5c0,3.5,0,7.1,0,10.6c0.2,18.8,9.9,36.6,26.3,46.2c13.4,7.9,27.8,7.1,42.6,7.1
				c20,0,40,0,60,0c52.2,0,104.5,0,156.7,0c15.7,0,31.4,0,47,0c5.4,0,10.8-0.1,16.2-1.2c18.2-3.9,32.9-18,38.6-35.5
				c4.5-13.9,2.6-30.8,2.6-45.1c0-25.2,0-50.5,0-75.7c0-24.3,0-48.6,0-72.9c0-17.1,1.6-34.7-7.5-50C368.9,24.8,352,15.2,333.7,14.9
				c-7.7-0.1-7.7,11.9,0,12c18.3,0.3,34.1,12.9,38.8,30.6c1.5,5.7,1.3,11.3,1.3,17.1c0,19.1,0,38.2,0,57.3c0,43.9,0,87.8,0,131.7
				c0,7.9-0.7,15.6-4.3,22.9c-6.9,13.7-20.7,22.4-36,22.6c-10.1,0.1-20.2,0-30.3,0c-48.5,0-97,0-145.5,0c-36,0-71.9,0.1-107.9,0
				C26,309.1,8,290.7,7.9,266.9c-0.1-14.9,0-29.8,0-44.7c0-47.2,0-94.4,0-141.6c0-4.1,0-8.1,0-12.2C8,52.7,16.4,38.3,30.5,31.1
				c11-5.6,24.4-4.2,36.3-4.2c45.8,0,91.7,0,137.5,0c40.9,0,81.8,0,122.7,0c2.2,0,4.4,0,6.7,0C341.4,26.9,341.4,14.9,333.7,14.9z"/>
			<path d="M352.8,267.9c-0.3,11.2-8.8,19.6-20,19.7c-3.6,0-7.1,0-10.7,0c-16.5,0-33,0-49.5,0c-48.4,0-96.7,0-145.1,0
				c-19,0-38.1,0-57.1,0c-8,0-16.7,0.9-24.8-0.1C34.8,286,29,276.3,29,266.2c0-5.1,0-10.3,0-15.4c0-21,0-41.9,0-62.9
				c0-39.2,0-78.4,0-117.6c0-9.2,4.1-17.8,13.4-20.8c3.4-1.1,7.1-0.9,10.7-0.9c13.7,0,27.3,0,41,0c47.5,0,95,0,142.5,0
				c32,0,63.9-0.2,95.9,0c10,0.1,18.7,6.6,20.1,16.9c0.5,3.4,0.1,7.1,0.1,10.5c0,18.2,0,36.3,0,54.5c0,43,0,86,0,129
				C352.7,262.3,352.7,265.1,352.8,267.9c-0.1,3.2,2.7,6,5.9,6c0,0,0.1,0,0.1,0c7.7,0,7.7-12,0-12c0,0-0.1,0-0.1,0c2,2,4,4,6,6
				c0-35.6,0-71.2,0-106.8c0-22.9,0-45.8,0-68.8c0-12.9,2.4-29.8-4.9-41.2c-6.1-9.5-16.2-14.5-27.3-14.6c-3.9,0-7.8,0-11.7,0
				c-17.5,0-35,0-52.4,0c-49.9,0-99.8,0-149.7,0c-18.3,0-36.5,0-54.8,0c-13.1,0-26.2-1.3-36.7,8.4C14.7,56.3,17,73.3,17,88.4
				c0,22.4,0,44.8,0,67.2c0,37.3-0.7,74.7,0,112c0.3,15.5,11.1,29.3,26.8,31.6c3.3,0.5,6.7,0.4,10,0.4c14.7,0,29.4,0,44.1,0
				c49.2,0,98.4,0,147.7,0c29.3,0,58.8,0.7,88.1,0c17.5-0.4,30.7-14.4,31.1-31.7C365,260.1,353,260.1,352.8,267.9z"/>
			<path d="M358.8,273.9c7.7,0,7.7-12,0-12C351.1,261.9,351.1,273.9,358.8,273.9L358.8,273.9z"/>
		</g>
	</g>
	<g>
		<path d="M240.2,165.5l92.4-84.8c4.3-4,4.7-10.8,0.8-15.3c-3.9-4.4-10.6-4.8-14.9-0.8L191,181.7L166.2,159
			c-0.1-0.1-0.2-0.2-0.2-0.2c-0.6-0.6-1.1-1-1.7-1.5L63.1,64.6c-4.4-4-11-3.6-14.9,0.9c-3.9,4.5-3.5,11.3,0.9,15.3l93.5,85.5
			l-93.1,89.2c-4.2,4.1-4.5,10.9-0.5,15.3c2.1,2.2,4.9,3.4,7.7,3.4c2.6,0,5.2-1,7.2-2.9l94.6-90.5l25.6,23.4c2,1.8,4.5,2.7,7,2.7
			c2.5,0,5.1-1,7-2.8l26.4-24.2l94,91.4c2,2,4.7,3,7.3,3c2.8,0,5.6-1.1,7.7-3.4c4-4.3,3.8-11.2-0.4-15.3L240.2,165.5z M240.2,165.5"
			/>
		<g>
			<path d="M244.5,169.8c15.5-14.2,31.1-28.5,46.6-42.7c10.7-9.8,21.4-19.6,32.1-29.4c4.8-4.4,10.3-8.7,14.7-13.6
				c7.8-8.8,4.2-23.9-7.4-27.4c-6.2-1.8-12.1,0.2-16.8,4.4c-5.4,4.8-10.7,9.8-16,14.7c-21.3,19.5-42.5,39-63.8,58.5
				c-15.7,14.4-31.3,28.8-47,43.2c2.8,0,5.7,0,8.5,0c-8.2-7.5-16.5-14.9-24.6-22.5c-0.3-0.3-1.1-0.8,0.5,0.7
				c-0.9-0.9-1.7-1.9-2.7-2.7c-0.1-0.1-0.2-0.2-0.3-0.2c-0.6-0.6-1.3-1.2-1.9-1.8c-2.9-2.7-5.8-5.3-8.7-8
				c-21.3-19.5-42.6-39-63.8-58.4C86,77.4,78.1,70.2,70.3,63c-2-1.8-4-3.9-6.3-5.2c-9.9-5.4-22.3,0.9-24.2,11.9
				c-1.9,10.8,6.8,16.9,13.7,23.2c9.9,9,19.8,18.1,29.6,27.1c18.4,16.8,36.8,33.6,55.2,50.4c0-2.8,0-5.7,0-8.5
				c-29.4,28.2-58.8,56.3-88.2,84.5c-6.5,6.3-12.7,13.2-8.7,23.2c4.1,10.1,16.8,13.6,25.5,6.9c1.4-1.1,2.7-2.4,4-3.6
				c15.9-15.2,31.9-30.5,47.8-45.7c14.7-14,29.4-28.1,44-42.1c-2.8,0-5.7,0-8.5,0c5.4,4.9,10.7,9.8,16.1,14.7
				c6.1,5.6,12.6,13.6,21.6,13.2c8.4-0.4,15-8.6,20.8-13.9c5.4-4.9,10.7-9.8,16.1-14.7c-2.8,0-5.7,0-8.5,0
				c29.4,28.5,58.8,57.1,88.1,85.6c6.4,6.2,13,13.1,23.1,9.4c9.7-3.6,13.8-15.7,8.4-24.6c-1.3-2.1-3.1-3.7-4.8-5.4
				c-15.6-15.1-31.1-30.2-46.7-45.3c-14.6-14.2-29.3-28.4-43.9-42.7c-5.5-5.4-14,3.1-8.5,8.5c28,27.2,56,54.4,84.1,81.7
				c2.8,2.8,8.4,6.4,10,10.3c2.2,5.5-4.2,8-8,4.8c-1.7-1.5-3.3-3.2-5-4.9C301,246,285,230.4,269,214.9c-13.4-13-26.8-26.1-40.2-39.1
				c-2.4-2.3-6.1-2.2-8.5,0c-4.6,4.3-9.3,8.5-13.9,12.8c-3,2.8-6.1,5.6-9.1,8.4c-1.5,1.4-3.3,3.6-5.4,4c-2.8,0.5-4.5-1.8-6.4-3.5
				c-3-2.7-5.9-5.4-8.9-8.1c-4.6-4.2-9.3-8.5-13.9-12.7c-2.4-2.2-6.1-2.3-8.5,0c-28.2,27-56.4,54-84.7,81c-3.1,3-6.3,7-9.9,9.5
				c-5.7,3.9-9.5-3.4-5.6-7.7c1.4-1.5,3.1-2.9,4.6-4.4c15.9-15.2,31.8-30.5,47.8-45.7c13.5-12.9,27-25.8,40.5-38.8
				c2.3-2.2,2.4-6.3,0-8.5c-14.5-13.2-29-26.5-43.5-39.7c-10.4-9.5-20.8-19.1-31.3-28.6C66,88.2,59.6,82.8,53.9,77
				c-0.8-0.8-1.6-1.4-2.1-2.5c-1.6-3.8,2.2-8.1,6.1-6.3c1.6,0.7,2.9,2.4,4.2,3.5c7.3,6.7,14.6,13.4,21.9,20.1
				c20.7,19,41.4,37.9,62.1,56.9c13.7,12.6,26.8,24.6,40.7,37.2c2.5,2.3,6,2.3,8.5,0c33-30.3,66-60.6,99-90.9
				c7.4-6.8,14.9-13.7,22.3-20.5c1.8-1.6,3.5-3.4,5.3-4.9c3.7-3.1,10.1-0.6,7.9,4.9c-0.7,1.8-2.9,3.3-4.3,4.6
				c-3.1,2.8-6.2,5.7-9.3,8.5c-9.8,9-19.5,17.9-29.3,26.9c-17,15.6-34,31.2-51,46.8C230.3,166.5,238.8,175,244.5,169.8z"/>
			<path d="M240.2,171.5c7.7,0,7.7-12,0-12C232.5,159.5,232.5,171.5,240.2,171.5L240.2,171.5z"/>
		</g>
	</g>
</g>
</svg>
