<?xml version="1.0" encoding="utf-8"?>
<!-- Generator: Adobe Illustrator 19.1.0, SVG Export Plug-In . SVG Version: 6.00 Build 0)  -->
<svg version="1.1" id="Layer_1" xmlns="http://www.w3.org/2000/svg" xmlns:xlink="http://www.w3.org/1999/xlink" x="0px" y="0px"
	 viewBox="0 0 1190.6 841.9" style="enable-background:new 0 0 1190.6 841.9;" xml:space="preserve">
<style type="text/css">
	.st0{stroke:#000000;stroke-width:8;stroke-miterlimit:10;}
</style>
<g>
	<path class="st0" d="M740.4,273.9H448.3c-26.1,0-47.3,21.2-47.3,47.3v199.7c0,26.1,21.2,47.3,47.3,47.3h292.1
		c26.1,0,47.3-21.2,47.3-47.3V321.2C787.7,295.2,766.5,273.9,740.4,273.9L740.4,273.9z M766.1,520.9c0,14.2-11.5,25.7-25.7,25.7
		H448.3c-14.2,0-25.7-11.5-25.7-25.7V321.2c0-14.2,11.5-25.7,25.7-25.7h292.1c14.2,0,25.7,11.5,25.7,25.7L766.1,520.9L766.1,520.9z
		 M766.1,520.9"/>
	<path class="st0" d="M644.8,418.5l94.6-84.8c4.4-4,4.8-10.8,0.8-15.3c-4-4.4-10.8-4.8-15.3-0.8l-130.4,117L569.1,412
		c-0.1-0.1-0.2-0.2-0.2-0.2c-0.6-0.6-1.1-1-1.8-1.5l-103.5-92.6c-4.5-4-11.3-3.6-15.3,0.9c-4,4.5-3.6,11.3,0.9,15.3l95.7,85.5
		l-95.3,89.2c-4.3,4.1-4.6,10.9-0.5,15.3c2.2,2.2,5,3.4,7.9,3.4c2.6,0,5.3-1,7.4-2.9l96.7-90.5l26.2,23.4c2.1,1.8,4.6,2.7,7.2,2.7
		c2.6,0,5.2-1,7.2-2.8l27-24.2l96.2,91.4c2.1,2,4.8,3,7.4,3c2.9,0,5.7-1.1,7.8-3.4c4.1-4.3,3.9-11.2-0.4-15.3L644.8,418.5z
		 M644.8,418.5"/>
</g>
</svg>
