<?xml version="1.0" encoding="utf-8"?>
<!-- Generator: Adobe Illustrator 19.1.0, SVG Export Plug-In . SVG Version: 6.00 Build 0)  -->
<svg version="1.1" id="Layer_1" xmlns="http://www.w3.org/2000/svg" xmlns:xlink="http://www.w3.org/1999/xlink" x="0px" y="0px"
	 viewBox="0 0 47.9 39.7" style="enable-background:new 0 0 47.9 39.7;" xml:space="preserve">
<g>
	<g>
		<path d="M44.1,8.2h-6.8l-3.2-8H13.8l-3.2,8H9.6v-4H4.8v4h-1C1.7,8.2,0,10,0,12.1v23.5c0,2.1,1.7,3.9,3.9,3.9h40.3
			c2.1,0,3.9-1.7,3.9-3.9V12.1C48,10,46.2,8.2,44.1,8.2L44.1,8.2z M6.4,5.8H8v2.4H6.4V5.8z M46.4,35.6c0,1.3-1,2.3-2.3,2.3H3.8
			c-1.3,0-2.3-1-2.3-2.3V12.1c0-1.2,1-2.2,2.2-2.2h7.9l3.2-8H33l3.2,8h7.9c1.2,0,2.2,1,2.2,2.2V35.6z M46.4,35.6"/>
		<path d="M44.1,39.7H3.8c-2.3,0-4.1-1.8-4.1-4.1V12.1C-0.3,9.8,1.5,8,3.8,8h0.7V4h5.3v4h0.6l3.2-8h20.6l3.2,8h6.7
			c2.3,0,4.1,1.8,4.1,4.1v23.5C48.2,37.8,46.4,39.7,44.1,39.7z M3.8,8.5c-2,0-3.6,1.6-3.6,3.6v23.5c0,2,1.6,3.6,3.6,3.6h40.3
			c2,0,3.6-1.6,3.6-3.6V12.1c0-2-1.6-3.6-3.6-3.6h-7l-3.2-8H14l-3.2,8H9.3v-4H5v4H3.8z M44.1,38.1H3.8c-1.4,0-2.5-1.1-2.5-2.5V12.1
			c0-1.4,1.1-2.5,2.5-2.5h7.7l3.2-8h18.5l3.2,8h7.7c1.4,0,2.5,1.1,2.5,2.5v23.5C46.6,37,45.5,38.1,44.1,38.1z M3.8,10.1
			c-1.1,0-2,0.9-2,2v23.5c0,1.1,0.9,2,2,2h40.3c1.1,0,2-0.9,2-2V12.1c0-1.1-0.9-2-2-2H36l-3.2-8H15.1l-3.2,8H3.8z M8.2,8.5H6.1V5.6
			h2.1V8.5z M6.6,8h1.1V6.1H6.6V8z"/>
	</g>
	<g>
		<path d="M24.2,11.7c-5.8,0-10.6,4.7-10.6,10.6c0,5.8,4.7,10.6,10.6,10.6s10.6-4.7,10.6-10.6C34.8,16.4,30.1,11.7,24.2,11.7
			L24.2,11.7z M24.2,31.7c-5.2,0-9.4-4.2-9.4-9.4c0-5.2,4.2-9.4,9.4-9.4s9.4,4.2,9.4,9.4C33.6,27.4,29.4,31.7,24.2,31.7L24.2,31.7z
			 M24.2,31.7"/>
		<path d="M24.2,33.3c-6.1,0-11.1-5-11.1-11.1c0-6.1,5-11.1,11.1-11.1c6.1,0,11.1,5,11.1,11.1C35.3,28.4,30.3,33.3,24.2,33.3z
			 M24.2,12.2c-5.6,0-10.1,4.5-10.1,10.1c0,5.6,4.5,10.1,10.1,10.1s10.1-4.5,10.1-10.1C34.3,16.7,29.8,12.2,24.2,12.2z M24.2,32.2
			c-5.5,0-9.9-4.4-9.9-9.9c0-5.5,4.4-9.9,9.9-9.9s9.9,4.4,9.9,9.9C34.1,27.7,29.7,32.2,24.2,32.2z M24.2,13.4c-4.9,0-8.9,4-8.9,8.9
			c0,4.9,4,8.9,8.9,8.9s8.9-4,8.9-8.9C33.1,17.4,29.1,13.4,24.2,13.4z"/>
	</g>
	<g>
		<path d="M41.2,12.1c-1.8,0-3.2,1.4-3.2,3.2c0,1.8,1.4,3.2,3.2,3.2c1.8,0,3.2-1.4,3.2-3.2C44.4,13.6,42.9,12.1,41.2,12.1L41.2,12.1
			z M41.2,16.9c-0.9,0-1.6-0.7-1.6-1.6c0-0.9,0.7-1.6,1.6-1.6c0.9,0,1.6,0.7,1.6,1.6C42.8,16.2,42,16.9,41.2,16.9L41.2,16.9z
			 M41.2,16.9"/>
		<path d="M41.2,18.8c-1.9,0-3.5-1.5-3.5-3.5c0-1.9,1.5-3.4,3.5-3.4c1.9,0,3.4,1.5,3.4,3.4C44.6,17.2,43.1,18.8,41.2,18.8z
			 M41.2,12.4c-1.6,0-3,1.3-3,2.9c0,1.6,1.3,3,3,3c1.6,0,2.9-1.3,2.9-3C44.1,13.7,42.8,12.4,41.2,12.4z M41.2,17.2
			c-1,0-1.9-0.8-1.9-1.9c0-1,0.8-1.8,1.9-1.8c1,0,1.8,0.8,1.8,1.8C43,16.3,42.2,17.2,41.2,17.2z M41.2,14c-0.7,0-1.4,0.6-1.4,1.3
			c0,0.7,0.6,1.4,1.4,1.4c0.7,0,1.3-0.6,1.3-1.4C42.5,14.6,41.9,14,41.2,14z"/>
	</g>
</g>
</svg>
