<?xml version="1.0" encoding="utf-8"?>
<!-- Generator: Adobe Illustrator 19.1.0, SVG Export Plug-In . SVG Version: 6.00 Build 0)  -->
<svg version="1.1" id="Layer_1" xmlns="http://www.w3.org/2000/svg" xmlns:xlink="http://www.w3.org/1999/xlink" x="0px" y="0px"
	 viewBox="0 0 379.8 334.5" style="enable-background:new 0 0 379.8 334.5;" xml:space="preserve">
<style type="text/css">
	.st0{fill:#010101;}
</style>
<g>
	<g>
		<path class="st0" d="M301.8,66.8H293V48.2C293,21.6,270.3,0,242.5,0H136.2c-27.9,0-50.6,21.6-50.6,48.2v18.7h-8
			c-27.9,0-50.6,21.6-50.6,48.2v77.7c0,26.5,22.7,48.2,50.6,48.2h8v61.1c0,13.3,11.4,24.1,25.3,24.1h156.9
			c13.9,0,25.3-10.8,25.3-24.1v-61.1h8.9c27.9,0,50.6-21.6,50.6-48.2V115C352.5,88.4,329.7,66.8,301.8,66.8L301.8,66.8z M104.7,48.2
			c0-16.5,14.1-29.9,31.4-29.9h106.2c17.3,0,31.4,13.4,31.4,29.9v18.7h-169V48.2z M273.8,302.2c0,3.2-2.7,5.8-6.1,5.8H110.8
			c-3.4,0-6.1-2.6-6.1-5.8V201.4h169.1V302.2z M333.3,192.8c0,16.5-14.1,29.9-31.4,29.9h-8.8v-21.4h12.6c5.3,0,9.6-4.1,9.6-9.1
			c0-5.1-4.3-9.1-9.6-9.1H71.5c-5.3,0-9.6,4.1-9.6,9.1c0,5.1,4.3,9.1,9.6,9.1h14.1v21.4h-8c-17.3,0-31.4-13.4-31.4-29.9v-77.7
			c0-16.5,14.1-29.9,31.4-29.9h224.2c17.3,0,31.4,13.4,31.4,29.9V192.8z"/>
		<g>
			<path d="M301.8,64.3c-2.9,0-5.9,0-8.8,0c0.8,0.8,1.7,1.7,2.5,2.5c0-8.4,0.7-17.1-0.5-25.4c-1.9-13.8-9.9-26-21.2-34
				c-15.1-10.7-32.1-9.9-49.5-9.9c-21,0-42,0-63.1,0c-15.4,0-32.2-1.8-46.6,4.4C99.9,8.2,88.2,21.1,84.5,36.8
				c-2.3,9.6-1.3,20.1-1.3,30c0.8-0.8,1.7-1.7,2.5-2.5c-9,0-17.8,0.1-26.4,3.2C48.8,71.2,39.7,78,33.4,87.1
				c-8.6,12.3-8.8,25.7-8.8,39.8c0,16.2,0,32.4,0,48.6c0,12.8-1,25.7,4.6,37.7c5.2,11.1,14.6,20.1,25.7,25.2
				c9.9,4.5,20.1,4.9,30.8,4.9c-0.8-0.8-1.7-1.7-2.5-2.5c0,10.8,0,21.7,0,32.5c0,7,0,14.1,0,21.1c0,4-0.3,8.2,0.4,12.1
				c2.7,14.4,16,21.9,29.7,21.9c8.8,0,17.6,0,26.4,0c29.9,0,59.9,0,89.8,0c10.7,0,21.5,0,32.2,0c10.3,0,20.2-1.2,27.5-9.7
				c9-10.5,6.4-26.7,6.4-39.5c0-12.8,0-25.6,0-38.4c-0.8,0.8-1.7,1.7-2.5,2.5c7.9,0,15.7,0.2,23.4-1.9c10.4-2.8,20-8.9,27-17.2
				c6.6-8,10.7-17.7,11.4-28.1c0.3-3.7,0.1-7.5,0.1-11.2c0-15.2,0-30.4,0-45.6c0-10.8,1.1-22.3-0.8-33
				C349.7,81.3,326.4,64.6,301.8,64.3c-3.2,0-3.2,5,0,5c22.1,0.3,42.7,14.8,47.3,37c2,9.5,0.9,20.1,0.9,29.7c0,14.4,0,28.8,0,43.2
				c0,11.2,0.7,22.3-4.5,32.7c-5.4,10.9-15.1,19.3-26.5,23.4c-8.5,3.1-17.1,3-26,3c-1.4,0-2.5,1.1-2.5,2.5c0,20.3,0.7,40.7,0,61.1
				c-0.4,11.7-9.7,20.8-21.3,21.6c-1.7,0.1-3.5,0-5.3,0c-9,0-17.9,0-26.9,0c-28.7,0-57.4,0-86.1,0c-10.6,0-21.2,0-31.7,0
				c-9.5,0-18.8,0.2-25.8-7.7c-4.7-5.3-5.3-11.5-5.3-18.2c0-7.1,0-14.2,0-21.2c0-11.8,0-23.7,0-35.5c0-1.4-1.1-2.5-2.5-2.5
				c-8.6,0-16.9,0-25.1-3C50,231.6,40.8,224,35.3,214.2c-6.4-11.3-5.7-23.4-5.7-35.8c0-14.7,0-29.5,0-44.2c0-10.8-1.2-22.7,2.2-33.1
				c4-11.9,13.1-21.7,24.4-27.1c9.4-4.5,19.2-4.8,29.4-4.8c1.4,0,2.5-1.1,2.5-2.5c0-7.3-0.4-14.8,0.1-22.1
				c1.1-14.8,10.2-28.1,22.9-35.6c13.9-8.1,29.7-6.7,45.1-6.7c19.8,0,39.6,0,59.4,0c13.2,0,28.5-1.7,41.3,2.1
				c15.9,4.8,28.9,17.8,32.5,34.2c2,9,1,18.9,1,28c0,1.4,1.1,2.5,2.5,2.5c2.9,0,5.9,0,8.8,0C305,69.3,305,64.3,301.8,64.3z"/>
			<path d="M107.2,48.2c0.3-12.6,9.1-23.2,21.2-26.4c3.9-1,7.8-1,11.8-1c12,0,24.1,0,36.1,0c15.4,0,30.8,0,46.2,0
				c8.3,0,17.8-1.1,26,0.7c12.8,2.7,22.3,13.7,22.6,26.8c0.1,6.2,0,12.4,0,18.6c0.8-0.8,1.7-1.7,2.5-2.5c-49.3,0-98.6,0-148,0
				c-7,0-14,0-21,0c0.8,0.8,1.7,1.7,2.5,2.5C107.2,60.6,107.2,54.4,107.2,48.2c0-3.2-5-3.2-5,0c0,6.2,0,12.4,0,18.7
				c0,1.4,1.1,2.5,2.5,2.5c49.3,0,98.6,0,148,0c7,0,14,0,21,0c1.4,0,2.5-1.1,2.5-2.5c0-6.1,0.1-12.2,0-18.3
				c-0.2-10-4.5-19.2-12.4-25.4c-10.4-8.2-22.5-7.4-34.8-7.4c-29.7,0-59.4,0-89.1,0c-6.1,0-12.1,0.5-17.8,3
				c-11.8,5.2-19.5,16.6-19.8,29.4C102.1,51.4,107.1,51.4,107.2,48.2z"/>
			<path d="M271.3,302.2c-0.6,5.1-11.2,3.3-14,3.3c-9,0-18.1,0-27.1,0c-24.3,0-48.7,0-73,0c-10.1,0-20.1,0-30.2,0
				c-4.7,0-10.9,1-15.5,0c-6-1.3-4.3-7.9-4.3-12.3c0-10.5,0-21,0-31.5c0-20.1,0-40.2,0-60.3c-0.8,0.8-1.7,1.7-2.5,2.5
				c49.3,0,98.7,0,148,0c7,0,14,0,21,0c-0.8-0.8-1.7-1.7-2.5-2.5c0,29.4,0,58.8,0,88.3C271.3,293.8,271.3,298,271.3,302.2
				c0,3.2,5,3.2,5,0c0-29.4,0-58.8,0-88.3c0-4.2,0-8.4,0-12.5c0-1.4-1.1-2.5-2.5-2.5c-49.3,0-98.7,0-148,0c-7,0-14,0-21,0
				c-1.4,0-2.5,1.1-2.5,2.5c0,18.5,0,36.9,0,55.4c0,11.5,0,23,0,34.6c0,6-1.8,15.7,5.3,18.5c3.9,1.6,9.6,0.7,13.7,0.7
				c9.8,0,19.5,0,29.3,0c25.7,0,51.4,0,77.1,0c10.6,0,21.2,0,31.7,0c7,0,15.8,1.1,17-8.3C276.7,299,271.7,299,271.3,302.2z"/>
			<path d="M330.8,192.8c-0.3,10.9-6.8,20.4-16.7,24.9c-6.7,3-13.8,2.5-21,2.5c0.8,0.8,1.7,1.7,2.5,2.5c0-7.1,0-14.2,0-21.4
				c-0.8,0.8-1.7,1.7-2.5,2.5c5.3,0,11.9,1.1,17-0.8c7.8-2.9,10.2-13.2,4.1-19.1c-4.2-4.1-10.1-3.4-15.4-3.4c-20.9,0-41.7,0-62.6,0
				c-51.6,0-103.1,0-154.7,0c-5.4,0-12.6-1-17.2,2.2c-7.6,5.3-5.9,17,2.7,20.2c5.5,2,12.8,0.8,18.5,0.8c-0.8-0.8-1.7-1.7-2.5-2.5
				c0,7.1,0,14.2,0,21.4c0.8-0.8,1.7-1.7,2.5-2.5c-5,0-10.1,0.3-15-0.8c-7.8-1.9-14.7-6.9-18.6-13.9c-3.7-6.7-3.3-13.8-3.3-21.2
				c0-19.5,0-38.9,0-58.4c0-5.9-0.6-12.4,1-18.1c3.6-12.5,15.6-20,28.2-20.1c9.1-0.1,18.2,0,27.3,0c40.1,0,80.2,0,120.3,0
				c25.4,0,50.9-0.4,76.3,0c15.4,0.3,28.6,11.7,28.9,27.5c0.1,5.5,0,11.1,0,16.6c0,19,0,38,0,57.1
				C330.8,190.1,330.8,191.5,330.8,192.8c0,3.2,5,3.2,5,0c0-16.6,0-33.1,0-49.7c0-17.1,3.6-38.5-10.4-51.4
				c-10.5-9.6-23.2-9.1-36.3-9.1c-16.8,0-33.6,0-50.4,0c-42.8,0-85.6,0-128.4,0c-10.6,0-21.2-0.1-31.9,0c-10,0.1-19.8,3.8-26.5,11.4
				c-6.3,7.1-8.1,15.6-8.1,24.8c0,19.9,0,39.8,0,59.7c0,5.6-0.4,11.4,0.1,17c1.3,14.7,13.1,26.6,27.5,29.1c4.7,0.8,9.5,0.6,14.3,0.6
				c1.4,0,2.5-1.1,2.5-2.5c0-7.1,0-14.2,0-21.4c0-1.4-1.1-2.5-2.5-2.5c-4.6,0-9.4,0.4-14,0c-9.2-0.8-9.2-12.7,0.2-13.2
				c3.8-0.2,7.8,0,11.6,0c19.8,0,39.6,0,59.4,0c48.2,0,96.3,0,144.5,0c5.7,0,11.4-0.1,17.1,0c5.1,0.1,10.9,4.3,7.4,10
				c-3.2,5.2-13.6,3.3-18.7,3.3c-1.4,0-2.5,1.1-2.5,2.5c0,7.1,0,14.2,0,21.4c0,1.4,1.1,2.5,2.5,2.5c9,0,17.7,0.1,25.9-4.4
				c10.2-5.7,16.5-16.3,16.8-28C335.9,189.6,330.9,189.6,330.8,192.8z"/>
		</g>
	</g>
	<g>
		<path class="st0" d="M128,246.3h122c5.3,0,9.6-4.1,9.6-9.1s-4.3-9.1-9.6-9.1H128c-5.3,0-9.6,4.1-9.6,9.1S122.6,246.3,128,246.3
			L128,246.3z"/>
		<g>
			<path d="M128,248.8c40.1,0,80.3,0.5,120.5,0c3.9,0,7.6-0.8,10.5-3.8c5.5-5.8,3.2-15.2-4-18.4c-5.2-2.3-12.8-1.1-18.3-1.1
				c-26,0-52,0-78,0c-9.7,0-19.5-0.1-29.2,0c-4.8,0-9.3,1.4-11.9,5.7C112.5,239.5,119.3,248.2,128,248.8c3.2,0.2,3.2-4.8,0-5
				c-9.5-0.6-8.6-12.8,0.5-13.2c2-0.1,4.1,0,6.2,0c9.2,0,18.4,0,27.6,0c23.5,0,47.1,0,70.6,0c5.6,0,11.2-0.3,16.8,0
				c9.2,0.5,9.4,12.4,0.2,13.2c-1.4,0.1-3,0-4.4,0c-20.7,0-41.3,0-62,0c-18.5,0-37,0-55.5,0C124.7,243.8,124.7,248.8,128,248.8z"/>
		</g>
	</g>
	<g>
		<path class="st0" d="M250.7,265.3H128.7c-5.3,0-9.6,4.1-9.6,9.1s4.3,9.1,9.6,9.1h122c5.3,0,9.6-4.1,9.6-9.1
			S255.9,265.3,250.7,265.3L250.7,265.3z"/>
		<g>
			<path d="M250.7,262.8c-40.1,0-80.2-0.4-120.3,0c-3.6,0-7,0.5-9.8,3c-5.9,5.2-4.9,14.8,2,18.7c5.1,2.8,13.2,1.6,18.7,1.6
				c25.9,0,51.8,0,77.7,0c10,0,19.9,0.1,29.9,0c4.5,0,8.6-1,11.5-4.8C266.5,273.2,259.8,263.5,250.7,262.8c-3.2-0.2-3.2,4.8,0,5
				c7,0.5,9.9,9.8,2.7,12.7c-1.1,0.4-2.2,0.5-3.4,0.6c-2.2,0.1-4.3,0-6.5,0c-9.3,0-18.7,0-28,0c-23.5,0-46.9,0-70.4,0
				c-5.4,0-10.8,0.3-16.2,0c-9.2-0.5-9.3-12.7-0.1-13.2c1.6-0.1,3.2,0,4.7,0c20.7,0,41.4,0,62.2,0c18.4,0,36.7,0,55.1,0
				C253.9,267.8,253.9,262.8,250.7,262.8z"/>
		</g>
	</g>
	<g>
		<path class="st0" d="M301.6,102.6h-19.4c-5.3,0-9.6,4.1-9.6,9.1c0,5.1,4.3,9.1,9.6,9.1h19.4c5.3,0,9.6-4.1,9.6-9.1
			C311.2,106.7,306.9,102.6,301.6,102.6L301.6,102.6z"/>
		<g>
			<path d="M301.6,100.1c-6.1,0-12.2-0.1-18.2,0c-8.1,0.1-15.6,6.5-12.6,15.3c2.7,7.9,10.5,8,17.4,8c6.1,0,14.7,1.5,20.1-1.9
				C318.7,115,312.6,100.8,301.6,100.1c-3.2-0.2-3.2,4.8,0,5c7.1,0.4,10,9.8,2.7,12.7c-2.1,0.8-4.7,0.6-6.9,0.6
				c-5,0-10.2,0.4-15.2,0c-6.4-0.6-10.2-8.8-3.6-12.3c2.2-1.2,5-0.9,7.4-0.9c5.2,0,10.4,0,15.6,0
				C304.8,105.1,304.9,100.1,301.6,100.1z"/>
		</g>
	</g>
</g>
</svg>
