<?xml version="1.0" encoding="utf-8"?>
<!-- Generator: Adobe Illustrator 19.1.0, SVG Export Plug-In . SVG Version: 6.00 Build 0)  -->
<svg version="1.1" id="Layer_1" xmlns="http://www.w3.org/2000/svg" xmlns:xlink="http://www.w3.org/1999/xlink" x="0px" y="0px"
	 viewBox="0 0 379.8 334.5" style="enable-background:new 0 0 379.8 334.5;" xml:space="preserve">
<style type="text/css">
	.st0{fill:#010101;}
</style>
<g>
	<g>
		<path class="st0" d="M310.1,71.6h-9.3V53.1c0-26.3-24.1-47.8-53.7-47.8H134.1c-29.6,0-53.7,21.4-53.7,47.8v18.5h-8.5
			c-29.6,0-53.7,21.4-53.7,47.8v77.1c0,26.3,24.1,47.8,53.7,47.8h8.5v60.6c0,13.2,12.1,23.9,26.9,23.9H274
			c14.8,0,26.9-10.7,26.9-23.9v-60.6h9.4c29.6,0,53.7-21.4,53.7-47.8v-77.1C363.9,93.1,339.8,71.6,310.1,71.6L310.1,71.6z
			 M100.6,53.1c0-16.3,15-29.7,33.4-29.7h112.8c18.4,0,33.4,13.3,33.4,29.7v18.5H100.6V53.1z M280.3,305c0,3.2-2.9,5.8-6.5,5.8
			H107.1c-3.6,0-6.5-2.6-6.5-5.8v-100h179.7V305z M343.5,196.5c0,16.3-15,29.7-33.4,29.7h-9.3V205h13.4c5.7,0,10.2-4,10.2-9
			c0-5-4.5-9-10.2-9H65.3c-5.7,0-10.2,4-10.2,9c0,5,4.5,9,10.2,9h15v21.2h-8.5c-18.4,0-33.4-13.3-33.4-29.7v-77.1
			c0-16.3,15-29.7,33.4-29.7h238.3c18.4,0,33.4,13.3,33.4,29.7V196.5z"/>
		<g>
			<path d="M310.1,65.6c-3.1,0-6.2,0-9.3,0c2,2,4,4,6,6c0-9.2,0.8-18.8-0.9-27.8C303,28.7,292.6,15.6,279.5,8
				c-16.5-9.6-34.5-8.7-52.8-8.7c-21.7,0-43.5,0-65.2,0c-15.8,0-33.4-1.8-48.6,3.5C96.3,8.6,82.2,21.3,76.7,38.2
				c-3.5,10.6-2.3,22.4-2.3,33.4c2-2,4-4,6-6c-9.6,0-19.1,0.1-28.4,3.1c-11.3,3.7-21.6,10.4-29,19.9c-6.9,8.9-10.7,19.6-10.9,30.8
				c-0.1,3.8,0,7.5,0,11.3c0,16.5,0,32.9,0,49.4c0,13.7-0.8,27.1,5.9,39.7c6.3,11.8,17.2,20.7,29.4,25.7c10.6,4.4,21.6,4.7,32.9,4.7
				c-2-2-4-4-6-6c0,11.6,0,23.2,0,34.8c0,6.8,0,13.5,0,20.3c0,5.4,0,10.7,2.1,15.9c5.7,14.1,19.9,19.6,34.1,19.6
				c9.5,0,18.9,0,28.4,0c31.1,0,62.2,0,93.3,0c11.3,0,22.6,0,33.9,0c10.3,0,20.2-0.3,28.9-7c7.8-5.9,11.8-14.5,11.9-24.2
				c0-6.2,0-12.4,0-18.7c0-13.5,0-27.1,0-40.6c-2,2-4,4-6,6c8.3,0,16.5,0.1,24.6-1.8c11.4-2.7,22.3-8.6,30.3-17.2
				c7.7-8.2,12.7-18.5,14-29.6c0.5-4,0.3-8.1,0.3-12.2c0-15.4,0-30.8,0-46.2c0-11.2,1.2-23.5-1.2-34.5
				C362.9,82,336.2,65.9,310.1,65.6c-7.7-0.1-7.7,11.9,0,12c20.5,0.2,41.6,12.2,46.9,33.1c2.3,9.1,1.1,19.6,1.1,28.9
				c0,14.7,0,29.3,0,44c0,11.1,0.7,21.7-5.2,31.7c-5.7,9.7-15.2,16.8-25.9,20.2c-8.6,2.8-17.2,2.6-26.1,2.6c-3.2,0-6,2.7-6,6
				c0,10.6,0,21.2,0,31.8c0,7.1,0,14.2,0,21.3c0,3.6,0.4,7.5-0.4,11c-2.8,12-15,14.4-25.5,14.4c-9.7,0-19.4,0-29.1,0
				c-29.7,0-59.4,0-89.1,0c-11.2,0-22.5,0-33.7,0c-7.5,0-15.4,0.8-22.1-3.4c-6.4-4-8.6-10.1-8.6-17.3c0-6.7,0-13.3,0-20
				c0-12.6,0-25.1,0-37.7c0-3.2-2.7-6-6-6c-8.6,0-16.9,0-25.2-2.6c-9.8-3.2-18.8-9.5-24.5-18.1c-7.2-10.8-6.5-22.3-6.5-34.6
				c0-15,0-30,0-45c0-10.7-1.4-22.8,2.9-32.9c4.5-10.6,13.8-18.9,24.3-23.3c9.4-4,19.1-4,29.1-4c3.2,0,6-2.7,6-6
				c0-8-0.9-16.7,0.5-24.7c2.4-13.7,12.2-24.5,24.4-30.5c13.9-6.8,30.2-5.1,45.2-5.1c20.5,0,41,0,61.5,0c13.2,0,28.1-1.7,41.1,1.3
				c15.2,3.5,29.3,14,34,29.3c2.9,9.3,1.7,19.9,1.7,29.6c0,3.2,2.7,6,6,6c3.1,0,6.2,0,9.3,0C317.8,77.6,317.8,65.6,310.1,65.6z"/>
			<path d="M106.6,53.1c0.3-11.4,9-19.9,19.7-22.7c3.9-1,7.8-1,11.8-1c12.7,0,25.3,0,38,0c16,0,32,0,48,0c8.3,0,16.7-0.4,24.9,0.1
				c12,0.7,24.3,9.5,25.1,22.3c0.4,6.6,0,13.3,0,19.8c2-2,4-4,6-6c-20.3,0-40.6,0-60.8,0c-32.1,0-64.3,0-96.4,0
				c-7.4,0-14.9,0-22.3,0c2,2,4,4,6,6C106.6,65.4,106.6,59.3,106.6,53.1c0-7.7-12-7.7-12,0c0,6.2,0,12.3,0,18.5c0,3.2,2.7,6,6,6
				c20.3,0,40.6,0,60.8,0c32.1,0,64.3,0,96.4,0c7.4,0,14.9,0,22.3,0c3.2,0,6-2.7,6-6c0-6.2,0.1-12.4,0-18.5
				c-0.3-12.6-7.3-23.7-18.1-30c-11.5-6.7-24.3-5.6-37-5.6c-31,0-62,0-92.9,0c-7,0-13.8,0.5-20.4,3.2C104.3,26.2,95,38.4,94.6,53.1
				C94.4,60.8,106.4,60.8,106.6,53.1z"/>
			<path d="M274.3,305c0-0.3-9.7-0.2-10.8-0.2c-9,0-18.1,0-27.1,0c-25.2,0-50.5,0-75.7,0c-17.2,0-34.4,0.5-51.6,0
				c-0.7,0-2.6-0.1-2.5,0.2c-0.6-0.8,0-4.8,0-5.8c0-10.1,0-20.2,0-30.3c0-21.3,0-42.5,0-63.8c-2,2-4,4-6,6c20.3,0,40.6,0,60.9,0
				c32.2,0,64.3,0,96.5,0c7.4,0,14.9,0,22.3,0c-2-2-4-4-6-6c0,29.2,0,58.4,0,87.6C274.3,296.8,274.3,300.9,274.3,305
				c0,7.7,12,7.7,12,0c0-29.2,0-58.4,0-87.6c0-4.1,0-8.3,0-12.4c0-3.2-2.7-6-6-6c-20.3,0-40.6,0-60.9,0c-32.2,0-64.3,0-96.5,0
				c-7.4,0-14.9,0-22.3,0c-3.2,0-6,2.7-6,6c0,19.6,0,39.3,0,58.9c0,11.4,0,22.8,0,34.2c0,2.2-0.1,4.5,0,6.7
				c0.4,7,5.8,11.6,12.6,11.9c15.3,0.7,30.8,0,46.1,0c26.8,0,53.7,0,80.5,0c10.7,0,21.4,0,32.1,0c9,0,19,0,20.4-11.8
				C287.2,297.4,275.1,297.4,274.3,305z"/>
			<path d="M337.5,196.5c-0.2,10-7.2,18.2-16.3,21.7c-6.6,2.5-13.5,2-20.4,2c2,2,4,4,6,6c0-7.1,0-14.1,0-21.2c-2,2-4,4-6,6
				c5.6,0,12.2,0.9,17.7-0.5c11.3-2.9,15.9-16.9,7.1-25.2c-5.3-5-12.3-4.4-19-4.4c-22,0-43.9,0-65.9,0c-54.7,0-109.3,0-164,0
				c-5.8,0-13-0.9-18.5,1.5c-12.5,5.6-11.6,23.3,1.4,27.7c6.3,2.1,14.1,0.9,20.6,0.9c-2-2-4-4-6-6c0,7.1,0,14.1,0,21.2c2-2,4-4,6-6
				c-12.2,0-24.9-0.7-32.3-12.1c-4-6.3-3.5-13-3.5-20.1c0-20,0-40,0-60c0-7.1-0.5-13.8,3.5-20.1c5.4-8.4,15.2-12,24.8-12.1
				c10.1-0.1,20.1,0,30.2,0c41.7,0,83.3,0,125,0c27.4,0,54.7-0.4,82.1,0c12.2,0.2,25.4,7.5,27.3,20.6c0.8,5.4,0.2,11.2,0.2,16.7
				c0,19.7,0,39.4,0,59C337.5,193.5,337.5,195,337.5,196.5c0,7.7,12,7.7,12,0c0-17.3,0-34.5,0-51.8c0-8,0-16,0-24
				c-0.1-12.9-6.5-24.3-17.6-31c-11.5-7-24.4-6-37.2-6c-17.8,0-35.5,0-53.3,0c-44.5,0-89,0-133.5,0c-11.5,0-23,0-34.6,0
				c-22.1,0.1-40.9,14.8-40.9,37.8c0,19.9,0,39.9,0,59.8c0,6.3-0.5,12.8,0.3,19.1c2,16.5,16.3,28.8,32.4,31.2
				c5,0.8,10.1,0.6,15.2,0.6c3.2,0,6-2.7,6-6c0-7.1,0-14.1,0-21.2c0-3.2-2.7-6-6-6c-4.9,0-10,0.5-14.9,0c-5.5-0.5-5.1-5.7,0.3-6.1
				c4.1-0.3,8.4,0,12.5,0c21.3,0,42.5,0,63.8,0c51,0,101.9,0,152.9,0c6,0,12-0.1,18,0c2.6,0,7.3,1.1,4.9,4.6
				c-1.5,2.2-6.2,1.5-8.4,1.5c-2.9,0-5.7,0-8.6,0c-3.2,0-6,2.7-6,6c0,7.1,0,14.1,0,21.2c0,3.2,2.7,6,6,6c10,0,19.6,0,28.8-4.7
				c11.8-6,19.6-17.7,19.9-31C349.7,188.8,337.7,188.8,337.5,196.5z"/>
		</g>
	</g>
	<g>
		<path class="st0" d="M125.3,249.6h129.6c5.7,0,10.2-4,10.2-9c0-5-4.5-9-10.2-9H125.3c-5.7,0-10.2,4-10.2,9
			C115.1,245.6,119.6,249.6,125.3,249.6L125.3,249.6z"/>
		<g>
			<path d="M125.3,255.6c42.5,0,85.1,0,127.6,0c4.5,0,8.8-0.7,12.5-3.6c8.6-6.8,6.8-19.8-2.9-24.7c-6.1-3.1-15.1-1.8-21.7-1.8
				c-27.3,0-54.6,0-81.9,0c-10.5,0-20.9,0-31.4,0c-5.4,0-10.6,1.1-14.5,5.3c-4,4.3-5,11.1-2.3,16.3
				C113.7,252.6,119.2,255.2,125.3,255.6c7.7,0.5,7.7-11.5,0-12c-3.4-0.2-6.1-3.8-2.1-5.7c0.9-0.4,1.9-0.4,2.8-0.4
				c2.3-0.1,4.7,0,7,0c9.8,0,19.6,0,29.5,0c25,0,49.9,0,74.9,0c5.7,0,11.6-0.4,17.3,0c5.3,0.4,5.6,5.6,0.2,6.1c-1.7,0.1-3.4,0-5.1,0
				c-22,0-44.1,0-66.1,0c-19.4,0-38.9,0-58.3,0C117.6,243.6,117.6,255.6,125.3,255.6z"/>
		</g>
	</g>
	<g>
		<path class="st0" d="M255.8,268.5H126c-5.7,0-10.2,4-10.2,9c0,5,4.5,9,10.2,9h129.6c5.7,0,10.2-4,10.2-9
			C265.9,272.5,261.3,268.5,255.8,268.5L255.8,268.5z"/>
		<g>
			<path d="M255.8,262.5c-42.6,0-85.1,0-127.7,0c-4.5,0-8.8,0.7-12.5,3.6c-8.6,6.8-6.8,19.8,2.9,24.7c6.1,3.1,15.1,1.8,21.7,1.8
				c27.3,0,54.6,0,81.9,0c10.5,0,20.9,0,31.4,0c5.4,0,10.6-1.1,14.5-5.3c4-4.3,5-11.1,2.3-16.3C267.3,265.5,261.8,262.9,255.8,262.5
				c-7.7-0.5-7.7,11.5,0,12c3.4,0.2,5.9,3.9,2,5.7c-0.9,0.4-1.9,0.4-2.8,0.4c-2.3,0.1-4.7,0-7,0c-9.8,0-19.6,0-29.5,0
				c-25,0-49.9,0-74.9,0c-5.7,0-11.6,0.4-17.3,0c-5.3-0.4-5.6-5.6-0.2-6.1c1.7-0.1,3.4,0,5.1,0c22,0,44.1,0,66.1,0
				c19.5,0,38.9,0,58.4,0C263.5,274.5,263.5,262.5,255.8,262.5z"/>
		</g>
	</g>
	<g>
		<path class="st0" d="M309.9,107.1h-20.6c-5.7,0-10.2,4-10.2,9c0,5,4.5,9,10.2,9h20.6c5.7,0,10.2-4,10.2-9
			C320.1,111.2,315.5,107.1,309.9,107.1L309.9,107.1z"/>
		<g>
			<path d="M309.9,101.1c-6.4,0-12.8-0.1-19.2,0c-10.2,0.1-20.2,7.8-17,19.1c2.9,10.1,12.9,11,21.6,11c7.2,0,16.9,1.5,23.4-2.4
				c5.7-3.4,8.7-10.2,6.9-16.7C323.5,105.2,316.7,101.5,309.9,101.1c-7.7-0.5-7.7,11.5,0,12c4.2,0.2,5.9,4.9,1.1,6
				c-1.8,0.4-3.9,0.1-5.8,0.1c-5.3,0-10.8,0.5-16,0c-3.6-0.3-6.1-4.3-1.6-5.8c1.7-0.6,4-0.3,5.8-0.3c5.5,0,11,0,16.4,0
				C317.6,113.1,317.6,101.1,309.9,101.1z"/>
		</g>
	</g>
</g>
</svg>
