<?xml version="1.0" encoding="utf-8"?>
<!-- Generator: Adobe Illustrator 19.1.0, SVG Export Plug-In . SVG Version: 6.00 Build 0)  -->
<svg version="1.1" id="Layer_1" xmlns="http://www.w3.org/2000/svg" xmlns:xlink="http://www.w3.org/1999/xlink" x="0px" y="0px"
	 viewBox="0 0 1190.6 841.9" style="enable-background:new 0 0 1190.6 841.9;" xml:space="preserve">
<g>
	<path d="M720.8,308h-9.9v-22.1c0-31.4-25.6-57-57-57H534.1c-31.4,0-57,25.6-57,57V308h-9c-31.4,0-57,25.6-57,57v92
		c0,31.4,25.6,57,57,57h9v72.3c0,15.7,12.8,28.5,28.5,28.5h176.9c15.7,0,28.5-12.8,28.5-28.5v-72.3h10c31.4,0,57-25.6,57-57v-92
		C777.9,333.6,752.3,308,720.8,308L720.8,308z M498.6,285.9c0-19.5,15.9-35.4,35.4-35.4h119.7c19.5,0,35.4,15.9,35.4,35.4V308H498.6
		V285.9z M689.2,586.6c0,3.8-3.1,6.9-6.9,6.9H505.5c-3.8,0-6.9-3.1-6.9-6.9V467.3h190.6V586.6z M756.3,457.1
		c0,19.5-15.9,35.4-35.4,35.4h-9.9v-25.3h14.2c6,0,10.8-4.8,10.8-10.8s-4.8-10.8-10.8-10.8h-264c-6,0-10.8,4.8-10.8,10.8
		s4.8,10.8,10.8,10.8h15.9v25.3h-9c-19.5,0-35.4-15.9-35.4-35.4v-92c0-19.5,15.9-35.4,35.4-35.4h252.8c19.5,0,35.4,15.9,35.4,35.4
		V457.1z M756.3,457.1"/>
	<path d="M524.8,520.4h137.5c6,0,10.8-4.8,10.8-10.8s-4.8-10.8-10.8-10.8H524.8c-6,0-10.8,4.8-10.8,10.8S518.8,520.4,524.8,520.4
		L524.8,520.4z M524.8,520.4"/>
	<path d="M663.2,543H525.6c-6,0-10.8,4.8-10.8,10.8s4.8,10.8,10.8,10.8h137.5c6,0,10.8-4.8,10.8-10.8S669.1,543,663.2,543L663.2,543
		z M663.2,543"/>
	<path d="M720.6,350.4h-21.9c-6,0-10.8,4.8-10.8,10.8s4.8,10.8,10.8,10.8h21.9c6,0,10.8-4.8,10.8-10.8S726.6,350.4,720.6,350.4
		L720.6,350.4z M720.6,350.4"/>
</g>
</svg>
