<?xml version="1.0" encoding="utf-8"?>
<!-- Generator: Adobe Illustrator 19.1.0, SVG Export Plug-In . SVG Version: 6.00 Build 0)  -->
<svg version="1.1" id="Layer_1" xmlns="http://www.w3.org/2000/svg" xmlns:xlink="http://www.w3.org/1999/xlink" x="0px" y="0px"
	 viewBox="0 0 1190.6 841.9" style="enable-background:new 0 0 1190.6 841.9;" xml:space="preserve">
<path d="M580.1,415.9c-0.5-1.3-1.8-2.2-3.3-2.2c-2,0-3.6,1.6-3.6,3.6c0,2,1.6,3.6,3.6,3.6c0.6,0,1.2-0.2,1.7-0.4
	c-0.5,2.4-1.9,4-4.2,4c-1.3,0-1.5,2,0,2c4.1,0,6.5-3.9,6.5-7.5C580.7,417.5,580.5,416.5,580.1,415.9z"/>
<path d="M590.1,415.9c-0.5-1.3-1.8-2.2-3.3-2.2c-2,0-3.6,1.6-3.6,3.6c0,2,1.6,3.6,3.6,3.6c0.6,0,1.2-0.2,1.7-0.4
	c-0.5,2.4-1.9,4-4.2,4c-1.3,0-1.5,2,0,2c4.1,0,6.5-3.9,6.5-7.5C590.7,417.5,590.5,416.5,590.1,415.9z"/>
</svg>
