<?xml version="1.0" encoding="utf-8"?>
<!-- Generator: Adobe Illustrator 19.1.0, SVG Export Plug-In . SVG Version: 6.00 Build 0)  -->
<svg version="1.1" id="Layer_1" xmlns="http://www.w3.org/2000/svg" xmlns:xlink="http://www.w3.org/1999/xlink" x="0px" y="0px"
	 viewBox="0 0 267 267" style="enable-background:new 0 0 267 267;" xml:space="preserve">
<style type="text/css">
	.st0{stroke:#000000;stroke-width:4;stroke-miterlimit:10;}
</style>
<g>
	<path class="st0" d="M215,0.9H30.8C13.8,0.9,0,14.7,0,31.7v205.1c0,17,13.8,30.8,30.8,30.8h205.1c17,0,30.8-13.8,30.8-30.8V52.6
		L215,0.9z M62.1,16.3h99.5c0,0-5,0.9-5,6.5c0,4.1,0,40.6,0,45.7c0,5.3,3.9,6.1,3.9,6.1H67.2c-2.8,0-5.1-2.3-5.1-5.1V16.3z
		 M201.6,24.4v42.1c0,3.5-2.8,6.3-6.3,6.3h-23c-3.5,0-6.3-2.8-6.3-6.3V24.4c0-3.5,2.8-6.3,6.3-6.3h23
		C198.8,18.1,201.6,20.9,201.6,24.4L201.6,24.4z M58.4,257.4V150.5c0-5.7,4.6-10.3,10.3-10.3h129.8c5.7,0,10.3,4.6,10.3,10.3v106.8
		H58.4z M256.5,236.8c0,11.3-9.2,20.6-20.6,20.6H219V150.5c0-11.3-9.2-20.6-20.6-20.6H68.6c-11.3,0-20.6,9.2-20.6,20.6v106.8H30.8
		c-11.3,0-20.6-9.2-20.6-20.6V31.7c0-11.3,9.2-20.6,20.6-20.6h20.9v58.4c0,8.5,6.9,15.4,15.4,15.4H197c8.5,0,15.4-6.9,15.4-15.4
		V12.8l44.1,44.1C256.5,56.9,256.5,236.8,256.5,236.8L256.5,236.8z M75.8,224.1"/>
</g>
<g>
	<g>
		<path d="M215,0.9H30.8C13.8,0.9,0,14.7,0,31.7v205.1c0,17,13.8,30.8,30.8,30.8h205.1c17,0,30.8-13.8,30.8-30.8V52.6L215,0.9z
			 M62.1,16.3h99.5c0,0-5,0.9-5,6.5c0,4.1,0,40.6,0,45.7c0,5.3,3.9,6.1,3.9,6.1H67.2c-2.8,0-5.1-2.3-5.1-5.1V16.3z M201.6,24.4v42.1
			c0,3.5-2.8,6.3-6.3,6.3h-23c-3.5,0-6.3-2.8-6.3-6.3V24.4c0-3.5,2.8-6.3,6.3-6.3h23C198.8,18.1,201.6,20.9,201.6,24.4L201.6,24.4z
			 M58.4,257.4V150.5c0-5.7,4.6-10.3,10.3-10.3h129.8c5.7,0,10.3,4.6,10.3,10.3v106.8H58.4z M256.5,236.8c0,11.3-9.2,20.6-20.6,20.6
			H219V150.5c0-11.3-9.2-20.6-20.6-20.6H68.6c-11.3,0-20.6,9.2-20.6,20.6v106.8H30.8c-11.3,0-20.6-9.2-20.6-20.6V31.7
			c0-11.3,9.2-20.6,20.6-20.6h20.9v58.4c0,8.5,6.9,15.4,15.4,15.4H197c8.5,0,15.4-6.9,15.4-15.4V12.8l44.1,44.1
			C256.5,56.9,256.5,236.8,256.5,236.8L256.5,236.8z M75.8,224.1"/>
		<path d="M235.9,272.7H30.8C11.1,272.7-5,256.6-5,236.8V31.7C-5,12,11.1-4.1,30.8-4.1h186.3l54.7,54.7v186.3
			C271.8,256.6,255.7,272.7,235.9,272.7z M30.8,5.9C16.6,5.9,5,17.5,5,31.7v205.1c0,14.3,11.6,25.8,25.8,25.8h205.1
			c14.3,0,25.8-11.6,25.8-25.8V54.7L213,5.9h-0.4l48.9,48.9v182c0,14.1-11.5,25.6-25.6,25.6H214V150.5c0-8.6-7-15.6-15.6-15.6H68.6
			c-8.6,0-15.6,7-15.6,15.6v111.8H30.8c-14.1,0-25.6-11.5-25.6-25.6V31.7c0-14.1,11.5-25.6,25.6-25.6h25.9v63.4
			c0,5.7,4.7,10.4,10.4,10.4H197c5.7,0,10.4-4.7,10.4-10.4V5.9H30.8z M224,252.4h11.9c8.6,0,15.6-7,15.6-15.6V59l-34.1-34.1v44.6
			c0,11.3-9.2,20.4-20.4,20.4H67.2c-11.3,0-20.4-9.2-20.4-20.4V16.2H30.8c-8.6,0-15.6,7-15.6,15.6v205.1c0,8.6,7,15.6,15.6,15.6
			h12.2V150.5c0-14.1,11.5-25.6,25.6-25.6h129.8c14.1,0,25.6,11.5,25.6,25.6V252.4z M213.7,262.4H53.4V150.5
			c0-8.4,6.9-15.3,15.3-15.3h129.8c8.4,0,15.3,6.9,15.3,15.3V262.4z M63.4,252.4h140.4V150.5c0-2.9-2.4-5.3-5.3-5.3H68.6
			c-2.9,0-5.3,2.4-5.3,5.3V252.4z M160.5,79.7H67.2c-5.6,0-10.1-4.5-10.1-10.1V11.3h104.5l0.7,8c1.9-3.7,5.7-6.2,10.1-6.2h23
			c6.2,0,11.3,5.1,11.3,11.3v42.1c0,6.2-5.1,11.3-11.3,11.3h-23c-5.1,0-9.5-3.4-10.8-8.1c0,0,0,0,0,0l-1,4.9V79.7z M67.1,21.3v48.2
			c0,0.1,0.1,0.1,0.1,0.1h84.4c0-0.4,0-0.7,0-1.1V22.8c0-0.5,0-1,0.1-1.5H67.1z M172.3,23.1c-0.7,0-1.3,0.6-1.3,1.3v42.1
			c0,0.7,0.6,1.3,1.3,1.3h23c0.7,0,1.3-0.6,1.3-1.3V24.4c0-0.7-0.6-1.3-1.3-1.3H172.3z"/>
	</g>
</g>
</svg>
