<?xml version="1.0" encoding="utf-8"?>
<!-- Generator: Adobe Illustrator 19.1.0, SVG Export Plug-In . SVG Version: 6.00 Build 0)  -->
<svg version="1.1" id="Layer_1" xmlns="http://www.w3.org/2000/svg" xmlns:xlink="http://www.w3.org/1999/xlink" x="0px" y="0px"
	 viewBox="0 0 267 267" style="enable-background:new 0 0 267 267;" xml:space="preserve">
<style type="text/css">
	.st0{stroke:#1D1D1B;stroke-width:4;stroke-miterlimit:10;}
	.st1{fill:#1D1D1B;}
</style>
<g>
	<path class="st0" d="M214.1,2.6H34.6C18,2.6,4.5,16.3,4.5,33.1v202.4c0,16.8,13.5,30.4,30.1,30.4h199.9c16.6,0,30.1-13.7,30.1-30.4
		V53.7L214.1,2.6z M65,17.8h96.9c0,0-4.9,0.9-4.9,6.4c0,4.1,0,40,0,45.1c0,5.3,3.8,6.1,3.8,6.1H70c-2.8,0-5-2.3-5-5.1V17.8z
		 M201,25.8v41.6c0,3.4-2.7,6.2-6.1,6.2h-22.4c-3.4,0-6.1-2.8-6.1-6.2V25.8c0-3.4,2.8-6.2,6.1-6.2h22.4
		C198.2,19.6,201,22.4,201,25.8L201,25.8z M61.4,255.7V150.3c0-5.6,4.5-10.1,10-10.1h126.5c5.5,0,10,4.5,10,10.1v105.4H61.4z
		 M254.5,235.4c0,11.2-9,20.3-20,20.3h-16.5V150.3c0-11.2-9-20.3-20-20.3H71.4c-11.1,0-20,9.1-20,20.3v105.4H34.6
		c-11.1,0-20-9.1-20-20.3V33.1c0-11.2,9-20.3,20-20.3H55v57.6c0,8.4,6.7,15.2,15,15.2h126.5c8.3,0,15-6.8,15-15.2v-56l43,43.5
		C254.5,57.9,254.5,235.4,254.5,235.4L254.5,235.4z M78.4,222.9"/>
</g>
<g>
	<g>
		<path d="M216.6,1.9H37.1C20.5,1.9,7,15.5,7,32.3v202.4c0,16.8,13.5,30.4,30.1,30.4h199.9c16.6,0,30.1-13.7,30.1-30.4V52.9
			L216.6,1.9z M67.5,17.1h96.9c0,0-4.9,0.9-4.9,6.4c0,4.1,0,40,0,45.1c0,5.3,3.8,6.1,3.8,6.1H72.5c-2.8,0-5-2.3-5-5.1V17.1z
			 M203.5,25.1v41.6c0,3.4-2.7,6.2-6.1,6.2H175c-3.4,0-6.1-2.8-6.1-6.2V25.1c0-3.4,2.8-6.2,6.1-6.2h22.4
			C200.7,18.9,203.5,21.6,203.5,25.1L203.5,25.1z M63.9,255V149.5c0-5.6,4.5-10.1,10-10.1h126.5c5.5,0,10,4.5,10,10.1V255H63.9z
			 M257,234.7c0,11.2-9,20.3-20,20.3h-16.5V149.5c0-11.2-9-20.3-20-20.3H73.9c-11.1,0-20,9.1-20,20.3V255H37.1
			c-11.1,0-20-9.1-20-20.3V32.3c0-11.2,9-20.3,20-20.3h20.4v57.6c0,8.4,6.7,15.2,15,15.2H199c8.3,0,15-6.8,15-15.2v-56l43,43.5
			C257,57.1,257,234.7,257,234.7L257,234.7z M80.9,222.1"/>
		<path class="st1" d="M236.9,269.6H37.1C18,269.6,2.5,254,2.5,234.7V32.3C2.5,13,18-2.6,37.1-2.6h181.4l53.1,53.7v183.6
			C271.5,254,256,269.6,236.9,269.6z M37.1,6.4C23,6.4,11.5,18,11.5,32.3v202.4c0,14.3,11.5,25.9,25.6,25.9h199.9
			c14.1,0,25.6-11.6,25.6-25.9V54.8L214.7,6.4h-1.5l48.3,48.9v179.4c0,13.7-11,24.8-24.5,24.8h-21V149.5c0-8.7-7-15.8-15.5-15.8
			H73.9c-8.6,0-15.5,7.1-15.5,15.8v109.9H37.1c-13.5,0-24.5-11.1-24.5-24.8V32.3c0-13.7,11-24.8,24.5-24.8H62v62.1
			c0,5.9,4.7,10.7,10.5,10.7H199c1.7,0,3.3-0.4,4.7-1.1H72.5c-5.2,0-9.5-4.3-9.5-9.6v-57h101.4l0.8,8.2c1.6-3.8,5.4-6.5,9.8-6.5
			h22.4c5.9,0,10.6,4.8,10.6,10.7v41.6c0,5.5-4.1,10.1-9.5,10.7l6.2,1.3c2.9-1.9,4.8-5.2,4.8-9V6.4H37.1z M224.9,250.5h12
			c8.6,0,15.5-7.1,15.5-15.8V59l-34-34.4v45c0,10.9-8.8,19.7-19.5,19.7H72.5C61.7,89.3,53,80.5,53,69.6V16.5H37.1
			c-8.6,0-15.5,7.1-15.5,15.8v202.4c0,8.7,7,15.8,15.5,15.8h12.3V149.5c0-13.7,11-24.8,24.5-24.8h126.5c13.5,0,24.5,11.1,24.5,24.8
			V250.5z M164.8,21.7c-0.8,0.5-0.8,1.4-0.8,1.8v45.1c0,0.9,0.3,1.7,0.3,1.7l0.7,0.1c-0.4-1.2-0.7-2.4-0.7-3.7V25.1
			C164.3,23.9,164.5,22.8,164.8,21.7z M72,21.6v48c0,0.3,0.2,0.6,0.5,0.6h82.6c-0.1-0.5-0.1-1-0.1-1.6V23.5c0-0.7,0-1.3,0.1-1.9H72z
			 M175,23.4c-0.9,0-1.6,0.8-1.6,1.7v41.6c0,0.9,0.7,1.7,1.6,1.7h22.4c0.9,0,1.6-0.8,1.6-1.7V25.1c0-0.9-0.7-1.7-1.6-1.7H175z
			 M214.9,259.5H59.4V149.5c0-8.1,6.5-14.6,14.5-14.6h126.5c8,0,14.5,6.6,14.5,14.6V259.5z M68.4,250.5h137.6V149.5
			c0-3.1-2.5-5.6-5.5-5.6H73.9c-3,0-5.5,2.5-5.5,5.6V250.5z"/>
	</g>
</g>
<g>
	<path class="st0" d="M216.7,1.9H37.2C20.6,1.9,7.1,15.5,7.1,32.3v202.4c0,16.8,13.5,30.4,30.1,30.4h199.9
		c16.6,0,30.1-13.7,30.1-30.4V52.9L216.7,1.9z M67.6,17.1h96.9c0,0-4.9,0.9-4.9,6.4c0,4.1,0,40,0,45.1c0,5.3,3.8,6.1,3.8,6.1H72.7
		c-2.8,0-5-2.3-5-5.1V17.1z M203.6,25.1v41.6c0,3.4-2.7,6.2-6.1,6.2h-22.4c-3.4,0-6.1-2.8-6.1-6.2V25.1c0-3.4,2.8-6.2,6.1-6.2h22.4
		C200.9,18.9,203.6,21.6,203.6,25.1L203.6,25.1z M64,255V149.5c0-5.6,4.5-10.1,10-10.1h126.5c5.5,0,10,4.5,10,10.1V255H64z
		 M257.1,234.7c0,11.2-9,20.3-20,20.3h-16.5V149.5c0-11.2-9-20.3-20-20.3H74c-11.1,0-20,9.1-20,20.3V255H37.2
		c-11.1,0-20-9.1-20-20.3V32.3c0-11.2,9-20.3,20-20.3h20.4v57.6c0,8.4,6.7,15.2,15,15.2h126.5c8.3,0,15-6.8,15-15.2v-56l43,43.5
		C257.1,57.1,257.1,234.7,257.1,234.7L257.1,234.7z M81,222.1"/>
</g>
</svg>
