<?xml version="1.0" encoding="utf-8"?>
<!-- Generator: Adobe Illustrator 19.1.0, SVG Export Plug-In . SVG Version: 6.00 Build 0)  -->
<svg version="1.1" id="Layer_1" xmlns="http://www.w3.org/2000/svg" xmlns:xlink="http://www.w3.org/1999/xlink" x="0px" y="0px"
	 viewBox="0 0 1190.6 841.9" style="enable-background:new 0 0 1190.6 841.9;" xml:space="preserve">
<style type="text/css">
	.st0{fill-rule:evenodd;clip-rule:evenodd;}
</style>
<g>
	<path class="st0" d="M520.7,392.4c0-0.2,0-0.3,0-0.5c0.7-0.5,1.3-1.1,1.7-1.8c-0.6,0.3-1.3,0.5-2,0.5c0.7-0.4,1.3-1.1,1.5-2
		c-0.7,0.4-1.4,0.7-2.2,0.8c-0.6-0.7-1.5-1.2-2.5-1.2c-1.9,0-3.4,1.6-3.4,3.6c0,0.3,0,0.6,0.1,0.8c-2.8-0.2-5.4-1.7-7.1-3.9
		c-0.3,0.5-0.5,1.2-0.5,1.8c0,1.3,0.6,2.4,1.5,3.1c-0.6,0-1.1-0.2-1.6-0.5v0c0,1.8,1.2,3.3,2.8,3.6c-0.3,0.1-0.6,0.1-0.9,0.1
		c-0.2,0-0.4,0-0.6-0.1c0.4,1.5,1.7,2.5,3.2,2.6c-1.2,1-2.6,1.6-4.2,1.5c-0.3,0-0.5,0-0.8-0.1c1.5,1,3.3,1.6,5.2,1.6
		C517.2,402.7,520.7,397.2,520.7,392.4L520.7,392.4z M520.7,392.4"/>
	<path class="st0" d="M529.5,395.5c0-8.6-6.9-15.5-15.5-15.5c-8.6,0-15.5,6.9-15.5,15.5c0,8.6,6.9,15.5,15.5,15.5
		C522.6,411,529.5,404.1,529.5,395.5L529.5,395.5z M500,395.5c0-7.8,6.3-14.1,14.1-14.1s14.1,6.3,14.1,14.1
		c0,7.8-6.3,14.1-14.1,14.1S500,403.3,500,395.5L500,395.5z M500,395.5"/>
</g>
</svg>
