<?xml version="1.0" standalone="no"?>
<!DOCTYPE svg PUBLIC "-//W3C//DTD SVG 1.1//EN" "http://www.w3.org/Graphics/SVG/1.1/DTD/svg11.dtd" >
<svg xmlns="http://www.w3.org/2000/svg" xmlns:xlink="http://www.w3.org/1999/xlink" version="1.1">
<metadata></metadata>
<defs>
<font id="lucida_sansdemibold" horiz-adv-x="1308" >
<font-face units-per-em="2048" ascent="1638" descent="-410" />
<missing-glyph horiz-adv-x="654" />
<glyph horiz-adv-x="0" />
<glyph horiz-adv-x="682" />
<glyph unicode=" "  horiz-adv-x="654" />
<glyph unicode="&#x09;" horiz-adv-x="654" />
<glyph unicode="&#xa0;" horiz-adv-x="654" />
<glyph unicode="!" horiz-adv-x="642" d="M173 0v247h296v-247h-296zM173 1184v296h296v-296l-49 -765h-198z" />
<glyph unicode="&#x22;" horiz-adv-x="925" d="M99 1579h296l-62 -592h-185zM543 1579h296l-61 -592h-186z" />
<glyph unicode="#" d="M18 426l29 148h282l83 333h-298l29 148h306l107 425h152l-106 -425h262l106 425h153l-106 -425h273l-29 -148h-281l-84 -333h299l-30 -148h-306l-106 -426h-153l107 426h-263l-106 -426h-153l107 426h-274zM481 574h263l83 333h-262z" />
<glyph unicode="$" d="M181 78v218q223 -101 405 -111v475l-51 35q-184 124 -248 209.5t-64 207.5q0 149 97.5 248t265.5 119v162h161v-162q157 -8 318 -63v-201q-164 77 -318 91v-448l45 -30q189 -121 255.5 -207t66.5 -210q0 -162 -98.5 -271.5t-268.5 -136.5v-163h-161v164q-167 0 -405 74z M479 1134q0 -104 138 -192v356q-138 -46 -138 -164zM716 197q143 45 143 176q0 100 -143 202v-378z" />
<glyph unicode="%" horiz-adv-x="1604" d="M25 1110q0 173 94 271.5t258 98.5q163 0 257 -98.5t94 -270.5q0 -174 -94 -272.5t-261 -98.5q-161 0 -254.5 99.5t-93.5 270.5zM120 -37l1164 1554h200l-1163 -1554h-201zM247 1110q0 -222 128 -222q131 0 131 223q0 221 -129 221q-130 0 -130 -222zM876 370 q0 173 94 271.5t258 98.5t257.5 -98.5t93.5 -270.5q0 -175 -94 -273t-261 -98q-161 0 -254.5 99.5t-93.5 270.5zM1098 370q0 -222 128 -222q131 0 131 223q0 221 -129 221q-130 0 -130 -222z" />
<glyph unicode="&#x26;" horiz-adv-x="1525" d="M68 437q0 306 369 458q-106 186 -106 304q0 135 117.5 227t291.5 92q167 0 275 -88.5t108 -225.5q0 -213 -327 -365q127 -235 300 -444q101 146 101 407v23h249q0 -327 -236 -580q98 -127 207 -245h-348l-66 79q-175 -116 -385 -116q-239 0 -394.5 134t-155.5 340z M355 491q0 -141 91.5 -239t223.5 -98q116 0 215 70q-165 209 -311 457l-36 61q-183 -83 -183 -251zM612 1203q0 -87 91 -226q173 92 173 221q0 134 -132 134t-132 -129z" />
<glyph unicode="'" horiz-adv-x="506" d="M99 1579h321l-74 -617h-185z" />
<glyph unicode="(" horiz-adv-x="759" d="M123 642q0 299 144.5 555t392.5 394v-191q-266 -268 -266 -758q0 -491 266 -759v-191q-243 131 -390 391t-147 559z" />
<glyph unicode=")" horiz-adv-x="759" d="M99 -117q265 268 265 756q0 493 -265 761v191q243 -130 390 -390.5t147 -559.5q0 -298 -145 -554.5t-392 -394.5v191z" />
<glyph unicode="*" horiz-adv-x="955" d="M86 1118l67 205l256 -142q-33 -36 -33 -79q0 -7 1 -20zM169 863l214 201q28 -51 85 -62l-125 -266zM369 1480h216l-55 -288q-27 13 -53 13t-52 -13zM487 1002q56 11 85 62l214 -201l-175 -127zM545 1181l257 142l66 -205l-291 -36q2 13 2 20q0 43 -34 79z" />
<glyph unicode="+" horiz-adv-x="1629" d="M222 506v173h506v505h173v-505h505v-173h-505v-506h-173v506h-506z" />
<glyph unicode="," horiz-adv-x="506" d="M93 0v321h321v-249q0 -393 -321 -393v111q56 0 89.5 49t33.5 129v32h-123z" />
<glyph unicode="-" d="M197 543v185h913v-185h-913z" />
<glyph unicode="." horiz-adv-x="506" d="M93 0v321h321v-321h-321z" />
<glyph unicode="/" horiz-adv-x="1158" d="M222 -296l533 1776h180l-533 -1776h-180z" />
<glyph unicode="0" d="M80 740q0 349 158 563t416 214q256 0 414.5 -213.5t158.5 -559.5q0 -355 -158.5 -568t-421.5 -213q-252 0 -409.5 216t-157.5 561zM395 741q0 -593 255 -593q263 0 263 592t-259 592t-259 -591z" />
<glyph unicode="1" d="M266 0v173h296v1092l-296 -74v178l593 148v-1344h296v-173h-889z" />
<glyph unicode="2" d="M126 0v234l16 22q119 159 244 268l121 107q299 264 299 463q0 109 -70 170.5t-194 61.5q-163 0 -378 -110v217q226 84 437 84q236 0 378 -111.5t142 -298.5q0 -129 -69 -235t-243 -246l-100 -80q-209 -168 -248 -312h654v-234h-989z" />
<glyph unicode="3" d="M180 11v222q220 -85 363 -85q133 0 213.5 68t80.5 181q0 293 -429 293h-91v177l77 1q205 0 303.5 64.5t98.5 198.5q0 201 -248 201q-163 0 -348 -83v202q195 67 411 67q229 0 358.5 -94t129.5 -260q0 -262 -327 -370q374 -86 374 -400q0 -199 -150 -315t-408 -116 q-219 0 -408 48z" />
<glyph unicode="4" d="M74 395v222l679 863h271v-863h173v-222h-173v-395h-259v395h-691zM311 617h460v580z" />
<glyph unicode="5" d="M233 6v215q189 -73 315 -73q127 0 201.5 75.5t74.5 204.5q0 153 -118.5 235.5t-338.5 82.5q-54 0 -108 -9v743h850v-234h-634l-15 -319q320 0 499.5 -131t179.5 -366q0 -217 -157 -342t-430 -125q-116 0 -319 43z" />
<glyph unicode="6" d="M81 706q0 442 243 669q153 143 429 143q150 0 372 -54v-216q-202 85 -362 85q-178 0 -276 -144t-98 -404q139 168 356 168q198 0 328 -130.5t130 -329.5q0 -233 -150 -381.5t-386 -148.5q-276 0 -431 196.5t-155 546.5zM402 493q0 -155 73 -250t191 -95q110 0 175.5 80.5 t65.5 215.5q0 151 -66.5 239t-180.5 88q-109 0 -183.5 -80t-74.5 -198z" />
<glyph unicode="7" d="M222 1240v240h1012v-240q-291 -367 -456 -696.5t-165 -543.5h-328q21 167 82.5 293t276.5 440l348 507h-770z" />
<glyph unicode="8" d="M121 363q0 261 296 430q-214 141 -214 340q0 172 135 278.5t354 106.5q206 0 329.5 -91t123.5 -243q0 -196 -250 -371q316 -165 316 -415q0 -195 -154 -315t-404 -120q-239 0 -385.5 110t-146.5 290zM402 411q0 -116 80.5 -191t204.5 -75q109 0 182.5 59t73.5 147 q0 76 -49.5 130t-192.5 135l-138 78q-161 -134 -161 -283zM459 1169q0 -72 57 -126.5t225 -145.5q148 115 148 246q0 86 -61 137.5t-161 51.5q-93 0 -150.5 -45t-57.5 -118z" />
<glyph unicode="9" d="M109 989q0 231 150.5 379.5t384.5 148.5q274 0 429.5 -195t155.5 -538q0 -439 -247 -672q-159 -149 -441 -149q-137 0 -354 48v214q189 -77 353 -77q175 0 276.5 145.5t101.5 396.5q-141 -169 -348 -169q-195 0 -328 135t-133 333zM405 1035q0 -154 66.5 -243t180.5 -89 q108 0 182 81t74 199q0 157 -72.5 253t-190.5 96q-110 0 -175 -80t-65 -217z" />
<glyph unicode=":" horiz-adv-x="506" d="M105 0v296h296v-296h-296zM105 802v296h296v-296h-296z" />
<glyph unicode=";" horiz-adv-x="506" d="M105 0v296h296v-223q0 -182 -75 -281.5t-221 -112.5v111q111 32 111 179v31h-111zM105 802v296h296v-296h-296z" />
<glyph unicode="&#x3c;" horiz-adv-x="1629" d="M222 592l1184 592v-193l-796 -398v-2l796 -398v-193z" />
<glyph unicode="=" horiz-adv-x="1629" d="M222 309v172h1184v-172h-1184zM222 703v173h1184v-173h-1184z" />
<glyph unicode="&#x3e;" horiz-adv-x="1629" d="M222 0v193l796 398v2l-796 398v193l1184 -592z" />
<glyph unicode="?" horiz-adv-x="1018" d="M62 1231v226q199 60 389 60q237 0 374.5 -91t137.5 -248q0 -144 -165 -300l-67 -64q-94 -89 -124.5 -150.5t-30.5 -159.5v-85h-297v28q0 161 148 325l71 78q144 159 144 284q0 186 -234 186q-151 0 -346 -89zM279 0v247h297v-247h-297z" />
<glyph unicode="@" horiz-adv-x="1729" d="M60 578q0 337 244 617q131 151 314.5 236.5t375.5 85.5q281 0 469 -178.5t188 -446.5q0 -252 -153 -424t-377 -172q-163 0 -163 109q0 47 56 230h-21q-78 -149 -190 -244t-211 -95q-179 0 -179 231q0 237 161.5 441t349.5 204q24 0 65 -6q60 -8 131 -8h134l-111 -558 q-11 -52 -11 -97q0 -68 77 -68q119 0 216 138.5t97 308.5q0 215 -152.5 360.5t-376.5 145.5q-346 0 -586 -270q-218 -245 -218 -537q0 -214 146.5 -351.5t373.5 -137.5q155 0 309 72l43 -119q-174 -82 -349 -82q-285 0 -468.5 173.5t-183.5 441.5zM592 573q0 -123 71 -123 q53 0 157 111.5t191 262.5l38 186q-80 37 -142 37q-116 0 -188 -91q-127 -162 -127 -383z" />
<glyph unicode="A" horiz-adv-x="1508" d="M23 0l576 1480h308l576 -1480h-316l-154 395h-612l-154 -395h-224zM477 592h460l-230 590z" />
<glyph unicode="B" horiz-adv-x="1290" d="M185 0v1480h503q223 0 339.5 -84t116.5 -245q0 -267 -355 -378q415 -101 415 -407q0 -177 -121.5 -271.5t-348.5 -94.5h-549zM481 210h60q194 0 267.5 41.5t73.5 151.5q0 113 -98.5 188t-248.5 75h-54v-456zM481 864h67q130 0 206.5 64t76.5 174q0 102 -61.5 138.5 t-232.5 36.5h-56v-413z" />
<glyph unicode="C" horiz-adv-x="1459" d="M93 740q0 374 204.5 575.5t583.5 201.5q242 0 481 -57v-241q-271 95 -454 95q-234 0 -361 -148.5t-127 -421.5q0 -268 136.5 -418t379.5 -150q218 0 440 110v-227q-215 -96 -513 -96q-364 0 -567 205t-203 572z" />
<glyph unicode="D" horiz-adv-x="1624" d="M185 0v1480h637q344 0 527 -182.5t183 -526.5q0 -366 -194 -568.5t-543 -202.5h-610zM493 210h230q268 0 375 151q107 150 107 392q0 212 -96 353q-66 97 -159 134t-271 37h-186v-1067z" />
<glyph unicode="E" horiz-adv-x="1230" d="M185 0v1480h925v-203h-617v-413h506v-204h-506v-450h664v-210h-972z" />
<glyph unicode="F" horiz-adv-x="1176" d="M185 0v1480h931v-203h-623v-450h512v-204h-512v-623h-308z" />
<glyph unicode="G" horiz-adv-x="1527" d="M93 742q0 373 205.5 574t585.5 201q243 0 482 -57v-241q-277 95 -455 95q-235 0 -363 -150t-128 -425q0 -266 137 -417.5t378 -151.5q53 0 124 15v487h308v-637q-278 -72 -480 -72q-383 0 -588.5 201.5t-205.5 577.5z" />
<glyph unicode="H" horiz-adv-x="1598" d="M185 0v1480h308v-601h612v601h308v-1480h-308v675h-612v-675h-308z" />
<glyph unicode="I" horiz-adv-x="679" d="M185 0v1480h308v-1480h-308z" />
<glyph unicode="J" horiz-adv-x="857" d="M-70 -40q120 -47 247 -47q106 0 146 59t40 212v1296h309v-1263q0 -273 -111 -393t-363 -120q-126 0 -266 36z" />
<glyph unicode="K" horiz-adv-x="1454" d="M185 0v1480h296v-718l566 718h256l-513 -664l637 -816h-385l-561 728v-728h-296z" />
<glyph unicode="L" horiz-adv-x="1191" d="M185 0v1480h308v-1270h667v-210h-975z" />
<glyph unicode="M" horiz-adv-x="1859" d="M185 0v1480h408l356 -1041l367 1041h358v-1480h-284v1117l-361 -1018h-248l-354 1033v-1132h-242z" />
<glyph unicode="N" horiz-adv-x="1574" d="M185 0v1480h271l686 -1011v1011h247v-1480h-276l-681 1011v-1011h-247z" />
<glyph unicode="O" horiz-adv-x="1686" d="M93 740q0 357 203 567t548 210q343 0 546.5 -210t203.5 -564q0 -362 -203.5 -571t-556.5 -209q-337 0 -539 212t-202 565zM420 741q0 -259 115 -416.5t303 -157.5q198 0 313.5 155.5t115.5 421.5q0 258 -116 414t-307 156q-193 0 -308.5 -156t-115.5 -417z" />
<glyph unicode="P" horiz-adv-x="1256" d="M185 0v1480h516q270 0 385.5 -90.5t115.5 -302.5q0 -240 -154.5 -373.5t-432.5 -133.5h-128v-580h-302zM487 783h60q158 0 249.5 73.5t91.5 199.5q0 221 -281 221h-120v-494z" />
<glyph unicode="Q" horiz-adv-x="1687" d="M93 740q0 357 203 567t548 210t547.5 -210.5t202.5 -569.5q0 -504 -395 -703q291 -100 590 -132l-200 -198q-398 105 -648 264q-73 -5 -108 -5q-336 0 -538 212t-202 565zM420 741q0 -259 115 -416.5t304 -157.5q197 0 312.5 155t115.5 421q0 259 -115.5 415t-307.5 156 q-193 0 -308.5 -156t-115.5 -417z" />
<glyph unicode="R" horiz-adv-x="1413" d="M185 0v1480h554q220 0 335.5 -93.5t115.5 -273.5q0 -137 -76.5 -249.5t-210.5 -172.5l484 -691h-375l-367 605h-170v-605h-290zM475 808h71q335 0 335 271q0 198 -299 198h-107v-469z" />
<glyph unicode="S" horiz-adv-x="1170" d="M99 1112q0 183 134.5 294t355.5 111q177 0 399 -51v-237q-227 85 -359 85q-102 0 -163.5 -45.5t-61.5 -119.5q0 -61 43 -107t162 -113l106 -59q214 -120 295 -221t81 -246q0 -206 -153 -323t-422 -117q-178 0 -414 50v254q239 -100 409 -100q119 0 187.5 53t68.5 144 q0 72 -43 121.5t-163 117.5l-99 55q-199 112 -281 214.5t-82 239.5z" />
<glyph unicode="T" horiz-adv-x="1413" d="M22 1277v203h1369v-203h-530v-1277h-309v1277h-530z" />
<glyph unicode="U" horiz-adv-x="1508" d="M173 574v906h308v-907q0 -215 71 -310.5t229 -95.5q151 0 218.5 91t67.5 293v929h268v-909q0 -205 -39 -312.5t-142 -186.5q-141 -109 -379 -109q-255 0 -410 116q-107 80 -149.5 189.5t-42.5 305.5z" />
<glyph unicode="V" horiz-adv-x="1431" d="M25 1480h329l424 -1145l410 1145h222l-529 -1480h-309z" />
<glyph unicode="W" horiz-adv-x="1851" d="M21 1480h291l270 -1083l255 1083h257l242 -1077l284 1077h213l-388 -1480h-294l-228 1015l-239 -1015h-294z" />
<glyph unicode="X" horiz-adv-x="1366" d="M49 0l474 729l-453 751h359l301 -498l326 498h249l-454 -698l470 -782h-358l-321 529l-344 -529h-249z" />
<glyph unicode="Y" horiz-adv-x="1406" d="M40 1480h340l361 -625l377 625h244l-517 -858v-622h-308v620z" />
<glyph unicode="Z" horiz-adv-x="1320" d="M106 0v210l736 1067h-694v203h1052v-203l-736 -1067h736v-210h-1094z" />
<glyph unicode="[" horiz-adv-x="759" d="M197 -296v1875h463v-173h-216v-1529h216v-173h-463z" />
<glyph unicode="\" horiz-adv-x="1158" d="M222 1480h180l533 -1776h-180z" />
<glyph unicode="]" horiz-adv-x="759" d="M99 -123h216v1529h-216v173h463v-1875h-463v173z" />
<glyph unicode="^" horiz-adv-x="1357" d="M86 395l592 1184l592 -1184h-193l-398 796h-2l-398 -796h-193z" />
<glyph unicode="_" horiz-adv-x="1024" d="M86 0h851v-160h-851v160z" />
<glyph unicode="`" d="M355 1604h271l241 -321h-191z" />
<glyph unicode="a" horiz-adv-x="1204" d="M82 291q0 182 145.5 280.5t416.5 98.5h79v100q0 171 -195 171q-173 0 -350 -98v204q201 76 398 76q431 0 431 -343v-486q0 -129 83 -129q15 0 39 4l7 -166q-94 -28 -166 -28q-182 0 -234 143h-13q-148 -143 -317 -143q-144 0 -234 88t-90 228zM366 320q0 -61 41.5 -102.5 t102.5 -41.5q104 0 213 101v223h-70q-134 0 -210.5 -48t-76.5 -132z" />
<glyph unicode="b" horiz-adv-x="1357" d="M185 0v1579h296v-688q114 232 359 232q198 0 311.5 -145t113.5 -399q0 -275 -128 -439.5t-342 -164.5q-184 0 -314 136l-55 -111h-241zM481 287q108 -120 230 -120q109 0 174 105.5t65 281.5q0 337 -217 337q-131 0 -252 -169v-435z" />
<glyph unicode="c" horiz-adv-x="1090" d="M86 550q0 269 157 421t434 152q134 0 309 -43v-214q-182 59 -291 59q-133 0 -214 -102t-81 -271q0 -173 87.5 -277t233.5 -104q133 0 274 58v-205q-184 -49 -341 -49q-263 0 -415.5 154.5t-152.5 420.5z" />
<glyph unicode="d" horiz-adv-x="1357" d="M93 519q0 276 127.5 440t342.5 164q172 0 313 -136v592h297v-1579h-297v207q-114 -232 -359 -232q-198 0 -311 145t-113 399zM408 544q0 -337 216 -337q132 0 252 169v435q-107 120 -229 120q-109 0 -174 -105t-65 -282z" />
<glyph unicode="e" horiz-adv-x="1200" d="M86 557q0 255 145.5 410.5t384.5 155.5q241 0 352 -152t111 -481h-681q30 -314 345 -314q149 0 336 69v-208q-211 -62 -400 -62q-275 0 -434 156t-159 426zM394 657h394q0 281 -181 281q-184 0 -213 -281z" />
<glyph unicode="f" horiz-adv-x="849" d="M65 913v185h151v79q0 427 405 427q131 0 270 -38v-200q-126 53 -226 53q-84 0 -118.5 -52t-34.5 -179v-90h278v-185h-278v-913h-296v913h-151z" />
<glyph unicode="g" horiz-adv-x="1351" d="M93 543q0 263 129 421.5t343 158.5q168 0 311 -136l31 111h266v-838q0 -251 -30.5 -362t-118.5 -189q-148 -128 -417 -128q-191 0 -414 78l24 215q183 -84 349 -84q164 0 237 70t73 227v150q-108 -237 -357 -237q-196 0 -311 146.5t-115 396.5zM408 559q0 -322 207 -322 q143 0 261 172v405q-107 121 -224 121q-112 0 -178 -102t-66 -274z" />
<glyph unicode="h" horiz-adv-x="1345" d="M185 0v1579h296v-688q145 232 374 232q147 0 232 -93t85 -254v-776h-296v703q0 187 -124 187q-141 0 -271 -199v-691h-296z" />
<glyph unicode="i" horiz-adv-x="666" d="M185 0v1098h296v-1098h-296zM185 1283v247h296v-247h-296z" />
<glyph unicode="j" horiz-adv-x="682" d="M-179 -175q129 -59 221 -59q86 0 122.5 53.5t36.5 180.5v1098h296v-1078q0 -230 -102.5 -335t-327.5 -105q-100 0 -246 47v198zM201 1283v247h296v-247h-296z" />
<glyph unicode="k" horiz-adv-x="1296" d="M185 0v1579h296v-993h19l391 512h246l-361 -470l474 -628h-360l-390 549h-19v-549h-296z" />
<glyph unicode="l" horiz-adv-x="666" d="M185 0v1579h296v-1579h-296z" />
<glyph unicode="m" horiz-adv-x="1986" d="M185 0v1098h284v-207q130 232 370 232q124 0 204 -61t98 -171q154 232 372 232q301 0 301 -332v-791h-284v694q0 195 -130 195q-133 0 -259 -192v-697h-284v694q0 196 -131 196t-257 -193v-697h-284z" />
<glyph unicode="n" horiz-adv-x="1345" d="M185 0v1098h296v-207q145 232 374 232q147 0 232 -93t85 -254v-776h-296v703q0 187 -124 187q-141 0 -271 -199v-691h-296z" />
<glyph unicode="o" d="M86 549q0 266 152.5 420t414.5 154q263 0 415.5 -154t152.5 -418q0 -270 -153 -423t-422 -153q-257 0 -408.5 155.5t-151.5 418.5zM401 549q0 -179 67 -284t183 -105q120 0 187.5 103.5t67.5 287.5q0 179 -67.5 283t-185.5 104q-117 0 -184.5 -104t-67.5 -285z" />
<glyph unicode="p" horiz-adv-x="1357" d="M185 -395v1493h296v-207q114 232 359 232q198 0 311.5 -145t113.5 -399q0 -276 -128 -440t-343 -164q-173 0 -313 136v-506h-296zM481 287q108 -120 230 -120q109 0 174 105.5t65 281.5q0 337 -217 337q-131 0 -252 -169v-435z" />
<glyph unicode="q" horiz-adv-x="1357" d="M93 519q0 276 127.5 440t342.5 164q172 0 313 -136l37 111h260v-1493h-297v602q-114 -232 -359 -232q-198 0 -311 145t-113 399zM408 544q0 -337 216 -337q132 0 252 169v435q-107 120 -229 120q-109 0 -174 -105t-65 -282z" />
<glyph unicode="r" horiz-adv-x="931" d="M185 0v1098h296v-207q115 232 350 232q28 0 55 -6v-264q-63 23 -117 23q-177 0 -288 -179v-697h-296z" />
<glyph unicode="s" horiz-adv-x="1158" d="M156 35v217q220 -92 376 -92q182 0 182 124q0 80 -150 140l-100 40q-163 66 -233 142t-70 188q0 156 119 242.5t333 86.5q134 0 319 -39v-208q-178 62 -295 62q-184 0 -184 -114q0 -75 136 -127l86 -33q193 -73 268.5 -148t75.5 -193q0 -155 -128.5 -251.5t-334.5 -96.5 q-198 0 -400 60z" />
<glyph unicode="t" horiz-adv-x="830" d="M76 913v185h123v185l296 34v-219h235v-185h-235v-539q0 -202 165 -202q38 0 91 14v-180q-106 -31 -167 -31q-201 0 -293 86t-92 274v578h-123z" />
<glyph unicode="u" horiz-adv-x="1345" d="M173 322v776h296v-703q0 -187 125 -187q140 0 270 199v691h296v-1098h-296v207q-144 -232 -374 -232q-147 0 -232 93t-85 254z" />
<glyph unicode="v" horiz-adv-x="1215" d="M37 1098h312l307 -792l305 792h214l-423 -1098h-296z" />
<glyph unicode="w" horiz-adv-x="1767" d="M74 1098h275l216 -769l230 769h256l207 -773l233 773h206l-326 -1098h-284l-200 753l-224 -753h-284z" />
<glyph unicode="x" horiz-adv-x="1210" d="M68 0l377 551l-361 547h337l236 -348l226 348h240l-344 -539l369 -559h-337l-246 363l-252 -363h-245z" />
<glyph unicode="y" horiz-adv-x="1194" d="M31 1098h318l272 -734l323 734h225l-678 -1493h-302l249 395z" />
<glyph unicode="z" horiz-adv-x="1210" d="M123 0v197l614 716h-586v185h936v-185l-614 -716h626v-197h-976z" />
<glyph unicode="{" horiz-adv-x="759" d="M99 543v197h49q138 0 138 130q0 70 -19 143l-23 92q-22 89 -22 170q0 142 110 223t304 81v-173q-94 -6 -130 -33.5t-36 -94.5q0 -29 10 -90l15 -85q11 -69 11 -142q0 -205 -197 -319q197 -116 197 -320q0 -73 -11 -142l-15 -85q-10 -61 -10 -90q0 -67 36 -94.5t130 -33.5 v-173q-194 0 -304 81t-110 223q0 81 22 170l23 92q19 73 19 144q0 129 -138 129h-49z" />
<glyph unicode="|" horiz-adv-x="790" d="M308 -296v1875h173v-1875h-173z" />
<glyph unicode="}" horiz-adv-x="759" d="M99 -123q94 6 130 33.5t36 94.5q0 29 -10 90l-15 85q-11 69 -11 142q0 204 196 320q-196 114 -196 319q0 73 11 142l15 85q10 61 10 90q0 67 -36 94.5t-130 33.5v173q194 0 304 -81t110 -223q0 -81 -23 -170l-23 -92q-18 -73 -18 -144q0 -129 137 -129h50v-197h-50 q-137 0 -137 -130q0 -70 18 -143l23 -92q23 -89 23 -170q0 -142 -110.5 -223t-303.5 -81v173z" />
<glyph unicode="~" horiz-adv-x="1628" d="M222 444q0 321 273 321q102 0 240 -56l78 -32l92 -36l93 -36q110 -44 164 -44q146 0 146 170v9h98q0 -151 -72 -236t-200 -85q-103 0 -241 56l-77 32l-92 36l-94 37q-110 43 -164 43q-145 0 -145 -170v-9h-99z" />
<glyph unicode="&#xa1;" horiz-adv-x="642" d="M173 -86l49 765h198l49 -765v-296h-296v296zM173 851v247h296v-247h-296z" />
<glyph unicode="&#xa2;" d="M147 752q0 259 136.5 406t396.5 169v153h160v-155q130 -9 252 -40v-216q-138 58 -252 65v-760q128 8 252 55v-202q-126 -38 -252 -47v-180h-160v176q-250 14 -391.5 167t-141.5 409zM464 767q0 -298 216 -376v740q-216 -65 -216 -364z" />
<glyph unicode="&#xa3;" d="M225 0v234q110 26 153.5 88.5t43.5 193.5v181h-163v185h163v170q0 466 449 466q120 0 267 -24v-203q-120 41 -231 41q-189 0 -189 -214v-236h195v-185h-195q0 -197 -41 -284.5t-175 -178.5h651v-234h-928z" />
<glyph unicode="&#xa5;" d="M42 1480h332l332 -544l353 544h220l-475 -734h250v-148h-259v-148h259v-148h-259v-302h-297v302h-259v148h259v148h-259v148h250z" />
<glyph unicode="&#xa7;" d="M187 1153q0 165 136.5 265t360.5 100q182 0 388 -41v-205q-198 60 -363 60q-113 0 -180 -37t-67 -99q0 -84 159 -149l134 -55q206 -84 287.5 -169.5t81.5 -218.5q0 -148 -145 -306q161 -104 161 -276q0 -173 -142.5 -264.5t-411.5 -91.5q-164 0 -389 56v219 q253 -89 419 -89q250 0 250 140q0 52 -35 83.5t-148 80.5l-154 66q-182 79 -259 163.5t-77 206.5q0 155 150 304q-156 100 -156 257zM424 678q0 -117 209 -210l208 -93q58 79 58 146q0 65 -41.5 106t-160.5 94l-215 97q-58 -73 -58 -140z" />
<glyph unicode="&#xa8;" d="M333 1283v222h222v-222h-222zM752 1283v222h222v-222h-222z" />
<glyph unicode="&#xa9;" horiz-adv-x="1721" d="M83 740q0 322 228 549.5t549 227.5t549 -227.5t228 -547.5q0 -326 -228.5 -552.5t-557.5 -226.5q-315 0 -541.5 229.5t-226.5 547.5zM212 740q0 -264 189.5 -456t449.5 -192q317 0 504 233q153 190 153 416q0 224 -153 414q-187 233 -495 233t-495 -233 q-153 -190 -153 -415zM439 742q0 200 122 318t328 118q132 0 286 -37v-132q-145 58 -267 58q-126 0 -204.5 -90.5t-78.5 -236.5q0 -144 86 -232.5t226 -88.5q138 0 238 53v-133q-150 -43 -278 -43q-205 0 -331.5 123t-126.5 323z" />
<glyph unicode="&#xaa;" horiz-adv-x="987" d="M185 1022q0 230 344 230h48v47q0 94 -118 94q-112 0 -215 -60v141q120 44 248 44q294 0 294 -208v-290q0 -59 40 -59q11 0 24 3v-126q-64 -15 -111 -15q-119 0 -160 77h-13q-76 -77 -173 -77q-91 0 -149.5 56t-58.5 143zM394 1039q0 -77 75 -77q55 0 108 57v113h-46 q-137 0 -137 -93z" />
<glyph unicode="&#xab;" horiz-adv-x="1166" d="M86 549l416 444l139 -108l-262 -336l262 -339l-139 -105zM542 549l417 444l139 -105l-263 -339l263 -339l-139 -105z" />
<glyph unicode="&#xac;" horiz-adv-x="1629" d="M222 716v172h1184v-592h-172v420h-1012z" />
<glyph unicode="&#xae;" horiz-adv-x="1721" d="M83 740q0 322 228 549.5t549 227.5t549 -227.5t228 -547.5q0 -326 -228.5 -552.5t-557.5 -226.5q-315 0 -541.5 229.5t-226.5 547.5zM212 740q0 -264 189.5 -456t449.5 -192q317 0 504 233q153 190 153 416q0 224 -153 414q-187 233 -495 233t-495 -233 q-153 -190 -153 -415zM551 322v840h337q282 0 282 -208q0 -167 -179 -240l247 -392h-219l-189 343h-107v-343h-172zM723 780h45q217 0 217 154q0 112 -195 112h-67v-266z" />
<glyph unicode="&#xaf;" horiz-adv-x="1024" d="M86 1443v161h851v-161h-851z" />
<glyph unicode="&#xb0;" horiz-adv-x="641" d="M99 1296q0 93 64.5 157t157.5 64t157.5 -64t64.5 -157q0 -94 -65 -158.5t-160 -64.5q-90 0 -154.5 65.5t-64.5 157.5zM198 1295q0 -49 36.5 -86t85.5 -37q50 0 87 36.5t37 86.5t-37 87t-86 37q-50 0 -86.5 -37t-36.5 -87z" />
<glyph unicode="&#xb1;" horiz-adv-x="1629" d="M222 0v173h1184v-173h-1184zM222 654v173h506v357h173v-357h505v-173h-505v-358h-173v358h-506z" />
<glyph unicode="&#xb4;" d="M463 1283l241 321h271l-321 -321h-191z" />
<glyph unicode="&#xb5;" horiz-adv-x="1419" d="M185 -395v1493h296v-678q0 -204 137 -204q134 0 258 191v691h296v-770q0 -191 61 -328h-320q-22 79 -37 207q-124 -226 -279 -226q-68 0 -116 31v-407h-296z" />
<glyph unicode="&#xb6;" d="M148 1150q0 177 96 253.5t317 76.5h451v-1776h-161v1641h-148v-1641h-160v1036q-395 53 -395 410z" />
<glyph unicode="&#xb7;" d="M494 469v320h321v-320h-321z" />
<glyph unicode="&#xb8;" d="M476 -311q70 -15 117 -15q122 0 122 60q0 84 -195 84h-20l121 182h136l-76 -113q232 -25 232 -156q0 -69 -72 -116t-177 -47q-82 0 -188 29v92z" />
<glyph unicode="&#xba;" horiz-adv-x="987" d="M131 1170q0 162 97 254.5t266 92.5q168 0 265 -92.5t97 -253.5q0 -164 -97 -256t-270 -92q-165 0 -261.5 93.5t-96.5 253.5zM367 1170q0 -97 34.5 -158t90.5 -61q128 0 128 221q0 97 -35 157.5t-91 60.5q-57 0 -92 -60.5t-35 -159.5z" />
<glyph unicode="&#xbb;" horiz-adv-x="1166" d="M68 210l262 339l-262 339l139 105l416 -444l-416 -444zM524 213l263 336l-263 339l139 105l417 -444l-417 -444z" />
<glyph unicode="&#xbf;" horiz-adv-x="1018" d="M56 -80q0 144 164 300l68 64q93 89 124 150.5t31 159.5v85h296v-28q0 -162 -148 -325l-70 -78q-144 -159 -144 -284q0 -186 234 -186q151 0 346 89v-226q-200 -60 -390 -60q-237 0 -374 91t-137 248zM443 851v247h296v-247h-296z" />
<glyph unicode="&#xc0;" horiz-adv-x="1508" d="M23 0l576 1480h308l576 -1480h-316l-154 395h-612l-154 -395h-224zM432 1925h271l241 -321h-191zM477 592h460l-230 590z" />
<glyph unicode="&#xc1;" horiz-adv-x="1508" d="M23 0l576 1480h308l576 -1480h-316l-154 395h-612l-154 -395h-224zM477 592h460l-230 590zM562 1604l240 321h272l-321 -321h-191z" />
<glyph unicode="&#xc2;" horiz-adv-x="1508" d="M23 0l576 1480h308l576 -1480h-316l-154 395h-612l-154 -395h-224zM376 1604l240 321h274l240 -321h-178l-198 197h-2l-198 -197h-178zM477 592h460l-230 590z" />
<glyph unicode="&#xc3;" horiz-adv-x="1508" d="M23 0l576 1480h308l576 -1480h-316l-154 395h-612l-154 -395h-224zM401 1604q0 321 202 321q64 0 126 -43l38 -27l31 -21q64 -45 91 -45q67 0 67 136h148q0 -321 -201 -321q-65 0 -126 42l-39 27q-24 17 -31 22q-61 45 -90 45q-68 0 -68 -136h-148zM477 592h460l-230 590 z" />
<glyph unicode="&#xc4;" horiz-adv-x="1508" d="M23 0l576 1480h308l576 -1480h-316l-154 395h-612l-154 -395h-224zM432 1604v222h222v-222h-222zM477 592h460l-230 590zM851 1604v222h223v-222h-223z" />
<glyph unicode="&#xc5;" horiz-adv-x="1508" d="M23 0l576 1480h308l576 -1480h-316l-154 395h-612l-154 -395h-224zM477 592h460l-230 590zM526 1709q0 94 66.5 160t160.5 66t160.5 -66t66.5 -160q0 -96 -66.5 -161.5t-163.5 -65.5q-92 0 -158 66.5t-66 160.5zM625 1709q0 -53 37 -91t89 -38q55 0 92.5 37.5t37.5 91.5 q0 53 -37.5 90.5t-90.5 37.5t-90.5 -37.5t-37.5 -90.5z" />
<glyph unicode="&#xc6;" horiz-adv-x="1961" d="M21 0l839 1480h982v-203h-623v-413h512v-204h-512v-450h669v-210h-972v382h-437l-218 -382h-240zM586 574h330v580z" />
<glyph unicode="&#xc7;" horiz-adv-x="1459" d="M93 740q0 374 204.5 575.5t583.5 201.5q242 0 481 -57v-241q-271 95 -454 95q-234 0 -361 -148.5t-127 -421.5q0 -268 136.5 -418t379.5 -150q218 0 440 110v-227q-215 -96 -513 -96q-364 0 -567 205t-203 572zM614 -311v-92q106 -29 188 -29q105 0 177 47t72 116 q0 132 -232 156l76 113h-136l-121 -182h20q195 0 195 -84q0 -60 -122 -60q-47 0 -117 15z" />
<glyph unicode="&#xc8;" horiz-adv-x="1230" d="M185 0v1480h925v-203h-617v-413h506v-204h-506v-450h664v-210h-972zM339 1925h272l240 -321h-191z" />
<glyph unicode="&#xc9;" horiz-adv-x="1230" d="M185 0v1480h925v-203h-617v-413h506v-204h-506v-450h664v-210h-972zM493 1604l241 321h271l-320 -321h-192z" />
<glyph unicode="&#xca;" horiz-adv-x="1230" d="M185 0v1480h925v-203h-617v-413h506v-204h-506v-450h664v-210h-972zM284 1604l240 321h274l241 -321h-179l-198 197h-2l-197 -197h-179z" />
<glyph unicode="&#xcb;" horiz-adv-x="1230" d="M185 0v1480h925v-203h-617v-413h506v-204h-506v-450h664v-210h-972zM345 1604v222h223v-222h-223zM765 1604v222h222v-222h-222z" />
<glyph unicode="&#xcc;" horiz-adv-x="678" d="M18 1925h272l240 -321h-191zM185 0v1480h308v-1480h-308z" />
<glyph unicode="&#xcd;" horiz-adv-x="678" d="M148 1604l241 321h271l-321 -321h-191zM185 0v1480h308v-1480h-308z" />
<glyph unicode="&#xce;" horiz-adv-x="678" d="M-38 1604l240 321h274l241 -321h-179l-198 197h-2l-197 -197h-179zM185 0v1480h308v-1480h-308z" />
<glyph unicode="&#xcf;" horiz-adv-x="678" d="M18 1604v222h223v-222h-223zM185 0v1480h308v-1480h-308zM438 1604v222h222v-222h-222z" />
<glyph unicode="&#xd0;" horiz-adv-x="1624" d="M0 657v185h185v638h637q344 0 527 -182.5t183 -526.5q0 -366 -194 -568.5t-543 -202.5h-610v657h-185zM493 210h230q268 0 375 151q107 150 107 392q0 212 -96 353q-66 97 -159 134t-271 37h-186v-435h210v-185h-210v-447z" />
<glyph unicode="&#xd1;" horiz-adv-x="1574" d="M185 0v1480h271l686 -1011v1011h247v-1480h-276l-681 1011v-1011h-247zM456 1604q0 321 201 321q65 0 127 -43l38 -27l31 -21q64 -45 91 -45q67 0 67 136h148q0 -321 -201 -321q-65 0 -127 42l-38 27q-24 17 -31 22q-61 45 -91 45q-67 0 -67 -136h-148z" />
<glyph unicode="&#xd2;" horiz-adv-x="1686" d="M93 740q0 357 203 567t548 210q343 0 546.5 -210t203.5 -564q0 -362 -203.5 -571t-556.5 -209q-337 0 -539 212t-202 565zM420 741q0 -259 115 -416.5t303 -157.5q198 0 313.5 155.5t115.5 421.5q0 258 -116 414t-307 156q-193 0 -308.5 -156t-115.5 -417zM523 1925h271 l241 -321h-191z" />
<glyph unicode="&#xd3;" horiz-adv-x="1686" d="M93 740q0 357 203 567t548 210q343 0 546.5 -210t203.5 -564q0 -362 -203.5 -571t-556.5 -209q-337 0 -539 212t-202 565zM420 741q0 -259 115 -416.5t303 -157.5q198 0 313.5 155.5t115.5 421.5q0 258 -116 414t-307 156q-193 0 -308.5 -156t-115.5 -417zM652 1604 l241 321h271l-320 -321h-192z" />
<glyph unicode="&#xd4;" horiz-adv-x="1686" d="M93 740q0 357 203 567t548 210q343 0 546.5 -210t203.5 -564q0 -362 -203.5 -571t-556.5 -209q-337 0 -539 212t-202 565zM420 741q0 -259 115 -416.5t303 -157.5q198 0 313.5 155.5t115.5 421.5q0 258 -116 414t-307 156q-193 0 -308.5 -156t-115.5 -417zM466 1604 l241 321h273l241 -321h-179l-197 197h-3l-197 -197h-179z" />
<glyph unicode="&#xd5;" horiz-adv-x="1686" d="M93 740q0 357 203 567t548 210q343 0 546.5 -210t203.5 -564q0 -362 -203.5 -571t-556.5 -209q-337 0 -539 212t-202 565zM420 741q0 -259 115 -416.5t303 -157.5q198 0 313.5 155.5t115.5 421.5q0 258 -116 414t-307 156q-193 0 -308.5 -156t-115.5 -417zM492 1604 q0 321 201 321q65 0 127 -43l38 -27l31 -21q64 -45 91 -45q67 0 67 136h148q0 -321 -201 -321q-65 0 -126 42l-39 27q-24 17 -31 22q-61 45 -91 45q-67 0 -67 -136h-148z" />
<glyph unicode="&#xd6;" horiz-adv-x="1686" d="M93 740q0 357 203 567t548 210q343 0 546.5 -210t203.5 -564q0 -362 -203.5 -571t-556.5 -209q-337 0 -539 212t-202 565zM420 741q0 -259 115 -416.5t303 -157.5q198 0 313.5 155.5t115.5 421.5q0 258 -116 414t-307 156q-193 0 -308.5 -156t-115.5 -417zM523 1604v222 h222v-222h-222zM942 1604v222h222v-222h-222z" />
<glyph unicode="&#xd8;" horiz-adv-x="1686" d="M91 -37l188 224q-188 216 -188 555q0 355 203 565t547 210q258 0 451 -126l107 126h193l-189 -224q189 -213 189 -555q0 -355 -203.5 -565t-546.5 -210q-256 0 -451 127l-107 -127h-193zM418 741q0 -165 60 -317l646 766q-108 124 -283 124q-192 0 -307.5 -156.5 t-115.5 -416.5zM559 290q109 -123 283 -123q192 0 307.5 156.5t115.5 418.5q0 165 -60 315z" />
<glyph unicode="&#xd9;" horiz-adv-x="1508" d="M173 574v906h308v-907q0 -215 71 -310.5t229 -95.5q151 0 218.5 91t67.5 293v929h268v-909q0 -205 -39 -312.5t-142 -186.5q-141 -109 -379 -109q-255 0 -410 116q-107 80 -149.5 189.5t-42.5 305.5zM461 1925h272l240 -321h-191z" />
<glyph unicode="&#xda;" horiz-adv-x="1508" d="M173 574v906h308v-907q0 -215 71 -310.5t229 -95.5q151 0 218.5 91t67.5 293v929h268v-909q0 -205 -39 -312.5t-142 -186.5q-141 -109 -379 -109q-255 0 -410 116q-107 80 -149.5 189.5t-42.5 305.5zM591 1604l241 321h271l-321 -321h-191z" />
<glyph unicode="&#xdb;" horiz-adv-x="1508" d="M173 574v906h308v-907q0 -215 71 -310.5t229 -95.5q151 0 218.5 91t67.5 293v929h268v-909q0 -205 -39 -312.5t-142 -186.5q-141 -109 -379 -109q-255 0 -410 116q-107 80 -149.5 189.5t-42.5 305.5zM397 1604l241 321h273l241 -321h-179l-197 197h-3l-197 -197h-179z " />
<glyph unicode="&#xdc;" horiz-adv-x="1508" d="M173 574v906h308v-907q0 -215 71 -310.5t229 -95.5q151 0 218.5 91t67.5 293v929h268v-909q0 -205 -39 -312.5t-142 -186.5q-141 -109 -379 -109q-255 0 -410 116q-107 80 -149.5 189.5t-42.5 305.5zM454 1604v222h222v-222h-222zM873 1604v222h222v-222h-222z" />
<glyph unicode="&#xdd;" horiz-adv-x="1406" d="M40 1480h340l361 -625l377 625h244l-517 -858v-622h-308v620zM550 1604l241 321h271l-321 -321h-191z" />
<glyph unicode="&#xde;" horiz-adv-x="1256" d="M185 0v1480h296v-283h214q270 0 385.5 -91t115.5 -301q0 -241 -155 -375t-432 -134h-128v-296h-296zM481 500h74q154 0 240.5 74t86.5 206q0 213 -280 213h-121v-493z" />
<glyph unicode="&#xdf;" horiz-adv-x="1354" d="M185 0v1131q0 473 447 473q194 0 307.5 -70.5t113.5 -190.5q0 -97 -65 -188l-61 -86q-70 -98 -70 -141q0 -63 105 -150l137 -112q119 -98 166 -175.5t47 -176.5q0 -155 -103.5 -247t-277.5 -92q-141 0 -303 54v206q155 -75 267 -75q68 0 110 34.5t42 89.5q0 64 -122 165 l-148 123q-161 134 -161 256q0 74 38 144l47 81l49 87q43 74 43 144q0 138 -156 138t-156 -213v-1209h-296z" />
<glyph unicode="&#xe0;" horiz-adv-x="1204" d="M82 291q0 182 145.5 280.5t416.5 98.5h79v100q0 171 -195 171q-173 0 -350 -98v204q201 76 398 76q431 0 431 -343v-486q0 -129 83 -129q15 0 39 4l7 -166q-94 -28 -166 -28q-182 0 -234 143h-13q-148 -143 -317 -143q-144 0 -234 88t-90 228zM268 1604h271l241 -321 h-191zM366 320q0 -61 41.5 -102.5t102.5 -41.5q104 0 213 101v223h-70q-134 0 -210.5 -48t-76.5 -132z" />
<glyph unicode="&#xe1;" horiz-adv-x="1204" d="M82 291q0 182 145.5 280.5t416.5 98.5h79v100q0 171 -195 171q-173 0 -350 -98v204q201 76 398 76q431 0 431 -343v-486q0 -129 83 -129q15 0 39 4l7 -166q-94 -28 -166 -28q-182 0 -234 143h-13q-148 -143 -317 -143q-144 0 -234 88t-90 228zM366 320q0 -61 41.5 -102.5 t102.5 -41.5q104 0 213 101v223h-70q-134 0 -210.5 -48t-76.5 -132zM397 1283l241 321h271l-320 -321h-192z" />
<glyph unicode="&#xe2;" horiz-adv-x="1204" d="M82 291q0 182 145.5 280.5t416.5 98.5h79v100q0 171 -195 171q-173 0 -350 -98v204q201 76 398 76q431 0 431 -343v-486q0 -129 83 -129q15 0 39 4l7 -166q-94 -28 -166 -28q-182 0 -234 143h-13q-148 -143 -317 -143q-144 0 -234 88t-90 228zM217 1283l241 321h273 l241 -321h-179l-197 197h-2l-198 -197h-179zM366 320q0 -61 41.5 -102.5t102.5 -41.5q104 0 213 101v223h-70q-134 0 -210.5 -48t-76.5 -132z" />
<glyph unicode="&#xe3;" horiz-adv-x="1204" d="M82 291q0 182 145.5 280.5t416.5 98.5h79v100q0 171 -195 171q-173 0 -350 -98v204q201 76 398 76q431 0 431 -343v-486q0 -129 83 -129q15 0 39 4l7 -166q-94 -28 -166 -28q-182 0 -234 143h-13q-148 -143 -317 -143q-144 0 -234 88t-90 228zM217 1283q0 321 202 321 q64 0 126 -43l39 -26l31 -22q63 -45 90 -45q68 0 68 136h148q0 -321 -202 -321q-64 0 -126 43l-38 26q-25 17 -31 22q-62 45 -91 45q-67 0 -67 -136h-149zM366 320q0 -61 41.5 -102.5t102.5 -41.5q104 0 213 101v223h-70q-134 0 -210.5 -48t-76.5 -132z" />
<glyph unicode="&#xe4;" horiz-adv-x="1204" d="M82 291q0 182 145.5 280.5t416.5 98.5h79v100q0 171 -195 171q-173 0 -350 -98v204q201 76 398 76q431 0 431 -343v-486q0 -129 83 -129q15 0 39 4l7 -166q-94 -28 -166 -28q-182 0 -234 143h-13q-148 -143 -317 -143q-144 0 -234 88t-90 228zM268 1283v222h222v-222 h-222zM366 320q0 -61 41.5 -102.5t102.5 -41.5q104 0 213 101v223h-70q-134 0 -210.5 -48t-76.5 -132zM687 1283v222h222v-222h-222z" />
<glyph unicode="&#xe5;" horiz-adv-x="1204" d="M82 291q0 182 145.5 280.5t416.5 98.5h79v100q0 171 -195 171q-173 0 -350 -98v204q201 76 398 76q431 0 431 -343v-486q0 -129 83 -129q15 0 39 4l7 -166q-94 -28 -166 -28q-182 0 -234 143h-13q-148 -143 -317 -143q-144 0 -234 88t-90 228zM362 1510q0 94 66 160.5 t161 66.5q94 0 160.5 -66t66.5 -161q0 -96 -66.5 -161.5t-163.5 -65.5q-93 0 -158.5 66.5t-65.5 160.5zM366 320q0 -61 41.5 -102.5t102.5 -41.5q104 0 213 101v223h-70q-134 0 -210.5 -48t-76.5 -132zM460 1510q0 -53 37.5 -90.5t89.5 -37.5q55 0 92.5 37t37.5 92 q0 53 -37.5 90t-90.5 37q-54 0 -91.5 -37t-37.5 -91z" />
<glyph unicode="&#xe6;" horiz-adv-x="1808" d="M82 291q0 181 145.5 278t416.5 97h79v104q0 171 -195 171q-173 0 -350 -98v204q201 76 392 76q173 0 333 -121q151 121 331 121q233 0 343.5 -154t110.5 -479h-681q31 -314 346 -314q148 0 335 69v-208q-210 -62 -419 -62q-165 0 -270.5 49t-197.5 168 q-153 -217 -389 -217q-148 0 -239 87t-91 229zM366 320q0 -61 41.5 -102.5t102.5 -41.5q103 0 213 101v223h-70q-132 0 -209.5 -48.5t-77.5 -131.5zM1004 657h393q0 284 -180 284q-185 0 -213 -284z" />
<glyph unicode="&#xe7;" horiz-adv-x="1090" d="M86 550q0 269 157 421t434 152q134 0 309 -43v-214q-182 59 -291 59q-133 0 -214 -102t-81 -271q0 -173 87.5 -277t233.5 -104q133 0 274 58v-205q-184 -49 -341 -49q-263 0 -415.5 154.5t-152.5 420.5zM406 -311v-92q106 -29 189 -29q105 0 176.5 47t71.5 116 q0 132 -232 156l76 113h-136l-121 -182h20q195 0 195 -84q0 -60 -122 -60q-46 0 -117 15z" />
<glyph unicode="&#xe8;" horiz-adv-x="1200" d="M86 557q0 255 145.5 410.5t384.5 155.5q241 0 352 -152t111 -481h-681q30 -314 345 -314q149 0 336 69v-208q-211 -62 -400 -62q-275 0 -434 156t-159 426zM289 1604h272l240 -321h-191zM394 657h394q0 281 -181 281q-184 0 -213 -281z" />
<glyph unicode="&#xe9;" horiz-adv-x="1200" d="M86 557q0 255 145.5 410.5t384.5 155.5q241 0 352 -152t111 -481h-681q30 -314 345 -314q149 0 336 69v-208q-211 -62 -400 -62q-275 0 -434 156t-159 426zM394 657h394q0 281 -181 281q-184 0 -213 -281zM419 1283l241 321h271l-321 -321h-191z" />
<glyph unicode="&#xea;" horiz-adv-x="1200" d="M86 557q0 255 145.5 410.5t384.5 155.5q241 0 352 -152t111 -481h-681q30 -314 345 -314q149 0 336 69v-208q-211 -62 -400 -62q-275 0 -434 156t-159 426zM233 1283l240 321h274l241 -321h-179l-198 197h-2l-198 -197h-178zM394 657h394q0 281 -181 281 q-184 0 -213 -281z" />
<glyph unicode="&#xeb;" horiz-adv-x="1200" d="M86 557q0 255 145.5 410.5t384.5 155.5q241 0 352 -152t111 -481h-681q30 -314 345 -314q149 0 336 69v-208q-211 -62 -400 -62q-275 0 -434 156t-159 426zM289 1283v222h222v-222h-222zM394 657h394q0 281 -181 281q-184 0 -213 -281zM709 1283v222h222v-222h-222z" />
<glyph unicode="&#xec;" horiz-adv-x="666" d="M12 1604h272l240 -321h-191zM185 0v1098h296v-1098h-296z" />
<glyph unicode="&#xed;" horiz-adv-x="666" d="M142 1283l241 321h271l-321 -321h-191zM185 0v1098h296v-1098h-296z" />
<glyph unicode="&#xee;" horiz-adv-x="666" d="M-44 1283l240 321h274l241 -321h-179l-198 197h-2l-198 -197h-178zM185 0v1098h296v-1098h-296z" />
<glyph unicode="&#xef;" horiz-adv-x="666" d="M12 1283v222h222v-222h-222zM185 0v1098h296v-1098h-296zM432 1283v222h222v-222h-222z" />
<glyph unicode="&#xf0;" horiz-adv-x="1310" d="M93 1394v185q248 0 464 -75l220 188l111 -133l-161 -138q226 -124 356 -345.5t130 -482.5q0 -277 -155.5 -447.5t-406.5 -170.5q-249 0 -402 152.5t-153 398.5q0 237 147.5 392t373.5 155q59 0 140 -18q-67 128 -210 214l-250 -203l-109 130l190 158q-135 39 -252 39z M409 523q0 -165 67.5 -264t181.5 -99q119 0 188.5 104.5t69.5 281.5q0 343 -252 343q-117 0 -186 -99t-69 -267z" />
<glyph unicode="&#xf1;" horiz-adv-x="1345" d="M185 0v1098h296v-207q145 232 374 232q147 0 232 -93t85 -254v-776h-296v703q0 187 -124 187q-141 0 -271 -199v-691h-296zM321 1283q0 321 201 321q65 0 126 -43l39 -26l31 -22q64 -45 91 -45q67 0 67 136h148q0 -321 -201 -321q-65 0 -127 43l-38 26q-24 17 -31 22 q-62 45 -91 45q-67 0 -67 -136h-148z" />
<glyph unicode="&#xf2;" d="M86 549q0 266 152.5 420t414.5 154q263 0 415.5 -154t152.5 -418q0 -270 -153 -423t-422 -153q-257 0 -408.5 155.5t-151.5 418.5zM333 1604h271l241 -321h-192zM401 549q0 -179 67 -284t183 -105q120 0 187.5 103.5t67.5 287.5q0 179 -67.5 283t-185.5 104 q-117 0 -184.5 -104t-67.5 -285z" />
<glyph unicode="&#xf3;" d="M86 549q0 266 152.5 420t414.5 154q263 0 415.5 -154t152.5 -418q0 -270 -153 -423t-422 -153q-257 0 -408.5 155.5t-151.5 418.5zM401 549q0 -179 67 -284t183 -105q120 0 187.5 103.5t67.5 287.5q0 179 -67.5 283t-185.5 104q-117 0 -184.5 -104t-67.5 -285zM462 1283 l241 321h271l-321 -321h-191z" />
<glyph unicode="&#xf4;" d="M86 549q0 266 152.5 420t414.5 154q263 0 415.5 -154t152.5 -418q0 -270 -153 -423t-422 -153q-257 0 -408.5 155.5t-151.5 418.5zM276 1283l241 321h273l241 -321h-179l-197 197h-3l-197 -197h-179zM401 549q0 -179 67 -284t183 -105q120 0 187.5 103.5t67.5 287.5 q0 179 -67.5 283t-185.5 104q-117 0 -184.5 -104t-67.5 -285z" />
<glyph unicode="&#xf5;" d="M86 549q0 266 152.5 420t414.5 154q263 0 415.5 -154t152.5 -418q0 -270 -153 -423t-422 -153q-257 0 -408.5 155.5t-151.5 418.5zM302 1283q0 321 201 321q65 0 126 -43l39 -26l31 -22q64 -45 91 -45q67 0 67 136h148q0 -321 -201 -321q-65 0 -127 43l-38 26 q-24 17 -31 22q-61 45 -91 45q-67 0 -67 -136h-148zM401 549q0 -179 67 -284t183 -105q120 0 187.5 103.5t67.5 287.5q0 179 -67.5 283t-185.5 104q-117 0 -184.5 -104t-67.5 -285z" />
<glyph unicode="&#xf6;" d="M86 549q0 266 152.5 420t414.5 154q263 0 415.5 -154t152.5 -418q0 -270 -153 -423t-422 -153q-257 0 -408.5 155.5t-151.5 418.5zM333 1283v222h222v-222h-222zM401 549q0 -179 67 -284t183 -105q120 0 187.5 103.5t67.5 287.5q0 179 -67.5 283t-185.5 104 q-117 0 -184.5 -104t-67.5 -285zM752 1283v222h222v-222h-222z" />
<glyph unicode="&#xf7;" horiz-adv-x="1629" d="M222 506v173h1184v-173h-1184zM691 0v247h247v-247h-247zM691 938v246h247v-246h-247z" />
<glyph unicode="&#xf8;" d="M88 -25l139 167q-139 164 -139 408q0 265 152.5 419t414.5 154q182 0 324 -80l67 80h177l-139 -167q139 -162 139 -408q0 -265 -152.5 -419t-413.5 -154q-186 0 -325 81l-67 -81h-177zM403 550q0 -87 21 -173l400 480q-64 81 -169 81q-117 0 -184.5 -104t-67.5 -284z M486 240q66 -80 170 -80q117 0 184.5 104t67.5 284q0 86 -21 173z" />
<glyph unicode="&#xf9;" horiz-adv-x="1345" d="M173 322v776h296v-703q0 -187 125 -187q140 0 270 199v691h296v-1098h-296v207q-144 -232 -374 -232q-147 0 -232 93t-85 254zM346 1604h271l241 -321h-191z" />
<glyph unicode="&#xfa;" horiz-adv-x="1345" d="M173 322v776h296v-703q0 -187 125 -187q140 0 270 199v691h296v-1098h-296v207q-144 -232 -374 -232q-147 0 -232 93t-85 254zM475 1283l241 321h271l-320 -321h-192z" />
<glyph unicode="&#xfb;" horiz-adv-x="1345" d="M173 322v776h296v-703q0 -187 125 -187q140 0 270 199v691h296v-1098h-296v207q-144 -232 -374 -232q-147 0 -232 93t-85 254zM289 1283l241 321h273l241 -321h-179l-197 197h-3l-197 -197h-179z" />
<glyph unicode="&#xfc;" horiz-adv-x="1345" d="M173 322v776h296v-703q0 -187 125 -187q140 0 270 199v691h296v-1098h-296v207q-144 -232 -374 -232q-147 0 -232 93t-85 254zM346 1283v222h222v-222h-222zM765 1283v222h222v-222h-222z" />
<glyph unicode="&#xfd;" horiz-adv-x="1194" d="M31 1098h318l272 -734l323 734h225l-678 -1493h-302l249 395zM430 1283l240 321h272l-321 -321h-191z" />
<glyph unicode="&#xfe;" horiz-adv-x="1357" d="M185 -395v1974h296v-688q114 232 359 232q198 0 311.5 -145t113.5 -399q0 -276 -128 -440t-343 -164q-173 0 -313 136v-506h-296zM481 287q108 -120 230 -120q109 0 174 105.5t65 281.5q0 337 -217 337q-131 0 -252 -169v-435z" />
<glyph unicode="&#xff;" horiz-adv-x="1194" d="M31 1098h318l272 -734l323 734h225l-678 -1493h-302l249 395zM300 1283v222h222v-222h-222zM720 1283v222h222v-222h-222z" />
<glyph unicode="&#x100;" horiz-adv-x="1508" d="M23 0l576 1480h308l576 -1480h-316l-154 395h-612l-154 -395h-224zM383 1604v173h740v-173h-740zM477 592h460l-230 590z" />
<glyph unicode="&#x101;" horiz-adv-x="1204" d="M82 291q0 182 145.5 280.5t416.5 98.5h79v100q0 171 -195 171q-173 0 -350 -98v204q201 76 398 76q431 0 431 -343v-486q0 -129 83 -129q15 0 39 4l7 -166q-94 -28 -166 -28q-182 0 -234 143h-13q-148 -143 -317 -143q-144 0 -234 88t-90 228zM218 1283v173h740v-173 h-740zM366 320q0 -61 41.5 -102.5t102.5 -41.5q104 0 213 101v223h-70q-134 0 -210.5 -48t-76.5 -132z" />
<glyph unicode="&#x102;" horiz-adv-x="1508" d="M23 0l576 1480h308l576 -1480h-316l-154 395h-612l-154 -395h-224zM399 1925h148q42 -142 206 -142t205 142h148q-16 -147 -112 -234t-241 -87t-241 86.5t-113 234.5zM477 592h460l-230 590z" />
<glyph unicode="&#x103;" horiz-adv-x="1204" d="M82 291q0 182 145.5 280.5t416.5 98.5h79v100q0 171 -195 171q-173 0 -350 -98v204q201 76 398 76q431 0 431 -343v-486q0 -129 83 -129q15 0 39 4l7 -166q-94 -28 -166 -28q-182 0 -234 143h-13q-148 -143 -317 -143q-144 0 -234 88t-90 228zM235 1604h148 q42 -142 206 -142t205 142h148q-17 -147 -112.5 -234t-240.5 -87t-241 86.5t-113 234.5zM366 320q0 -61 41.5 -102.5t102.5 -41.5q104 0 213 101v223h-70q-134 0 -210.5 -48t-76.5 -132z" />
<glyph unicode="&#x104;" horiz-adv-x="1508" d="M23 0l576 1480h308l576 -1480h-316l-154 395h-612l-154 -395h-224zM477 592h460l-230 590zM942 -211q0 118 225 211h158q-186 -86 -186 -180q0 -95 162 -95q85 0 135 15v-81q-87 -29 -199 -29q-133 0 -214 44t-81 115z" />
<glyph unicode="&#x105;" horiz-adv-x="1204" d="M82 291q0 182 145.5 280.5t416.5 98.5h79v100q0 171 -195 171q-173 0 -350 -98v204q201 76 398 76q431 0 431 -343v-486q0 -129 83 -129q15 0 39 4l7 -166q-94 -28 -166 -28q-182 0 -234 143h-13q-148 -143 -317 -143q-144 0 -234 88t-90 228zM366 320q0 -61 41.5 -102.5 t102.5 -41.5q104 0 213 101v223h-70q-134 0 -210.5 -48t-76.5 -132zM609 -211q0 118 225 211h158q-186 -86 -186 -180q0 -95 162 -95q85 0 135 15v-81q-86 -29 -199 -29q-133 0 -214 44t-81 115z" />
<glyph unicode="&#x106;" horiz-adv-x="1459" d="M93 740q0 374 204.5 575.5t583.5 201.5q242 0 481 -57v-241q-271 95 -454 95q-234 0 -361 -148.5t-127 -421.5q0 -268 136.5 -418t379.5 -150q218 0 440 110v-227q-215 -96 -513 -96q-364 0 -567 205t-203 572zM692 1604l240 321h272l-321 -321h-191z" />
<glyph unicode="&#x107;" horiz-adv-x="1090" d="M86 550q0 269 157 421t434 152q134 0 309 -43v-214q-182 59 -291 59q-133 0 -214 -102t-81 -271q0 -173 87.5 -277t233.5 -104q133 0 274 58v-205q-184 -49 -341 -49q-263 0 -415.5 154.5t-152.5 420.5zM470 1283l241 321h271l-321 -321h-191z" />
<glyph unicode="&#x108;" horiz-adv-x="1459" d="M93 740q0 374 204.5 575.5t583.5 201.5q242 0 481 -57v-241q-271 95 -454 95q-234 0 -361 -148.5t-127 -421.5q0 -268 136.5 -418t379.5 -150q218 0 440 110v-227q-215 -96 -513 -96q-364 0 -567 205t-203 572zM505 1604l241 321h274l240 -321h-179l-197 197h-2 l-198 -197h-179z" />
<glyph unicode="&#x109;" horiz-adv-x="1090" d="M86 550q0 269 157 421t434 152q134 0 309 -43v-214q-182 59 -291 59q-133 0 -214 -102t-81 -271q0 -173 87.5 -277t233.5 -104q133 0 274 58v-205q-184 -49 -341 -49q-263 0 -415.5 154.5t-152.5 420.5zM260 1283l241 321h274l240 -321h-178l-198 197h-2l-198 -197h-179z " />
<glyph unicode="&#x10a;" horiz-adv-x="1459" d="M93 740q0 374 204.5 575.5t583.5 201.5q242 0 481 -57v-241q-271 95 -454 95q-234 0 -361 -148.5t-127 -421.5q0 -268 136.5 -418t379.5 -150q218 0 440 110v-227q-215 -96 -513 -96q-364 0 -567 205t-203 572zM735 1604v296h296v-296h-296z" />
<glyph unicode="&#x10b;" horiz-adv-x="1090" d="M86 550q0 269 157 421t434 152q134 0 309 -43v-214q-182 59 -291 59q-133 0 -214 -102t-81 -271q0 -173 87.5 -277t233.5 -104q133 0 274 58v-205q-184 -49 -341 -49q-263 0 -415.5 154.5t-152.5 420.5zM513 1283v296h296v-296h-296z" />
<glyph unicode="&#x10c;" horiz-adv-x="1459" d="M93 740q0 374 204.5 575.5t583.5 201.5q242 0 481 -57v-241q-271 95 -454 95q-234 0 -361 -148.5t-127 -421.5q0 -268 136.5 -418t379.5 -150q218 0 440 110v-227q-215 -96 -513 -96q-364 0 -567 205t-203 572zM505 1925h179l198 -198h2l197 198h179l-240 -321h-274z" />
<glyph unicode="&#x10d;" horiz-adv-x="1090" d="M86 550q0 269 157 421t434 152q134 0 309 -43v-214q-182 59 -291 59q-133 0 -214 -102t-81 -271q0 -173 87.5 -277t233.5 -104q133 0 274 58v-205q-184 -49 -341 -49q-263 0 -415.5 154.5t-152.5 420.5zM284 1604h179l197 -198h2l198 198h179l-241 -321h-273z" />
<glyph unicode="&#x10e;" horiz-adv-x="1624" d="M185 0v1480h637q344 0 527 -182.5t183 -526.5q0 -366 -194 -568.5t-543 -202.5h-610zM432 1925h179l197 -198h2l198 198h179l-241 -321h-273zM493 210h230q268 0 375 151q107 150 107 392q0 212 -96 353q-66 97 -159 134t-271 37h-186v-1067z" />
<glyph unicode="&#x10f;" horiz-adv-x="1653" d="M93 519q0 276 127.5 440t342.5 164q172 0 313 -136v592h297v-1579h-297v207q-114 -232 -359 -232q-198 0 -311 145t-113 399zM408 544q0 -337 216 -337q132 0 252 169v435q-107 120 -229 120q-109 0 -174 -105t-65 -282zM1345 987v102q114 0 114 165v29h-114v296h296 v-229q0 -363 -296 -363z" />
<glyph unicode="&#x110;" horiz-adv-x="1624" d="M0 669v173h185v638h637q344 0 527 -182.5t183 -526.5q0 -366 -194 -568.5t-543 -202.5h-610v669h-185zM493 210h230q268 0 375 151q107 150 107 392q0 212 -96 353q-66 97 -159 134t-271 37h-186v-435h210v-173h-210v-459z" />
<glyph unicode="&#x111;" horiz-adv-x="1357" d="M93 509q0 266 129 427.5t341 161.5q172 0 313 -136v272h-259v172h259v173h297v-173h185v-172h-185v-1234h-297v207q-114 -232 -359 -232q-195 0 -309.5 144t-114.5 390zM408 539q0 -332 216 -332q132 0 252 169v410q-107 121 -229 121q-107 0 -173 -102t-66 -266z" />
<glyph unicode="&#x112;" horiz-adv-x="1230" d="M185 0v1480h925v-203h-617v-413h506v-204h-506v-450h664v-210h-972zM271 1604v173h741v-173h-741z" />
<glyph unicode="&#x113;" horiz-adv-x="1200" d="M86 557q0 255 145.5 410.5t384.5 155.5q241 0 352 -152t111 -481h-681q30 -314 345 -314q149 0 336 69v-208q-211 -62 -400 -62q-275 0 -434 156t-159 426zM240 1283v173h740v-173h-740zM394 657h394q0 281 -181 281q-184 0 -213 -281z" />
<glyph unicode="&#x116;" horiz-adv-x="1230" d="M185 0v1480h925v-203h-617v-413h506v-204h-506v-450h664v-210h-972zM493 1604v296h297v-296h-297z" />
<glyph unicode="&#x117;" horiz-adv-x="1200" d="M86 557q0 255 145.5 410.5t384.5 155.5q241 0 352 -152t111 -481h-681q30 -314 345 -314q149 0 336 69v-208q-211 -62 -400 -62q-275 0 -434 156t-159 426zM394 657h394q0 281 -181 281q-184 0 -213 -281zM462 1283v296h296v-296h-296z" />
<glyph unicode="&#x118;" horiz-adv-x="1230" d="M185 0v1480h925v-203h-617v-413h506v-204h-506v-450h664v-210h-972zM638 -211q0 118 225 211h158q-186 -86 -186 -180q0 -95 162 -95q85 0 135 15v-81q-86 -29 -199 -29q-133 0 -214 44t-81 115z" />
<glyph unicode="&#x119;" horiz-adv-x="1200" d="M86 557q0 255 145.5 410.5t384.5 155.5q241 0 352 -152t111 -481h-681q30 -314 345 -314q149 0 336 69v-208q-211 -62 -400 -62q-275 0 -434 156t-159 426zM394 657h394q0 281 -181 281q-184 0 -213 -281zM407 -211q0 -71 81 -115t214 -44q113 0 200 29v81 q-51 -15 -135 -15q-162 0 -162 95q0 94 185 180h-158q-225 -93 -225 -211z" />
<glyph unicode="&#x11a;" horiz-adv-x="1230" d="M185 0v1480h925v-203h-617v-413h506v-204h-506v-450h664v-210h-972zM253 1925h179l197 -198h2l198 198h179l-241 -321h-274z" />
<glyph unicode="&#x11b;" horiz-adv-x="1200" d="M86 557q0 255 145.5 410.5t384.5 155.5q241 0 352 -152t111 -481h-681q30 -314 345 -314q149 0 336 69v-208q-211 -62 -400 -62q-275 0 -434 156t-159 426zM232 1604h178l199 -198h2l197 198h178l-240 -321h-274zM394 657h394q0 281 -181 281q-184 0 -213 -281z" />
<glyph unicode="&#x11c;" horiz-adv-x="1527" d="M93 742q0 373 205.5 574t585.5 201q243 0 482 -57v-241q-277 95 -455 95q-235 0 -363 -150t-128 -425q0 -266 137 -417.5t378 -151.5q53 0 124 15v487h308v-637q-278 -72 -480 -72q-383 0 -588.5 201.5t-205.5 577.5zM497 1604l240 321h274l241 -321h-179l-198 197h-2 l-197 -197h-179z" />
<glyph unicode="&#x11d;" horiz-adv-x="1351" d="M93 543q0 263 129 421.5t343 158.5q168 0 311 -136l31 111h266v-838q0 -251 -30.5 -362t-118.5 -189q-148 -128 -417 -128q-191 0 -414 78l24 215q183 -84 349 -84q164 0 237 70t73 227v150q-108 -237 -357 -237q-196 0 -311 146.5t-115 396.5zM307 1283l240 321h274 l241 -321h-179l-198 197h-2l-197 -197h-179zM408 559q0 -322 207 -322q143 0 261 172v405q-107 121 -224 121q-112 0 -178 -102t-66 -274z" />
<glyph unicode="&#x11e;" horiz-adv-x="1527" d="M93 742q0 373 205.5 574t585.5 201q243 0 482 -57v-241q-277 95 -455 95q-235 0 -363 -150t-128 -425q0 -266 137 -417.5t378 -151.5q53 0 124 15v487h308v-637q-278 -72 -480 -72q-383 0 -588.5 201.5t-205.5 577.5zM533 1925h148q42 -142 206 -142t205 142h148 q-17 -147 -112.5 -234t-240.5 -87t-241 86.5t-113 234.5z" />
<glyph unicode="&#x11f;" horiz-adv-x="1351" d="M93 543q0 263 129 421.5t343 158.5q168 0 311 -136l31 111h266v-838q0 -251 -30.5 -362t-118.5 -189q-148 -128 -417 -128q-191 0 -414 78l24 215q183 -84 349 -84q164 0 237 70t73 227v150q-108 -237 -357 -237q-196 0 -311 146.5t-115 396.5zM267 1604h148 q42 -142 206 -142t205 142h148q-16 -147 -112 -234t-241 -87t-241 86.5t-113 234.5zM408 559q0 -322 207 -322q143 0 261 172v405q-107 121 -224 121q-112 0 -178 -102t-66 -274z" />
<glyph unicode="&#x120;" horiz-adv-x="1527" d="M93 742q0 373 205.5 574t585.5 201q243 0 482 -57v-241q-277 95 -455 95q-235 0 -363 -150t-128 -425q0 -266 137 -417.5t378 -151.5q53 0 124 15v487h308v-637q-278 -72 -480 -72q-383 0 -588.5 201.5t-205.5 577.5zM739 1604v296h296v-296h-296z" />
<glyph unicode="&#x121;" horiz-adv-x="1351" d="M93 543q0 263 129 421.5t343 158.5q168 0 311 -136l31 111h266v-838q0 -251 -30.5 -362t-118.5 -189q-148 -128 -417 -128q-191 0 -414 78l24 215q183 -84 349 -84q164 0 237 70t73 227v150q-108 -237 -357 -237q-196 0 -311 146.5t-115 396.5zM408 559q0 -322 207 -322 q143 0 261 172v405q-107 121 -224 121q-112 0 -178 -102t-66 -274zM531 1283v296h296v-296h-296z" />
<glyph unicode="&#x122;" horiz-adv-x="1527" d="M93 742q0 373 205.5 574t585.5 201q243 0 482 -57v-241q-277 95 -455 95q-235 0 -363 -150t-128 -425q0 -266 137 -417.5t378 -151.5q53 0 124 15v487h308v-637q-278 -72 -480 -72q-383 0 -588.5 201.5t-205.5 577.5zM722 -197h296v-230q0 -363 -296 -363v103 q114 0 114 164v29h-114v297z" />
<glyph unicode="&#x123;" horiz-adv-x="1351" d="M93 543q0 263 129 421.5t343 158.5q168 0 311 -136l31 111h266v-838q0 -251 -30.5 -362t-118.5 -189q-148 -128 -417 -128q-191 0 -414 78l24 215q183 -84 349 -84q164 0 237 70t73 227v150q-108 -237 -357 -237q-196 0 -311 146.5t-115 396.5zM408 559q0 -322 207 -322 q143 0 261 172v405q-107 121 -224 121q-112 0 -178 -102t-66 -274zM498 1283v229q0 363 296 363v-102q-114 0 -114 -165v-29h114v-296h-296z" />
<glyph unicode="&#x124;" horiz-adv-x="1598" d="M185 0v1480h308v-601h612v601h308v-1480h-308v675h-612v-675h-308zM422 1604l240 321h274l241 -321h-179l-198 197h-2l-198 -197h-178z" />
<glyph unicode="&#x125;" horiz-adv-x="1345" d="M185 0v1579h296v-688q145 232 374 232q147 0 232 -93t85 -254v-776h-296v703q0 187 -124 187q-141 0 -271 -199v-691h-296zM333 1678l241 321h273l241 -321h-179l-198 197h-2l-197 -197h-179z" />
<glyph unicode="&#x126;" horiz-adv-x="1722" d="M49 1098v148h197v234h308v-234h612v234h308v-234h198v-148h-198v-1098h-308v675h-612v-675h-308v1098h-197zM554 879h612v219h-612v-219z" />
<glyph unicode="&#x127;" horiz-adv-x="1357" d="M25 1258v148h173v173h296v-173h321v-148h-321v-367q145 232 374 232q147 0 232 -93t85 -254v-776h-296v703q0 187 -124 187q-141 0 -271 -199v-691h-296v1258h-173z" />
<glyph unicode="&#x12a;" horiz-adv-x="678" d="M-31 1604v173h740v-173h-740zM185 0v1480h308v-1480h-308z" />
<glyph unicode="&#x12b;" horiz-adv-x="666" d="M-37 1283v173h740v-173h-740zM185 0v1098h296v-1098h-296z" />
<glyph unicode="&#x12e;" horiz-adv-x="678" d="M110 -211q0 118 225 211h158q-185 -86 -185 -180q0 -95 162 -95q84 0 135 15v-81q-87 -29 -200 -29q-132 0 -213.5 44t-81.5 115zM185 0v1480h308v-1480h-308z" />
<glyph unicode="&#x12f;" horiz-adv-x="666" d="M98 -211q0 118 225 211h158q-185 -86 -185 -180q0 -95 162 -95q84 0 134 15v-81q-86 -29 -199 -29q-133 0 -214 44t-81 115zM185 0v1098h296v-1098h-296zM185 1283v247h296v-247h-296z" />
<glyph unicode="&#x130;" horiz-adv-x="678" d="M185 0v1480h308v-1480h-308zM185 1604v296h296v-296h-296z" />
<glyph unicode="&#x131;" horiz-adv-x="666" d="M185 0v1098h296v-1098h-296z" />
<glyph unicode="&#x134;" horiz-adv-x="857" d="M-70 -40q120 -47 247 -47q106 0 146 59t40 212v1296h309v-1263q0 -273 -111 -393t-363 -120q-126 0 -266 36zM140 1604l241 321h274l240 -321h-179l-197 197h-2l-198 -197h-179z" />
<glyph unicode="&#x135;" horiz-adv-x="682" d="M-179 -175q129 -59 221 -59q86 0 122.5 53.5t36.5 180.5v1098h296v-1078q0 -230 -102.5 -335t-327.5 -105q-100 0 -246 47v198zM-29 1283l241 321h274l240 -321h-179l-197 197h-2l-198 -197h-179z" />
<glyph unicode="&#x136;" horiz-adv-x="1454" d="M185 0v1480h296v-718l566 718h256l-513 -664l637 -816h-385l-561 728v-728h-296zM592 -197h296v-230q0 -363 -296 -363v103q114 0 114 164v29h-114v297z" />
<glyph unicode="&#x137;" horiz-adv-x="1296" d="M185 0v1579h296v-993h19l391 512h246l-361 -470l474 -628h-360l-390 549h-19v-549h-296zM531 -197h296v-230q0 -363 -296 -363v103q114 0 114 164v29h-114v297z" />
<glyph unicode="&#x139;" horiz-adv-x="1190" d="M185 0v1480h308v-1270h667v-210h-975zM302 1604l241 321h271l-321 -321h-191z" />
<glyph unicode="&#x13a;" horiz-adv-x="666" d="M142 1678l241 321h271l-321 -321h-191zM185 0v1579h296v-1579h-296z" />
<glyph unicode="&#x13b;" horiz-adv-x="1190" d="M185 0v1480h308v-1270h667v-210h-975zM481 -197h296v-230q0 -363 -296 -363v103q114 0 114 164v29h-114v297z" />
<glyph unicode="&#x13c;" horiz-adv-x="666" d="M185 0v1579h296v-1579h-296zM185 -197h296v-230q0 -363 -296 -363v103q114 0 114 164v29h-114v297z" />
<glyph unicode="&#x13d;" horiz-adv-x="1190" d="M185 0v1480h308v-1270h667v-210h-975zM790 888v103q114 0 114 164v29h-114v296h296v-229q0 -363 -296 -363z" />
<glyph unicode="&#x13e;" horiz-adv-x="962" d="M185 0v1579h296v-1579h-296zM654 987v102q114 0 114 165v29h-114v296h296v-229q0 -363 -296 -363z" />
<glyph unicode="&#x13f;" horiz-adv-x="1190" d="M185 0v1480h308v-1270h667v-210h-975zM786 697v296h297v-296h-297z" />
<glyph unicode="&#x140;" horiz-adv-x="962" d="M185 0v1579h296v-1579h-296zM666 672v297h296v-297h-296z" />
<glyph unicode="&#x141;" horiz-adv-x="1203" d="M0 494v193l197 103v690h308v-524l247 133v-197l-247 -132v-550h667v-210h-975v596z" />
<glyph unicode="&#x142;" horiz-adv-x="728" d="M12 520v198l210 113v748h296v-589l210 110v-194l-210 -112v-794h-296v632z" />
<glyph unicode="&#x143;" horiz-adv-x="1574" d="M185 0v1480h271l686 -1011v1011h247v-1480h-276l-681 1011v-1011h-247zM678 1604l240 321h272l-321 -321h-191z" />
<glyph unicode="&#x144;" horiz-adv-x="1345" d="M185 0v1098h296v-207q145 232 374 232q147 0 232 -93t85 -254v-776h-296v703q0 187 -124 187q-141 0 -271 -199v-691h-296zM555 1283l241 321h271l-321 -321h-191z" />
<glyph unicode="&#x145;" horiz-adv-x="1574" d="M185 0v1480h271l686 -1011v1011h247v-1480h-276l-681 1011v-1011h-247zM604 -197h297v-230q0 -363 -297 -363v103q114 0 114 164v29h-114v297z" />
<glyph unicode="&#x146;" horiz-adv-x="1345" d="M185 0v1098h296v-207q145 232 374 232q147 0 232 -93t85 -254v-776h-296v703q0 187 -124 187q-141 0 -271 -199v-691h-296zM530 -197h297v-230q0 -363 -297 -363v103q114 0 114 164v29h-114v297z" />
<glyph unicode="&#x147;" horiz-adv-x="1574" d="M185 0v1480h271l686 -1011v1011h247v-1480h-276l-681 1011v-1011h-247zM409 1925h179l198 -198h2l197 198h179l-240 -321h-274z" />
<glyph unicode="&#x148;" horiz-adv-x="1345" d="M185 0v1098h296v-207q145 232 374 232q147 0 232 -93t85 -254v-776h-296v703q0 187 -124 187q-141 0 -271 -199v-691h-296zM301 1604h179l197 -198h3l197 198h179l-241 -321h-273z" />
<glyph unicode="&#x14c;" horiz-adv-x="1686" d="M93 740q0 357 203 567t548 210q343 0 546.5 -210t203.5 -564q0 -362 -203.5 -571t-556.5 -209q-337 0 -539 212t-202 565zM420 741q0 -259 115 -416.5t303 -157.5q198 0 313.5 155.5t115.5 421.5q0 258 -116 414t-307 156q-193 0 -308.5 -156t-115.5 -417zM473 1604v173 h741v-173h-741z" />
<glyph unicode="&#x14d;" d="M86 549q0 266 152.5 420t414.5 154q263 0 415.5 -154t152.5 -418q0 -270 -153 -423t-422 -153q-257 0 -408.5 155.5t-151.5 418.5zM283 1283v173h741v-173h-741zM401 549q0 -179 67 -284t183 -105q120 0 187.5 103.5t67.5 287.5q0 179 -67.5 283t-185.5 104 q-117 0 -184.5 -104t-67.5 -285z" />
<glyph unicode="&#x150;" horiz-adv-x="1686" d="M93 740q0 357 203 567t548 210q343 0 546.5 -210t203.5 -564q0 -362 -203.5 -571t-556.5 -209q-337 0 -539 212t-202 565zM420 741q0 -259 115 -416.5t303 -157.5q198 0 313.5 155.5t115.5 421.5q0 258 -116 414t-307 156q-193 0 -308.5 -156t-115.5 -417zM581 1604 l241 321h228l-321 -321h-148zM958 1604l240 321h229l-321 -321h-148z" />
<glyph unicode="&#x151;" d="M86 549q0 266 152.5 420t414.5 154q263 0 415.5 -154t152.5 -418q0 -270 -153 -423t-422 -153q-257 0 -408.5 155.5t-151.5 418.5zM391 1283l241 321h228l-321 -321h-148zM401 549q0 -179 67 -284t183 -105q120 0 187.5 103.5t67.5 287.5q0 179 -67.5 283t-185.5 104 q-117 0 -184.5 -104t-67.5 -285zM768 1283l240 321h229l-321 -321h-148z" />
<glyph unicode="&#x152;" horiz-adv-x="2169" d="M93 740q0 354 202 565.5t540 211.5q147 0 289 -74v37h925v-203h-616v-413h505v-204h-505v-450h663v-210h-972v37q-151 -74 -295 -74q-333 0 -534.5 213t-201.5 564zM420 740q0 -257 115 -415t303 -158q152 0 219 99.5t67 327.5v293q0 227 -67.5 327t-220.5 100 q-186 0 -301 -158.5t-115 -415.5z" />
<glyph unicode="&#x153;" horiz-adv-x="1966" d="M93 549q0 258 150 416t396 158q225 0 389 -176q142 176 369 176q231 0 340 -154t109 -479h-682q31 -314 346 -314q149 0 336 69v-208q-214 -62 -419 -62q-236 0 -409 163q-99 -98 -173.5 -130.5t-199.5 -32.5q-254 0 -403 155t-149 419zM407 549q0 -178 67 -283.5 t180 -105.5q216 0 216 389t-213 389q-115 0 -182.5 -105t-67.5 -284zM1161 657h393q0 284 -180 284q-184 0 -213 -284z" />
<glyph unicode="&#x154;" horiz-adv-x="1413" d="M185 0v1480h554q220 0 335.5 -93.5t115.5 -273.5q0 -137 -76.5 -249.5t-210.5 -172.5l484 -691h-375l-367 605h-170v-605h-290zM475 808h71q335 0 335 271q0 198 -299 198h-107v-469zM548 1604l240 321h272l-321 -321h-191z" />
<glyph unicode="&#x155;" horiz-adv-x="930" d="M185 0v1098h296v-207q115 232 350 232q28 0 55 -6v-264q-63 23 -117 23q-177 0 -288 -179v-697h-296zM290 1283l241 321h271l-321 -321h-191z" />
<glyph unicode="&#x158;" horiz-adv-x="1413" d="M185 0v1480h554q220 0 335.5 -93.5t115.5 -273.5q0 -137 -76.5 -249.5t-210.5 -172.5l484 -691h-375l-367 605h-170v-605h-290zM225 1925h178l198 -198h2l198 198h178l-240 -321h-274zM475 808h71q335 0 335 271q0 198 -299 198h-107v-469z" />
<glyph unicode="&#x159;" horiz-adv-x="930" d="M104 1604h178l198 -198h2l198 198h179l-241 -321h-274zM185 0v1098h296v-207q115 232 350 232q28 0 55 -6v-264q-63 23 -117 23q-177 0 -288 -179v-697h-296z" />
<glyph unicode="&#x15a;" horiz-adv-x="1170" d="M99 1112q0 183 134.5 294t355.5 111q177 0 399 -51v-237q-227 85 -359 85q-102 0 -163.5 -45.5t-61.5 -119.5q0 -61 43 -107t162 -113l106 -59q214 -120 295 -221t81 -246q0 -206 -153 -323t-422 -117q-178 0 -414 50v254q239 -100 409 -100q119 0 187.5 53t68.5 144 q0 72 -43 121.5t-163 117.5l-99 55q-199 112 -281 214.5t-82 239.5zM398 1604l240 321h272l-321 -321h-191z" />
<glyph unicode="&#x15b;" horiz-adv-x="1158" d="M156 35v217q220 -92 376 -92q182 0 182 124q0 80 -150 140l-100 40q-163 66 -233 142t-70 188q0 156 119 242.5t333 86.5q134 0 319 -39v-208q-178 62 -295 62q-184 0 -184 -114q0 -75 136 -127l86 -33q193 -73 268.5 -148t75.5 -193q0 -155 -128.5 -251.5t-334.5 -96.5 q-198 0 -400 60zM418 1283l241 321h271l-320 -321h-192z" />
<glyph unicode="&#x15c;" horiz-adv-x="1170" d="M99 1112q0 183 134.5 294t355.5 111q177 0 399 -51v-237q-227 85 -359 85q-102 0 -163.5 -45.5t-61.5 -119.5q0 -61 43 -107t162 -113l106 -59q214 -120 295 -221t81 -246q0 -206 -153 -323t-422 -117q-178 0 -414 50v254q239 -100 409 -100q119 0 187.5 53t68.5 144 q0 72 -43 121.5t-163 117.5l-99 55q-199 112 -281 214.5t-82 239.5zM211 1604l241 321h274l240 -321h-179l-197 197h-2l-198 -197h-179z" />
<glyph unicode="&#x15d;" horiz-adv-x="1158" d="M156 35v217q220 -92 376 -92q182 0 182 124q0 80 -150 140l-100 40q-163 66 -233 142t-70 188q0 156 119 242.5t333 86.5q134 0 319 -39v-208q-178 62 -295 62q-184 0 -184 -114q0 -75 136 -127l86 -33q193 -73 268.5 -148t75.5 -193q0 -155 -128.5 -251.5t-334.5 -96.5 q-198 0 -400 60zM231 1283l241 321h273l241 -321h-179l-197 197h-3l-197 -197h-179z" />
<glyph unicode="&#x15e;" horiz-adv-x="1170" d="M99 1112q0 183 134.5 294t355.5 111q177 0 399 -51v-237q-227 85 -359 85q-102 0 -163.5 -45.5t-61.5 -119.5q0 -61 43 -107t162 -113l106 -59q214 -120 295 -221t81 -246q0 -206 -153 -323t-422 -117q-178 0 -414 50v254q239 -100 409 -100q119 0 187.5 53t68.5 144 q0 72 -43 121.5t-163 117.5l-99 55q-199 112 -281 214.5t-82 239.5zM340 -311v-92q106 -29 188 -29q105 0 177 47t72 116q0 131 -232 156l76 113h-136l-121 -182h20q195 0 195 -84q0 -60 -122 -60q-47 0 -117 15z" />
<glyph unicode="&#x15f;" horiz-adv-x="1158" d="M156 35v217q220 -92 376 -92q182 0 182 124q0 80 -150 140l-100 40q-163 66 -233 142t-70 188q0 156 119 242.5t333 86.5q134 0 319 -39v-208q-178 62 -295 62q-184 0 -184 -114q0 -75 136 -127l86 -33q193 -73 268.5 -148t75.5 -193q0 -155 -128.5 -251.5t-334.5 -96.5 q-198 0 -400 60zM353 -311v-92q106 -29 188 -29q105 0 176.5 47t71.5 116q0 131 -231 156l75 113h-135l-121 -182h20q195 0 195 -84q0 -60 -122 -60q-47 0 -117 15z" />
<glyph unicode="&#x160;" horiz-adv-x="1170" d="M99 1112q0 183 134.5 294t355.5 111q177 0 399 -51v-237q-227 85 -359 85q-102 0 -163.5 -45.5t-61.5 -119.5q0 -61 43 -107t162 -113l106 -59q214 -120 295 -221t81 -246q0 -206 -153 -323t-422 -117q-178 0 -414 50v254q239 -100 409 -100q119 0 187.5 53t68.5 144 q0 72 -43 121.5t-163 117.5l-99 55q-199 112 -281 214.5t-82 239.5zM212 1925h178l198 -198h2l198 198h178l-240 -321h-274z" />
<glyph unicode="&#x161;" horiz-adv-x="1158" d="M156 35v217q220 -92 376 -92q182 0 182 124q0 80 -150 140l-100 40q-163 66 -233 142t-70 188q0 156 119 242.5t333 86.5q134 0 319 -39v-208q-178 62 -295 62q-184 0 -184 -114q0 -75 136 -127l86 -33q193 -73 268.5 -148t75.5 -193q0 -155 -128.5 -251.5t-334.5 -96.5 q-198 0 -400 60zM232 1604h179l197 -198h3l197 198h179l-241 -321h-273z" />
<glyph unicode="&#x162;" horiz-adv-x="1413" d="M22 1277v203h1369v-203h-530v-1277h-309v1277h-530zM559 -197h296v-230q0 -363 -296 -363v103q114 0 114 164v29h-114v297z" />
<glyph unicode="&#x163;" horiz-adv-x="829" d="M76 913v185h123v185l296 34v-219h235v-185h-235v-539q0 -202 165 -202q38 0 91 14v-180q-106 -31 -167 -31q-201 0 -293 86t-92 274v578h-123zM347 -197h297v-230q0 -363 -297 -363v103q114 0 114 164v29h-114v297z" />
<glyph unicode="&#x164;" horiz-adv-x="1413" d="M22 1277v203h1369v-203h-530v-1277h-309v1277h-530zM329 1925h179l197 -198h3l197 198h179l-241 -321h-273z" />
<glyph unicode="&#x165;" horiz-adv-x="829" d="M76 913v185h123v185l296 34v-219h235v-185h-235v-539q0 -202 165 -202q38 0 91 14v-180q-106 -31 -167 -31q-201 0 -293 86t-92 274v578h-123zM533 1332v103q114 0 114 164v30h-114v296h296v-230q0 -363 -296 -363z" />
<glyph unicode="&#x16a;" horiz-adv-x="1508" d="M173 574v906h308v-907q0 -215 71 -310.5t229 -95.5q151 0 218.5 91t67.5 293v929h268v-909q0 -205 -39 -312.5t-142 -186.5q-141 -109 -379 -109q-255 0 -410 116q-107 80 -149.5 189.5t-42.5 305.5zM404 1604v173h741v-173h-741z" />
<glyph unicode="&#x16b;" horiz-adv-x="1345" d="M173 322v776h296v-703q0 -187 125 -187q140 0 270 199v691h296v-1098h-296v207q-144 -232 -374 -232q-147 0 -232 93t-85 254zM296 1283v173h741v-173h-741z" />
<glyph unicode="&#x16c;" horiz-adv-x="1508" d="M173 574v906h308v-907q0 -215 71 -310.5t229 -95.5q151 0 218.5 91t67.5 293v929h268v-909q0 -205 -39 -312.5t-142 -186.5q-141 -109 -379 -109q-255 0 -410 116q-107 80 -149.5 189.5t-42.5 305.5zM421 1925h148q42 -142 206 -142t205 142h148q-17 -147 -112.5 -234 t-240.5 -87q-146 0 -241.5 86.5t-112.5 234.5z" />
<glyph unicode="&#x16d;" horiz-adv-x="1345" d="M173 322v776h296v-703q0 -187 125 -187q140 0 270 199v691h296v-1098h-296v207q-144 -232 -374 -232q-147 0 -232 93t-85 254zM313 1604h148q42 -142 206 -142t205 142h148q-17 -147 -112.5 -234t-240.5 -87t-241 86.5t-113 234.5z" />
<glyph unicode="&#x16e;" horiz-adv-x="1508" d="M173 574v906h308v-907q0 -215 71 -310.5t229 -95.5q151 0 218.5 91t67.5 293v929h268v-909q0 -205 -39 -312.5t-142 -186.5q-141 -109 -379 -109q-255 0 -410 116q-107 80 -149.5 189.5t-42.5 305.5zM548 1707q0 95 66 161t160 66q95 0 161.5 -66t66.5 -160 q0 -96 -66.5 -162t-163.5 -66q-93 0 -158.5 67t-65.5 160zM646 1708q0 -53 37.5 -91t89.5 -38q55 0 92.5 37.5t37.5 91.5q0 53 -37.5 90.5t-91.5 37.5q-53 0 -90.5 -37.5t-37.5 -90.5z" />
<glyph unicode="&#x16f;" horiz-adv-x="1345" d="M173 322v776h296v-703q0 -187 125 -187q140 0 270 199v691h296v-1098h-296v207q-144 -232 -374 -232q-147 0 -232 93t-85 254zM440 1510q0 94 66 160.5t161 66.5q94 0 160.5 -66t66.5 -161q0 -96 -66.5 -161.5t-163.5 -65.5q-93 0 -158.5 66.5t-65.5 160.5zM538 1510 q0 -53 37.5 -90.5t89.5 -37.5q55 0 92.5 37t37.5 92q0 53 -37.5 90t-90.5 37q-54 0 -91.5 -37t-37.5 -91z" />
<glyph unicode="&#x170;" horiz-adv-x="1508" d="M173 574v906h308v-907q0 -215 71 -310.5t229 -95.5q151 0 218.5 91t67.5 293v929h268v-909q0 -205 -39 -312.5t-142 -186.5q-141 -109 -379 -109q-255 0 -410 116q-107 80 -149.5 189.5t-42.5 305.5zM492 1604l240 321h229l-321 -321h-148zM868 1604l241 321h228 l-321 -321h-148z" />
<glyph unicode="&#x171;" horiz-adv-x="1345" d="M173 322v776h296v-703q0 -187 125 -187q140 0 270 199v691h296v-1098h-296v207q-144 -232 -374 -232q-147 0 -232 93t-85 254zM339 1283l241 321h228l-321 -321h-148zM716 1283l240 321h229l-321 -321h-148z" />
<glyph unicode="&#x172;" horiz-adv-x="1508" d="M173 574v906h308v-907q0 -215 71 -310.5t229 -95.5q151 0 218.5 91t67.5 293v929h268v-909q0 -205 -39 -312.5t-142 -186.5q-141 -109 -379 -109q-255 0 -410 116q-107 80 -149.5 189.5t-42.5 305.5zM525 -211q0 -71 81 -115t214 -44q113 0 199 29v81q-50 -15 -135 -15 q-162 0 -162 95q0 94 186 180h-158q-225 -93 -225 -211z" />
<glyph unicode="&#x173;" horiz-adv-x="1345" d="M173 322v776h296v-703q0 -187 125 -187q140 0 270 199v691h296v-1098h-296v207q-144 -232 -374 -232q-147 0 -232 93t-85 254zM639 -211q0 118 225 211h158q-186 -86 -186 -180q0 -95 162 -95q85 0 135 15v-81q-86 -29 -199 -29q-133 0 -214 44t-81 115z" />
<glyph unicode="&#x178;" horiz-adv-x="1406" d="M40 1480h340l361 -625l377 625h244l-517 -858v-622h-308v620zM405 1604v222h222v-222h-222zM824 1604v222h223v-222h-223z" />
<glyph unicode="&#x179;" horiz-adv-x="1320" d="M106 0v210l736 1067h-694v203h1052v-203l-736 -1067h736v-210h-1094zM511 1604l241 321h271l-321 -321h-191z" />
<glyph unicode="&#x17a;" horiz-adv-x="1210" d="M123 0v197l614 716h-586v185h936v-185l-614 -716h626v-197h-976zM478 1283l241 321h271l-320 -321h-192z" />
<glyph unicode="&#x17b;" horiz-adv-x="1320" d="M106 0v210l736 1067h-694v203h1052v-203l-736 -1067h736v-210h-1094zM526 1604v296h296v-296h-296z" />
<glyph unicode="&#x17c;" horiz-adv-x="1210" d="M123 0v197l614 716h-586v185h936v-185l-614 -716h626v-197h-976zM471 1283v296h296v-296h-296z" />
<glyph unicode="&#x17d;" horiz-adv-x="1320" d="M106 0v210l736 1067h-694v203h1052v-203l-736 -1067h736v-210h-1094zM297 1925h179l197 -198h2l198 198h179l-241 -321h-274z" />
<glyph unicode="&#x17e;" horiz-adv-x="1210" d="M123 0v197l614 716h-586v185h936v-185l-614 -716h626v-197h-976zM241 1604h179l198 -198h2l197 198h179l-241 -321h-273z" />
<glyph unicode="&#x192;" d="M219 -296l198 993h-186v185h222l20 90q117 545 572 545q121 0 228 -20l-15 -202q-123 38 -216 38q-200 0 -253 -274l-34 -177h250v-185h-287l-197 -993h-302z" />
<glyph unicode="&#x2c6;" d="M276 1283l241 321h273l241 -321h-179l-197 197h-3l-197 -197h-179z" />
<glyph unicode="&#x2c7;" d="M276 1604h179l197 -198h3l197 198h179l-241 -321h-273z" />
<glyph unicode="&#x2d8;" d="M300 1604h148q42 -142 206 -142t205 142h148q-17 -147 -112.5 -234t-240.5 -87q-146 0 -241.5 86.5t-112.5 234.5z" />
<glyph unicode="&#x2d9;" d="M506 1283v296h296v-296h-296z" />
<glyph unicode="&#x2da;" d="M427 1510q0 94 66 160.5t161 66.5q94 0 160.5 -66t66.5 -161q0 -96 -66.5 -161.5t-163.5 -65.5q-93 0 -158.5 66.5t-65.5 160.5zM526 1510q0 -53 37 -90.5t89 -37.5q55 0 92.5 37t37.5 92q0 53 -37.5 90t-90.5 37t-90.5 -37t-37.5 -91z" />
<glyph unicode="&#x2db;" d="M444 -211q0 118 225 211h159q-186 -86 -186 -180q0 -95 162 -95q84 0 135 15v-81q-87 -29 -200 -29q-132 0 -213.5 44t-81.5 115z" />
<glyph unicode="&#x2dc;" d="M302 1283q0 321 201 321q65 0 126 -43l39 -26l31 -22q64 -45 91 -45q67 0 67 136h148q0 -321 -201 -321q-65 0 -127 43l-38 26q-24 17 -31 22q-61 45 -91 45q-67 0 -67 -136h-148z" />
<glyph unicode="&#x2dd;" d="M392 1283l241 321h228l-321 -321h-148zM769 1283l240 321h229l-321 -321h-148z" />
<glyph unicode="&#x386;" horiz-adv-x="1508" d="M23 0l576 1480h308l576 -1480h-316l-154 395h-612l-154 -395h-224zM55 1480h271l-37 -320h-197zM477 592h460l-230 590z" />
<glyph unicode="&#x388;" horiz-adv-x="1514" d="M0 1480h272l-37 -320h-198zM469 0v1480h925v-203h-617v-413h506v-204h-506v-450h664v-210h-972z" />
<glyph unicode="&#x389;" horiz-adv-x="1882" d="M0 1480h272l-37 -320h-198zM469 0v1480h308v-601h612v601h308v-1480h-308v675h-612v-675h-308z" />
<glyph unicode="&#x38a;" horiz-adv-x="962" d="M0 1480h272l-37 -320h-198zM469 0v1480h308v-1480h-308z" />
<glyph unicode="&#x38c;" horiz-adv-x="1917" d="M0 1480h271l-37 -320h-197zM323 740q0 357 203 567t548 210q343 0 546.5 -210t203.5 -564q0 -362 -203.5 -571t-556.5 -209q-337 0 -539 212t-202 565zM650 741q0 -259 115 -416.5t303 -157.5q198 0 313.5 155.5t115.5 421.5q0 258 -116 414t-307 156q-193 0 -308.5 -156 t-115.5 -417z" />
<glyph unicode="&#x38e;" horiz-adv-x="1807" d="M0 1480h271l-36 -320h-198zM456 1271v209q293 0 461 -146t245 -469q91 266 258.5 430.5t367.5 184.5v-185q-212 -49 -369.5 -311t-157.5 -564v-420h-308v436q0 339 -147.5 587t-349.5 248z" />
<glyph unicode="&#x38f;" horiz-adv-x="1943" d="M0 1480h271l-36 -320h-198zM296 0v204h415q-366 273 -366 648q0 295 206 480t535 185q328 0 534 -185t206 -480q0 -374 -366 -648h415v-204h-676v204q300 224 300 626q0 225 -110.5 354.5t-303.5 129.5q-192 0 -302.5 -130t-110.5 -355q0 -401 301 -625v-204h-677z" />
<glyph unicode="&#x390;" horiz-adv-x="788" d="M-148 1283v222h222v-222h-222zM145 442v656h296v-674q0 -140 32.5 -197.5t110.5 -57.5q66 0 152 42v-186q-118 -50 -240 -50q-160 0 -247 73q-61 52 -82.5 133t-21.5 261zM157 1604h272l-37 -321h-198zM512 1283v222h222v-222h-222z" />
<glyph unicode="&#x391;" horiz-adv-x="1508" d="M23 0l576 1480h308l576 -1480h-316l-154 395h-612l-154 -395h-224zM477 592h460l-230 590z" />
<glyph unicode="&#x392;" horiz-adv-x="1290" d="M185 0v1480h503q223 0 339.5 -84t116.5 -245q0 -267 -355 -378q415 -101 415 -407q0 -177 -121.5 -271.5t-348.5 -94.5h-549zM481 210h60q194 0 267.5 41.5t73.5 151.5q0 113 -98.5 188t-248.5 75h-54v-456zM481 864h67q130 0 206.5 64t76.5 174q0 102 -61.5 138.5 t-232.5 36.5h-56v-413z" />
<glyph unicode="&#x393;" horiz-adv-x="1141" d="M185 0v1480h931v-203h-623v-1277h-308z" />
<glyph unicode="&#x394;" horiz-adv-x="1502" d="M31 0v247l588 1233h262l590 -1233v-247h-1440zM268 247h868l-435 909z" />
<glyph unicode="&#x395;" horiz-adv-x="1230" d="M185 0v1480h925v-203h-617v-413h506v-204h-506v-450h664v-210h-972z" />
<glyph unicode="&#x396;" horiz-adv-x="1320" d="M106 0v210l736 1067h-694v203h1052v-203l-736 -1067h736v-210h-1094z" />
<glyph unicode="&#x397;" horiz-adv-x="1598" d="M185 0v1480h308v-601h612v601h308v-1480h-308v675h-612v-675h-308z" />
<glyph unicode="&#x398;" horiz-adv-x="1686" d="M93 740q0 357 203 567t548 210q343 0 546.5 -210t203.5 -564q0 -362 -203.5 -571t-556.5 -209q-337 0 -539 212t-202 565zM420 741q0 -259 115 -416.5t303 -157.5q198 0 313.5 155.5t115.5 421.5q0 258 -116 414t-307 156q-193 0 -308.5 -156t-115.5 -417zM566 666v204 h555v-204h-555z" />
<glyph unicode="&#x399;" horiz-adv-x="679" d="M185 0v1480h308v-1480h-308z" />
<glyph unicode="&#x39a;" horiz-adv-x="1454" d="M185 0v1480h296v-718l566 718h256l-513 -664l637 -816h-385l-561 728v-728h-296z" />
<glyph unicode="&#x39b;" horiz-adv-x="1508" d="M23 0l576 1480h308l576 -1480h-316l-453 1164l-453 -1164h-238z" />
<glyph unicode="&#x39c;" horiz-adv-x="1859" d="M185 0v1480h408l356 -1041l367 1041h358v-1480h-284v1117l-361 -1018h-248l-354 1033v-1132h-242z" />
<glyph unicode="&#x39d;" horiz-adv-x="1574" d="M185 0v1480h271l686 -1011v1011h247v-1480h-276l-681 1011v-1011h-247z" />
<glyph unicode="&#x39e;" horiz-adv-x="1246" d="M37 0v259h1172v-259h-1172zM93 1234v246h1061v-246h-1061zM191 657v222h864v-222h-864z" />
<glyph unicode="&#x39f;" horiz-adv-x="1686" d="M93 740q0 357 203 567t548 210q343 0 546.5 -210t203.5 -564q0 -362 -203.5 -571t-556.5 -209q-337 0 -539 212t-202 565zM420 741q0 -259 115 -416.5t303 -157.5q198 0 313.5 155.5t115.5 421.5q0 258 -116 414t-307 156q-193 0 -308.5 -156t-115.5 -417z" />
<glyph unicode="&#x3a0;" horiz-adv-x="1599" d="M185 0v1480h1228v-1480h-308v1277h-612v-1277h-308z" />
<glyph unicode="&#x3a1;" horiz-adv-x="1256" d="M185 0v1480h516q270 0 385.5 -90.5t115.5 -302.5q0 -240 -154.5 -373.5t-432.5 -133.5h-128v-580h-302zM487 783h60q158 0 249.5 73.5t91.5 199.5q0 221 -281 221h-120v-494z" />
<glyph unicode="&#x3a3;" horiz-adv-x="1306" d="M68 0v244l544 484l-495 549v203h1097v-203h-702l457 -506l-592 -524h868v-247h-1177z" />
<glyph unicode="&#x3a4;" horiz-adv-x="1413" d="M22 1277v203h1369v-203h-530v-1277h-309v1277h-530z" />
<glyph unicode="&#x3a5;" horiz-adv-x="1368" d="M19 1271v209q293 0 460.5 -145.5t245.5 -469.5q91 266 258.5 430.5t367.5 184.5v-185q-212 -49 -369.5 -311t-157.5 -564v-420h-309v436q0 339 -147 587t-349 248z" />
<glyph unicode="&#x3a6;" horiz-adv-x="1561" d="M68 740q0 233 155 379.5t413 158.5v202h290v-202q258 -12 413 -158.5t155 -379.5q0 -232 -155 -379t-413 -159v-202h-290v202q-258 12 -413 159t-155 379zM364 740q0 -299 272 -334v669q-272 -36 -272 -335zM926 406q272 35 272 334t-272 335v-669z" />
<glyph unicode="&#x3a7;" horiz-adv-x="1366" d="M49 0l474 729l-453 751h359l301 -498l326 498h249l-454 -698l470 -782h-358l-321 529l-344 -529h-249z" />
<glyph unicode="&#x3a8;" horiz-adv-x="1584" d="M19 1277v203h19q204 0 284 -68.5t118 -277.5l18 -96q27 -149 62.5 -200t117.5 -61v703h309v-703q82 10 117.5 61t62.5 200l18 96q38 209 118 277.5t284 68.5h19v-203h-13q-74 0 -102.5 -37t-46.5 -157l-14 -91q-32 -213 -131 -303.5t-312 -102.5v-586h-309v586 q-214 12 -312.5 102.5t-130.5 303.5l-14 91q-18 120 -46.5 157t-102.5 37h-13z" />
<glyph unicode="&#x3a9;" horiz-adv-x="1715" d="M68 0v204h416q-366 273 -366 648q0 295 206 480t534 185t534 -185t206 -480q0 -374 -366 -648h416v-204h-677v204q300 224 300 626q0 225 -110.5 354.5t-302.5 129.5t-302.5 -130t-110.5 -355q0 -401 300 -625v-204h-677z" />
<glyph unicode="&#x3aa;" horiz-adv-x="679" d="M19 1604v222h222v-222h-222zM185 0v1480h309v-1480h-309zM438 1604v222h222v-222h-222z" />
<glyph unicode="&#x3ab;" horiz-adv-x="1368" d="M19 1271v209q293 0 460.5 -145.5t245.5 -469.5q91 266 258.5 430.5t367.5 184.5v-185q-212 -49 -369.5 -311t-157.5 -564v-420h-309v436q0 339 -147 587t-349 248zM396 1604v222h222v-222h-222zM816 1604v222h222v-222h-222z" />
<glyph unicode="&#x3ac;" horiz-adv-x="1499" d="M103 492q0 262 141.5 446.5t342.5 184.5q131 0 218.5 -86.5t213.5 -339.5q73 175 85 401h298q-32 -288 -274 -607q183 -331 315 -491h-329q-64 91 -144 224l-28 48q-233 -297 -461 -297q-168 0 -273 143.5t-105 373.5zM413 507q0 -144 39.5 -232.5t103.5 -88.5 q119 0 295 252l-37 83q-167 377 -239 377q-68 0 -115 -114t-47 -277zM577 1604h271l-37 -321h-197z" />
<glyph unicode="&#x3ad;" horiz-adv-x="1112" d="M93 550q0 273 154.5 423t434.5 150q168 0 322 -42v-193q-172 50 -310 50q-251 0 -291 -275h538v-179h-540q32 -324 321 -324q140 0 294 73v-196q-168 -62 -358 -62q-259 0 -412 156t-153 419zM518 1604h271l-36 -321h-198z" />
<glyph unicode="&#x3ae;" horiz-adv-x="1346" d="M122 1098h320q22 -77 41 -208q161 233 374 233q154 0 235 -98.5t81 -284.5v-1135h-296v1083q0 194 -136 194t-258 -188v-694h-296v769q0 190 -65 329zM533 1604h271l-37 -321h-197z" />
<glyph unicode="&#x3af;" horiz-adv-x="788" d="M145 442v656h296v-674q0 -140 32.5 -197.5t110.5 -57.5q66 0 153 42v-186q-119 -50 -241 -50q-160 0 -246 73q-62 52 -83.5 133t-21.5 261zM157 1604h272l-37 -321h-198z" />
<glyph unicode="&#x3b0;" horiz-adv-x="1245" d="M140 578v520h296v-528q0 -237 45.5 -323.5t170.5 -86.5q114 0 184.5 96t70.5 251q0 254 -179 591h288q106 -278 106 -541q0 -267 -137.5 -424.5t-369.5 -157.5q-215 0 -341 118q-80 74 -107 172.5t-27 312.5zM158 1283v222h222v-222h-222zM463 1604h272l-37 -321h-198z M818 1283v222h222v-222h-222z" />
<glyph unicode="&#x3b1;" horiz-adv-x="1500" d="M103 492q0 267 143 449t353 182q187 0 304 -236l73 -149q11 -22 35 -69q81 202 93 429h298q-20 -167 -79 -298t-195 -309q183 -331 315 -491h-329q-80 114 -170 270q-254 -295 -463 -295q-168 0 -273 143.5t-105 373.5zM413 507q0 -144 39.5 -232.5t103.5 -88.5 q104 0 298 252l-40 83q-12 27 -32 70q-41 90 -54 115l-62 113q-44 79 -88 79q-70 0 -117.5 -113t-47.5 -278z" />
<glyph unicode="&#x3b2;" horiz-adv-x="1317" d="M185 -395v1359q0 640 507 640q190 0 303.5 -95.5t113.5 -255.5q0 -237 -280 -385q186 -57 288 -172.5t102 -268.5q0 -193 -142 -322.5t-352 -129.5q-116 0 -244 38v-408h-296zM481 213q111 -53 204 -53q100 0 168.5 75.5t68.5 185.5q0 134 -101.5 225t-251.5 91h-27v179 h25q105 0 176.5 91.5t71.5 226.5q0 185 -151 185q-98 0 -140.5 -87.5t-42.5 -286.5v-832z" />
<glyph unicode="&#x3b3;" horiz-adv-x="1256" d="M0 1098h352q158 -250 256 -490l54 -133q5 -11 20 -48q130 315 329 635l22 36h224q-94 -124 -242 -414t-230 -510q58 -188 58 -284q0 -132 -72 -285h-251q-61 139 -61 248q0 94 61 275l-15 37q-99 245 -242.5 510.5t-262.5 422.5z" />
<glyph unicode="&#x3b4;" horiz-adv-x="1274" d="M93 463q0 347 372 510q-184 103 -255 178t-71 164q0 137 132 213t369 76q168 0 316 -34v-208q-157 57 -321 57q-200 0 -200 -91q0 -44 96 -102l94 -59l92 -56l89 -55q201 -127 288.5 -256.5t87.5 -302.5q0 -231 -151.5 -376.5t-391.5 -145.5t-393 137t-153 351zM401 473 q0 -140 66.5 -226.5t173.5 -86.5q102 0 167 89t65 229q0 126 -52.5 209.5t-182.5 165.5q-237 -136 -237 -380z" />
<glyph unicode="&#x3b5;" horiz-adv-x="1112" d="M93 550q0 273 154.5 423t434.5 150q168 0 322 -42v-193q-172 50 -310 50q-251 0 -291 -275h538v-179h-540q32 -324 321 -324q140 0 294 73v-196q-168 -62 -358 -62q-259 0 -412 156t-153 419z" />
<glyph unicode="&#x3b6;" horiz-adv-x="1295" d="M-22 1227v257q264 -156 581 -176q304 264 625 296l59 -173q-233 -238 -582 -286q-220 -342 -220 -631q0 -147 78.5 -213.5t252.5 -66.5h100q410 0 410 -306q0 -160 -133.5 -253.5t-361.5 -93.5q-82 0 -185 19v203q97 -25 199 -25q244 0 244 119q0 59 -51.5 81t-186.5 22 h-91q-297 0 -440.5 119.5t-143.5 368.5q0 324 274 665h-45q-201 0 -383 74z" />
<glyph unicode="&#x3b7;" horiz-adv-x="1346" d="M122 1098h320q22 -77 41 -208q161 233 374 233q154 0 235 -98.5t81 -284.5v-1135h-296v1083q0 194 -136 194t-258 -188v-694h-296v769q0 190 -65 329z" />
<glyph unicode="&#x3b8;" horiz-adv-x="1294" d="M105 784q0 390 142 605t400 215q257 0 399.5 -214.5t142.5 -601.5q0 -391 -143 -602t-407 -211q-251 0 -392.5 214.5t-141.5 594.5zM404 669q0 -239 64.5 -374t178.5 -135t178.5 135t64.5 374l-1 43h-484zM407 898h480q0 248 -63 384.5t-177 136.5t-177 -136.5 t-63 -384.5z" />
<glyph unicode="&#x3b9;" horiz-adv-x="788" d="M145 442v656h296v-674q0 -140 32.5 -197.5t110.5 -57.5q66 0 153 42v-186q-119 -50 -241 -50q-160 0 -246 73q-62 52 -83.5 133t-21.5 261z" />
<glyph unicode="&#x3ba;" horiz-adv-x="1225" d="M185 0v1098h296v-525l82 104l101 126q155 193 231.5 244t214.5 51v-206l-25 1q-64 0 -125 -48t-164 -178l-50 -62l414 -605h-319l-360 533v-533h-296z" />
<glyph unicode="&#x3bb;" horiz-adv-x="1287" d="M27 0l455 998l-70 157q-55 124 -106.5 157t-191.5 33h-21v234h30q269 0 370.5 -68t213.5 -323l312 -705q126 -287 245 -483h-321l-24 45q-93 174 -182 377l-137 310l-333 -732h-240z" />
<glyph unicode="&#x3bc;" horiz-adv-x="1419" d="M185 -395v1493h296v-678q0 -204 137 -204q134 0 258 191v691h296v-770q0 -191 61 -328h-320q-22 79 -37 207q-124 -226 -279 -226q-68 0 -116 31v-407h-296z" />
<glyph unicode="&#x3bd;" horiz-adv-x="1207" d="M4 1098h332q35 -69 92 -212l77 -196q78 -198 139 -395l13 -41q90 153 167 370t77 317q0 79 -30 157h258q15 -52 15 -109q0 -173 -161 -514q-160 -340 -238 -475h-298q-66 223 -203 563.5t-240 534.5z" />
<glyph unicode="&#x3be;" horiz-adv-x="1197" d="M-56 1411v215q197 -102 459 -141q214 119 426 119q80 0 168 -14l43 -120q-218 -160 -532 -160q-45 -67 -45 -145q0 -109 96 -187q63 -51 125 -67.5t190 -16.5h129v-185h-121q-480 0 -480 -284q0 -191 277 -191h89q410 0 410 -306q0 -160 -134 -253.5t-361 -93.5 q-83 0 -185 19v203q96 -25 199 -25q244 0 244 119q0 59 -51.5 81t-187.5 22h-80q-254 0 -391 102.5t-137 291.5q0 283 351 430q-122 38 -194 123.5t-72 192.5q0 92 70 193q-161 22 -305 78z" />
<glyph unicode="&#x3bf;" d="M86 549q0 266 152.5 420t414.5 154q263 0 415.5 -154t152.5 -418q0 -270 -153 -423t-422 -153q-257 0 -408.5 155.5t-151.5 418.5zM401 549q0 -179 67 -284t183 -105q120 0 187.5 103.5t67.5 287.5q0 179 -67.5 283t-185.5 104q-117 0 -184.5 -104t-67.5 -285z" />
<glyph unicode="&#x3c0;" horiz-adv-x="1622" d="M74 829v224q110 45 259 45h1215v-204h-221v-599q0 -168 76 -295h-307q-66 144 -66 303v591h-382v-894h-296v894h-42q-124 0 -236 -65z" />
<glyph unicode="&#x3c1;" horiz-adv-x="1293" d="M157 319q0 434 132 611q143 193 408 193q230 0 360.5 -133t130.5 -367q0 -268 -161.5 -445.5t-406.5 -177.5q-85 0 -167 27v-422h-296v714zM453 238q77 -53 157 -53q123 0 202.5 118t79.5 299q0 156 -60.5 246t-166.5 90q-119 0 -165.5 -110t-46.5 -391v-199z" />
<glyph unicode="&#x3c2;" horiz-adv-x="1207" d="M93 465q0 282 209 470t523 188q133 0 252 -24v-200q-128 39 -250 39q-200 0 -314 -117.5t-114 -324.5q0 -138 74 -200t241 -62h65q410 0 410 -306q0 -160 -134 -253.5t-361 -93.5q-82 0 -185 19v203q96 -25 199 -25q243 0 243 119q0 59 -51 81t-187 22h-74 q-265 0 -405.5 119.5t-140.5 345.5z" />
<glyph unicode="&#x3c3;" horiz-adv-x="1436" d="M93 549q0 264 151.5 419t409.5 155q84 0 194 -25h576v-210h-285q89 -165 89 -333q0 -271 -151.5 -425.5t-416.5 -154.5q-263 0 -415 154t-152 420zM408 549q0 -179 67 -284t183 -105q120 0 187.5 103.5t67.5 287.5q0 179 -67.5 283t-185.5 104q-117 0 -184.5 -104 t-67.5 -285z" />
<glyph unicode="&#x3c4;" horiz-adv-x="1135" d="M31 839v220q105 39 264 39h809v-210h-395v-571q0 -196 79 -317h-307q-42 93 -55 176.5t-13 250.5v461h-132q-137 0 -250 -49z" />
<glyph unicode="&#x3c5;" horiz-adv-x="1245" d="M140 578v520h296v-528q0 -237 45.5 -323.5t170.5 -86.5q114 0 184.5 96t70.5 251q0 254 -179 591h288q106 -278 106 -541q0 -267 -137.5 -424.5t-369.5 -157.5q-215 0 -341 118q-80 74 -107 172.5t-27 312.5z" />
<glyph unicode="&#x3c6;" horiz-adv-x="1629" d="M93 549q0 232 163 378t423 146v506h271v-506q261 0 423.5 -146t162.5 -379q0 -234 -162.5 -380t-423.5 -146v-417h-271v417q-261 0 -423.5 146.5t-162.5 380.5zM377 548q0 -291 302 -340v679q-302 -49 -302 -339zM950 208q303 49 303 340q0 290 -303 339v-679z" />
<glyph unicode="&#x3c7;" horiz-adv-x="1206" d="M-29 -395l478 763l-165 297l-50 91q-112 198 -213 342h329q87 -126 230 -383l42 -76l289 459h244l-417 -664l232 -414l72 -117l81 -131q30 -49 75 -116l33 -51h-334q-115 168 -217 350l-114 204l-345 -554h-250z" />
<glyph unicode="&#x3c8;" horiz-adv-x="1669" d="M49 1098h292q55 -102 55 -305v-119q0 -251 61 -352.5t232 -136.5v1098h283v-1098q172 26 247.5 135.5t75.5 332.5q0 228 -81 445h288q77 -212 77 -443q0 -302 -156.5 -471t-450.5 -184v-395h-283v395q-319 21 -448 166t-129 483v135q0 208 -63 314z" />
<glyph unicode="&#x3c9;" horiz-adv-x="1887" d="M93 535q0 299 153 563h305q-178 -289 -178 -564q0 -153 61.5 -250t158.5 -97q159 0 230 266q-58 138 -58 254q0 140 60 289h238q59 -149 59 -289q0 -115 -57 -254q72 -266 230 -266q97 0 158.5 97t61.5 250q0 274 -178 564h305q153 -265 153 -563q0 -246 -131.5 -403 t-338.5 -157q-246 0 -381 300q-136 -300 -382 -300q-206 0 -337.5 157t-131.5 403z" />
<glyph unicode="&#x3ca;" horiz-adv-x="788" d="M-28 1283v222h223v-222h-223zM145 442v656h296v-674q0 -140 32.5 -197.5t110.5 -57.5q66 0 153 42v-186q-119 -50 -241 -50q-160 0 -246 73q-62 52 -83.5 133t-21.5 261zM392 1283v222h222v-222h-222z" />
<glyph unicode="&#x3cb;" horiz-adv-x="1245" d="M140 578v520h296v-528q0 -237 45.5 -323.5t170.5 -86.5q116 0 188.5 97.5t72.5 251.5q0 259 -185 589h288q106 -278 106 -541q0 -267 -137.5 -424.5t-369.5 -157.5q-215 0 -341 118q-80 74 -107 172.5t-27 312.5zM271 1283v222h222v-222h-222zM690 1283v222h222v-222 h-222z" />
<glyph unicode="&#x3cc;" d="M86 549q0 266 152.5 420t414.5 154q263 0 415.5 -154t152.5 -418q0 -270 -153 -423t-422 -153q-257 0 -408.5 155.5t-151.5 418.5zM401 549q0 -179 67 -284t183 -105q120 0 187.5 103.5t67.5 287.5q0 179 -67.5 283t-185.5 104q-117 0 -184.5 -104t-67.5 -285zM518 1604 h271l-37 -321h-197z" />
<glyph unicode="&#x3cd;" horiz-adv-x="1245" d="M140 578v520h296v-528q0 -237 45.5 -323.5t170.5 -86.5q114 0 184.5 96t70.5 251q0 254 -179 591h288q106 -278 106 -541q0 -267 -137.5 -424.5t-369.5 -157.5q-215 0 -341 118q-80 74 -107 172.5t-27 312.5zM484 1604h271l-36 -321h-198z" />
<glyph unicode="&#x3ce;" horiz-adv-x="1887" d="M93 535q0 299 153 563h305q-178 -289 -178 -564q0 -153 61.5 -250t158.5 -97q159 0 230 266q-58 138 -58 254q0 140 60 289h238q59 -149 59 -289q0 -115 -57 -254q72 -266 230 -266q97 0 158.5 97t61.5 250q0 274 -178 564h305q153 -265 153 -563q0 -246 -131.5 -403 t-338.5 -157q-246 0 -381 300q-136 -300 -382 -300q-206 0 -337.5 157t-131.5 403zM802 1604h272l-37 -321h-198z" />
<glyph unicode="&#x401;" horiz-adv-x="1230" d="M185 0v1480h925v-203h-617v-413h506v-204h-506v-450h664v-210h-972zM345 1604v222h223v-222h-223zM765 1604v222h222v-222h-222z" />
<glyph unicode="&#x402;" horiz-adv-x="1644" d="M25 1277v203h1191v-203h-469v-440q166 136 355 136q207 0 338 -131.5t131 -339.5q0 -222 -138 -368t-347 -146q-50 0 -125 12v186q38 -8 65 -8q105 0 168 79.5t63 212.5q0 123 -60.5 195.5t-161.5 72.5q-147 0 -288 -139v-599h-303v1277h-419z" />
<glyph unicode="&#x403;" horiz-adv-x="1110" d="M185 0v1480h901v-209h-593v-1271h-308zM493 1604l241 321h271l-320 -321h-192z" />
<glyph unicode="&#x404;" horiz-adv-x="1242" d="M93 745q0 358 189.5 565.5t517.5 207.5q171 0 343 -58v-198q-175 64 -296 64q-172 0 -289 -123.5t-138 -329.5h496v-198h-496q0 -218 127.5 -360t324.5 -142q140 0 290 72v-225q-175 -57 -358 -57q-339 0 -525 204.5t-186 577.5z" />
<glyph unicode="&#x405;" horiz-adv-x="1169" d="M99 1112q0 183 134.5 294t355.5 111q177 0 399 -51v-237q-227 85 -359 85q-102 0 -163.5 -45.5t-61.5 -119.5q0 -61 43 -107t162 -113l106 -59q214 -120 295 -221t81 -246q0 -206 -153 -323t-422 -117q-178 0 -414 50v254q239 -100 409 -100q119 0 187.5 53t68.5 144 q0 72 -43 121.5t-163 117.5l-99 55q-199 112 -281 214.5t-82 239.5z" />
<glyph unicode="&#x406;" horiz-adv-x="679" d="M185 0v1480h308v-1480h-308z" />
<glyph unicode="&#x407;" horiz-adv-x="679" d="M19 1604v222h222v-222h-222zM185 0v1480h309v-1480h-309zM438 1604v222h222v-222h-222z" />
<glyph unicode="&#x408;" horiz-adv-x="857" d="M12 -54q95 -33 177 -33q98 0 136 59t38 212v1296h309v-1263q0 -173 -33.5 -267.5t-118.5 -157.5q-117 -88 -303 -88q-106 0 -205 27v215z" />
<glyph unicode="&#x409;" horiz-adv-x="2079" d="M19 0v218q153 11 219.5 114t66.5 330l10 263l3 273v282h956v-618h99q211 0 293 -14t159 -62q171 -106 171 -333q0 -249 -195 -370q-79 -50 -174.5 -66.5t-298.5 -16.5h-356v1277h-370v-117q0 -672 -67 -854q-58 -156 -170.5 -222.5t-345.5 -83.5zM1274 190h91 q155 0 242 66.5t87 184.5q0 230 -326 230h-94v-481z" />
<glyph unicode="&#x40a;" horiz-adv-x="2125" d="M185 0v1480h302v-618h531v618h302v-618h109q195 0 281.5 -14.5t160.5 -60.5q171 -107 171 -334q0 -249 -195 -370q-79 -50 -174.5 -66.5t-298.5 -16.5h-356v671h-531v-671h-302zM1320 191h91q155 0 242 66t87 184q0 230 -316 230h-104v-480z" />
<glyph unicode="&#x40b;" horiz-adv-x="1659" d="M25 1277v203h1135v-203h-432v-442q144 140 363 140q226 0 335.5 -119.5t109.5 -365.5v-490h-308v485q0 141 -48.5 203.5t-158.5 62.5q-158 0 -293 -154v-597h-308v1277h-395z" />
<glyph unicode="&#x40c;" horiz-adv-x="1391" d="M185 0v1480h296v-629q88 6 127 44.5t153 228.5l57 95q95 159 166 209t203 50q16 0 71 2v-191q-81 0 -114.5 -21.5t-86.5 -107.5l-40 -65l-43 -73l-43 -71q-69 -117 -201 -179q123 -30 194.5 -96t163.5 -237l41 -74l61 -118q56 -105 145 -247h-337q-22 45 -29 58l-66 117 l-82 152q-127 229 -223 339h-117v-666h-296zM561 1604l241 321h271l-321 -321h-191z" />
<glyph unicode="&#x40e;" horiz-adv-x="1405" d="M62 1480h331l360 -721h2l361 721h276l-538 -1075q-131 -263 -250 -360q-58 -47 -145 -64.5t-268 -17.5h-43v210h37q167 0 236.5 37.5t144.5 168.5l25 43zM421 1925h210v-24q0 -168 123 -168q124 0 124 170v22h209q0 -170 -78.5 -245.5t-254.5 -75.5t-254.5 75.5 t-78.5 245.5z" />
<glyph unicode="&#x40f;" horiz-adv-x="1598" d="M185 0v1480h308v-1270h612v1270h308v-1480h-466v-296h-296v296h-466z" />
<glyph unicode="&#x410;" horiz-adv-x="1508" d="M23 0l576 1480h308l576 -1480h-316l-154 395h-612l-154 -395h-224zM477 592h460l-230 590z" />
<glyph unicode="&#x411;" horiz-adv-x="1278" d="M185 0v1480h879v-203h-577v-415h100q201 0 281.5 -14t156.5 -62q169 -106 169 -333q0 -249 -193 -370q-79 -50 -173.5 -66.5t-295.5 -16.5h-347zM487 190h76q155 0 242 66.5t87 184.5q0 230 -316 230h-89v-481z" />
<glyph unicode="&#x412;" horiz-adv-x="1290" d="M185 0v1480h503q223 0 339.5 -84t116.5 -245q0 -267 -355 -378q415 -101 415 -407q0 -177 -121.5 -271.5t-348.5 -94.5h-549zM481 210h60q194 0 267.5 41.5t73.5 151.5q0 113 -98.5 188t-248.5 75h-54v-456zM481 864h67q130 0 206.5 64t76.5 174q0 102 -61.5 138.5 t-232.5 36.5h-56v-413z" />
<glyph unicode="&#x413;" horiz-adv-x="1110" d="M185 0v1480h901v-209h-593v-1271h-308z" />
<glyph unicode="&#x414;" horiz-adv-x="1661" d="M62 210h115q298 408 298 1097v173h933v-1270h204v-506h-299v296h-952v-296h-299v506zM485 210h627v1076h-359v-25q0 -315 -73.5 -603t-194.5 -448z" />
<glyph unicode="&#x415;" horiz-adv-x="1230" d="M185 0v1480h925v-203h-617v-413h506v-204h-506v-450h664v-210h-972z" />
<glyph unicode="&#x416;" horiz-adv-x="1877" d="M49 0q67 114 161 332l40 92q84 194 146.5 258.5t191.5 92.5q-74 37 -115.5 86t-107.5 177l-29 57q-60 117 -102 155.5t-108 38.5v191q167 0 252.5 -58.5t173.5 -232.5l26 -52l39 -79q63 -126 92 -159t85 -46v627h289v-627q57 17 88.5 53t87.5 152q14 27 40 79l26 52 q89 175 174 233t252 58v-191q-67 0 -108 -38t-102 -156l-29 -57q-67 -130 -107.5 -178t-116.5 -85q130 -28 193 -93t146 -258l40 -92q92 -215 161 -332h-326l-14 31l-51 118q-126 293 -175 382t-110 137h-69v-668h-289v668h-69q-60 -48 -111.5 -141.5t-173.5 -377.5 l-51 -118q-2 -4 -14 -31h-326z" />
<glyph unicode="&#x417;" horiz-adv-x="1170" d="M65 17v221q236 -81 375 -81q144 0 227 67t83 184q0 149 -106.5 219.5t-332.5 70.5h-33v191h32q402 0 402 241q0 196 -284 196q-146 0 -339 -69v200q199 61 406 61q539 0 539 -353q0 -241 -282 -352q325 -95 325 -403q0 -206 -162.5 -326.5t-442.5 -120.5q-194 0 -407 54z " />
<glyph unicode="&#x418;" horiz-adv-x="1610" d="M185 0v1480h296v-1083l671 1083h273v-1480h-296v1084l-671 -1084h-273z" />
<glyph unicode="&#x419;" horiz-adv-x="1610" d="M185 0v1480h296v-1083l671 1083h273v-1480h-296v1084l-671 -1084h-273zM455 1925h210v-24q0 -168 123 -168q124 0 124 170v22h209q0 -170 -78.5 -245.5t-254.5 -75.5t-254.5 75.5t-78.5 245.5z" />
<glyph unicode="&#x41a;" horiz-adv-x="1391" d="M185 0v1480h296v-629q88 6 127 44.5t153 228.5l57 95q95 159 166 209t203 50q16 0 71 2v-191q-81 0 -114.5 -21.5t-86.5 -107.5l-40 -65l-43 -73l-43 -71q-69 -117 -201 -179q123 -30 194.5 -96t163.5 -237l41 -74l61 -118q56 -105 145 -247h-337q-22 45 -29 58l-66 117 l-82 152q-127 229 -223 339h-117v-666h-296z" />
<glyph unicode="&#x41b;" horiz-adv-x="1496" d="M19 0v218q152 11 212 105.5t71 339.5l12 262q4 79 4 273v282h993v-1480h-309v1277h-394v-117q0 -672 -67 -854q-58 -157 -173.5 -224.5t-348.5 -81.5z" />
<glyph unicode="&#x41c;" horiz-adv-x="1859" d="M185 0v1480h408l356 -1041l367 1041h358v-1480h-284v1117l-361 -1018h-248l-354 1033v-1132h-242z" />
<glyph unicode="&#x41d;" horiz-adv-x="1598" d="M185 0v1480h308v-601h612v601h308v-1480h-308v675h-612v-675h-308z" />
<glyph unicode="&#x41e;" horiz-adv-x="1686" d="M93 740q0 357 203 567t548 210q343 0 546.5 -210t203.5 -564q0 -362 -203.5 -571t-556.5 -209q-337 0 -539 212t-202 565zM420 741q0 -259 115 -416.5t303 -157.5q198 0 313.5 155.5t115.5 421.5q0 258 -116 414t-307 156q-193 0 -308.5 -156t-115.5 -417z" />
<glyph unicode="&#x41f;" horiz-adv-x="1598" d="M185 0v1480h1228v-1480h-309v1277h-611v-1277h-308z" />
<glyph unicode="&#x420;" horiz-adv-x="1256" d="M185 0v1480h516q270 0 385.5 -90.5t115.5 -302.5q0 -240 -154.5 -373.5t-432.5 -133.5h-128v-580h-302zM487 783h60q158 0 249.5 73.5t91.5 199.5q0 221 -281 221h-120v-494z" />
<glyph unicode="&#x421;" horiz-adv-x="1459" d="M93 740q0 374 204.5 575.5t583.5 201.5q242 0 481 -57v-241q-271 95 -454 95q-234 0 -361 -148.5t-127 -421.5q0 -268 136.5 -418t379.5 -150q218 0 440 110v-227q-215 -96 -513 -96q-364 0 -567 205t-203 572z" />
<glyph unicode="&#x422;" horiz-adv-x="1419" d="M25 1277v203h1369v-203h-530v-1277h-309v1277h-530z" />
<glyph unicode="&#x423;" horiz-adv-x="1405" d="M62 1480h331l360 -721h2l361 721h276l-538 -1075q-131 -263 -250 -360q-58 -47 -145 -64.5t-268 -17.5h-43v210h37q167 0 236.5 37.5t144.5 168.5l25 43z" />
<glyph unicode="&#x424;" horiz-adv-x="1576" d="M68 740q0 233 162 382t416 149v209h284v-209q254 0 416 -149t162 -382t-162 -381.5t-416 -148.5v-210h-284v210q-254 0 -416 148.5t-162 381.5zM352 740q0 -151 81.5 -245t212.5 -94v679q-131 0 -212.5 -94.5t-81.5 -245.5zM930 401q131 0 213 94t82 245t-82 245.5 t-213 94.5v-679z" />
<glyph unicode="&#x425;" horiz-adv-x="1366" d="M49 0l474 729l-453 751h359l301 -498l326 498h249l-454 -698l470 -782h-358l-321 529l-344 -529h-249z" />
<glyph unicode="&#x426;" horiz-adv-x="1660" d="M185 0v1480h308v-1270h612v1270h308v-1270h197v-506h-296v296h-1129z" />
<glyph unicode="&#x427;" horiz-adv-x="1413" d="M111 990v490h309v-484q0 -146 48.5 -206t166.5 -60q156 0 285 90v660h308v-1480h-308v596q-167 -90 -354 -90q-233 0 -344 118t-111 366z" />
<glyph unicode="&#x428;" horiz-adv-x="2009" d="M185 0v1480h296v-1270h375v1270h297v-1270h375v1270h296v-1480h-1639z" />
<glyph unicode="&#x429;" horiz-adv-x="2071" d="M185 0v1480h296v-1270h375v1270h297v-1270h375v1270h296v-1268h198v-508h-290v296h-1547z" />
<glyph unicode="&#x42a;" horiz-adv-x="1510" d="M19 1277v203h681v-618h98q208 0 295.5 -14.5t162.5 -61.5q171 -106 171 -333q0 -249 -195 -370q-79 -50 -174.5 -66.5t-297.5 -16.5h-369v1277h-372zM700 191h90q156 0 242.5 66t86.5 184q0 230 -331 230h-88v-480z" />
<glyph unicode="&#x42b;" horiz-adv-x="1844" d="M185 0v1480h302v-618h99q203 0 290 -14.5t162 -61.5q171 -106 171 -333q0 -249 -195 -370q-79 -50 -174.5 -66.5t-298.5 -16.5h-356zM487 191h91q155 0 242 66t87 184q0 230 -326 230h-94v-480zM1357 0v1480h302v-1480h-302z" />
<glyph unicode="&#x42c;" horiz-adv-x="1305" d="M185 0v1480h308v-618h99q208 0 295.5 -14t162.5 -62q171 -106 171 -333q0 -249 -195 -370q-79 -50 -174.5 -66.5t-298.5 -16.5h-368zM493 191h91q155 0 242 66t87 184q0 230 -332 230h-88v-480z" />
<glyph unicode="&#x42d;" horiz-adv-x="1242" d="M80 20v225q149 -72 289 -72q197 0 325 142t128 360h-496v198h496q-22 206 -138.5 329.5t-289.5 123.5q-120 0 -296 -64v198q174 58 354 58q334 0 515.5 -193.5t181.5 -551.5q0 -381 -191 -595.5t-530 -214.5q-173 0 -348 57z" />
<glyph unicode="&#x42e;" horiz-adv-x="2113" d="M185 0v1480h308v-644h205q74 681 659 681q316 0 489.5 -203.5t173.5 -573.5t-173.5 -573.5t-489.5 -203.5q-296 0 -463.5 173.5t-194.5 508.5h-206v-645h-308zM1008 740q0 -274 92.5 -433t251.5 -159q168 0 261 157t93 439q0 274 -93 431t-256 157t-256 -157.5 t-93 -434.5z" />
<glyph unicode="&#x42f;" horiz-adv-x="1360" d="M19 0q80 94 165 225l43 67l27 41l66 105q102 156 225 228q-176 39 -270.5 142.5t-94.5 256.5q0 199 146 322q71 59 156.5 76t306.5 17h387v-1480h-303v609h-95q-111 -124 -335 -548l-33 -61h-391zM487 1049q0 -248 331 -248h55v488h-75q-311 0 -311 -240z" />
<glyph unicode="&#x430;" horiz-adv-x="1204" d="M82 291q0 182 145.5 280.5t416.5 98.5h79v100q0 171 -195 171q-173 0 -350 -98v204q201 76 398 76q431 0 431 -343v-486q0 -129 79 -129q18 0 50 11v-173q-94 -28 -166 -28q-182 0 -234 143h-13q-148 -143 -317 -143q-144 0 -234 88t-90 228zM366 320q0 -61 41.5 -102.5 t102.5 -41.5q104 0 213 101v223h-70q-134 0 -210.5 -48t-76.5 -132z" />
<glyph unicode="&#x431;" horiz-adv-x="1298" d="M105 694q0 455 153.5 670t478.5 215h41q148 0 265 53v-190q-91 -48 -241 -48h-24q-190 0 -276 -119t-100 -400q138 211 376 211q200 0 315.5 -144t115.5 -391q0 -272 -147 -424t-409 -152q-284 0 -416 173.5t-132 545.5zM401 657q0 -232 69.5 -364.5t190.5 -132.5 q113 0 176.5 102.5t63.5 282.5q0 325 -214 325q-151 0 -285 -179z" />
<glyph unicode="&#x432;" horiz-adv-x="1217" d="M185 0v1098h434q443 0 443 -250q0 -201 -239 -274q283 -70 283 -293q0 -150 -105 -215.5t-343 -65.5h-473zM462 179h75q168 0 222 25.5t54 105.5q0 174 -264 174h-87v-305zM462 651h87q225 0 225 150q0 118 -220 118h-92v-268z" />
<glyph unicode="&#x433;" horiz-adv-x="1049" d="M185 0v1098h839v-210h-542v-888h-297z" />
<glyph unicode="&#x434;" horiz-adv-x="1440" d="M49 197h101q214 272 214 779v122h817v-901h185v-444h-284v247h-749v-247h-284v444zM459 197h438v713h-271v-12q0 -387 -167 -701z" />
<glyph unicode="&#x435;" horiz-adv-x="1200" d="M86 557q0 255 145.5 410.5t384.5 155.5q241 0 352 -152t111 -481h-681q30 -314 345 -314q149 0 336 69v-208q-211 -62 -400 -62q-275 0 -434 156t-159 426zM394 657h394q0 281 -181 281q-184 0 -213 -281z" />
<glyph unicode="&#x436;" horiz-adv-x="1617" d="M37 0q46 71 88 157q34 69 43 86l44 85q61 116 107 160t137 71q-118 45 -184 180l-19 41l-21 46q-39 83 -121 87v185q164 0 225.5 -39t113.5 -176l21 -57q43 -113 79.5 -145.5t121.5 -32.5v450h272v-450q84 0 121 32.5t80 145.5l21 57q51 137 113 176t226 39v-185 q-82 -4 -121 -87l-21 -46l-20 -41q-65 -135 -183 -180q90 -27 136.5 -71t107.5 -160l44 -85q9 -17 43 -86q41 -86 88 -157h-306q-14 26 -16 30l-46 94q-123 252 -200 345h-67v-469h-272v469h-67q-77 -93 -200 -345l-46 -94q-3 -4 -16 -30h-306z" />
<glyph unicode="&#x437;" horiz-adv-x="1038" d="M80 23v203q184 -63 325 -63q234 0 234 160q0 172 -312 172h-33v170h37q278 0 278 143q0 135 -221 135q-123 0 -289 -53v184q169 49 358 49q441 0 441 -272q0 -166 -205 -263q240 -74 240 -270q0 -156 -134 -249.5t-360 -93.5q-159 0 -359 48z" />
<glyph unicode="&#x438;" horiz-adv-x="1382" d="M185 0v1098h278v-755l438 755h296v-1098h-278v755l-438 -755h-296z" />
<glyph unicode="&#x439;" horiz-adv-x="1382" d="M185 0v1098h278v-755l438 755h296v-1098h-278v755l-438 -755h-296zM358 1604h209v-24q0 -167 124 -167q123 0 123 169v22h210q0 -170 -78.5 -245.5t-254.5 -75.5t-254.5 75.5t-78.5 245.5z" />
<glyph unicode="&#x43a;" horiz-adv-x="1231" d="M185 0v1098h277v-456q88 0 125.5 32t114.5 174l29 52q67 124 127 160.5t196 36.5l44 1v-185h-28q-53 0 -79 -19.5t-65 -91.5l-30 -54l-31 -56q-54 -97 -164 -133q96 -24 149 -72t124 -173l33 -59l56 -91l60 -101q10 -16 43 -63h-313q-19 34 -25 45l-46 85 q-124 230 -221 326h-99v-456h-277z" />
<glyph unicode="&#x43b;" horiz-adv-x="1280" d="M31 0v198q137 0 181 163q48 172 48 573v164h835v-1098h-296v901h-262v-18q0 -515 -105 -699t-401 -184z" />
<glyph unicode="&#x43c;" horiz-adv-x="1536" d="M185 0v1098h285l302 -759h2l277 759h300v-1098h-272v757h-1l-255 -683h-190l-237 614h-1v-688h-210z" />
<glyph unicode="&#x43d;" horiz-adv-x="1357" d="M185 0v1098h296v-424h395v424h296v-1098h-296v489h-395v-489h-296z" />
<glyph unicode="&#x43e;" d="M86 549q0 266 152.5 420t414.5 154q263 0 415.5 -154t152.5 -418q0 -270 -153 -423t-422 -153q-257 0 -408.5 155.5t-151.5 418.5zM401 549q0 -179 67 -284t183 -105q120 0 187.5 103.5t67.5 287.5q0 179 -67.5 283t-185.5 104q-117 0 -184.5 -104t-67.5 -285z" />
<glyph unicode="&#x43f;" horiz-adv-x="1357" d="M185 0v1098h987v-1098h-296v901h-395v-901h-296z" />
<glyph unicode="&#x440;" horiz-adv-x="1357" d="M185 -395v1493h296v-207q114 232 359 232q198 0 311.5 -145t113.5 -399q0 -276 -128 -440t-343 -164q-173 0 -313 136v-506h-296zM481 287q108 -120 230 -120q109 0 174 105.5t65 281.5q0 337 -217 337q-131 0 -252 -169v-435z" />
<glyph unicode="&#x441;" horiz-adv-x="1090" d="M86 550q0 269 157 421t434 152q134 0 309 -43v-214q-182 59 -291 59q-133 0 -214 -102t-81 -271q0 -173 87.5 -277t233.5 -104q133 0 274 58v-205q-184 -49 -341 -49q-263 0 -415.5 154.5t-152.5 420.5z" />
<glyph unicode="&#x442;" horiz-adv-x="1024" d="M18 901v197h987v-197h-345v-901h-297v901h-345z" />
<glyph unicode="&#x443;" horiz-adv-x="1192" d="M31 1098h291l298 -712l313 712h243l-472 -1079q-126 -289 -211 -351.5t-351 -62.5h-32v198h28q116 0 175.5 27t93.5 95l40 83l20 41z" />
<glyph unicode="&#x444;" horiz-adv-x="1765" d="M105 546q0 244 118.5 404.5t298.5 160.5q152 0 225 -99v567h271v-567q72 99 224 99q181 0 299.5 -160.5t118.5 -404.5q0 -243 -116 -400.5t-296 -157.5q-138 0 -230 98v-481h-271v481q-93 -98 -231 -98q-179 0 -295 157.5t-116 400.5zM389 545q0 -159 60.5 -256.5 t160.5 -97.5q58 0 137 52v616q-71 48 -134 48q-95 0 -159.5 -104.5t-64.5 -257.5zM1018 243q79 -52 137 -52q99 0 160 97.5t61 256.5q0 153 -64.5 257.5t-160.5 104.5q-62 0 -133 -48v-616z" />
<glyph unicode="&#x445;" horiz-adv-x="1210" d="M68 0l377 551l-361 547h337l236 -348l226 348h240l-344 -539l369 -559h-337l-246 363l-252 -363h-245z" />
<glyph unicode="&#x446;" horiz-adv-x="1431" d="M185 0v1098h297v-901h394v901h296v-901h185v-444h-283v247h-889z" />
<glyph unicode="&#x447;" horiz-adv-x="1206" d="M102 827v271h296v-308q0 -144 32.5 -193t127.5 -49q85 0 167 42v508h296v-1098h-296v413q-132 -49 -257 -49q-212 0 -289 97.5t-77 365.5z" />
<glyph unicode="&#x448;" horiz-adv-x="1875" d="M185 0v1098h284v-901h327v901h283v-901h327v901h284v-1098h-1505z" />
<glyph unicode="&#x449;" horiz-adv-x="1949" d="M185 0v1098h284v-901h327v901h283v-901h327v901h284v-901h185v-444h-284v247h-1406z" />
<glyph unicode="&#x44a;" horiz-adv-x="1274" d="M25 901v197h549v-404h123q261 0 377.5 -80t116.5 -260q0 -185 -126.5 -269.5t-403.5 -84.5h-383v901h-253zM574 185h88q233 0 233 167q0 87 -51.5 122t-178.5 35h-91v-324z" />
<glyph unicode="&#x44b;" horiz-adv-x="1708" d="M185 0v1098h290v-404h116q261 0 378 -80t117 -260q0 -185 -126.5 -269.5t-403.5 -84.5h-371zM475 185h87q234 0 234 167q0 87 -51.5 122t-178.5 35h-91v-324zM1234 0v1098h289v-1098h-289z" />
<glyph unicode="&#x44c;" horiz-adv-x="1181" d="M185 0v1098h296v-404h123q260 0 377 -80t117 -260q0 -185 -126.5 -269.5t-403.5 -84.5h-383zM481 185h88q233 0 233 167q0 87 -51.5 122t-178.5 35h-91v-324z" />
<glyph unicode="&#x44d;" horiz-adv-x="1104" d="M74 28v208q144 -69 317 -69q141 0 229 80.5t101 221.5h-387v185h387q0 135 -80 209.5t-223 74.5q-148 0 -307 -77v206q165 56 349 56q558 0 558 -549q0 -294 -154 -446.5t-451 -152.5q-178 0 -339 53z" />
<glyph unicode="&#x44e;" horiz-adv-x="1790" d="M185 0v1098h284v-456h178q50 481 526 481q254 0 392 -149t138 -425q0 -275 -138 -424.5t-392 -149.5q-234 0 -368.5 123.5t-156.5 357.5h-179v-456h-284zM944 555q0 -394 229 -394q228 0 228 388q0 389 -228 389q-229 0 -229 -383z" />
<glyph unicode="&#x44f;" horiz-adv-x="1163" d="M31 0q71 106 127 212l25 49q107 202 202 240q-234 77 -234 289q0 187 167 267q86 41 356 41h304v-1098h-284v426h-109q-60 -67 -119 -182l-56 -110l-50 -97q-6 -12 -18 -37h-311zM435 759q0 -167 206 -167h53v333h-58q-201 0 -201 -166z" />
<glyph unicode="&#x451;" horiz-adv-x="1200" d="M86 557q0 255 145.5 410.5t384.5 155.5q241 0 352 -152t111 -481h-681q30 -314 345 -314q149 0 336 69v-208q-211 -62 -400 -62q-275 0 -434 156t-159 426zM289 1283v222h222v-222h-222zM394 657h394q0 281 -181 281q-184 0 -213 -281zM709 1283v222h222v-222h-222z" />
<glyph unicode="&#x452;" horiz-adv-x="1345" d="M12 1147v173h173v259h296v-259h395v-173h-395v-441q144 232 375 232q147 0 231.5 -93t84.5 -254v-652q0 -359 -364 -359q-80 0 -166 21v191q62 -27 116 -27q66 0 92 39.5t26 140.5v573q0 187 -124 187q-140 0 -271 -199v-506h-296v1147h-173z" />
<glyph unicode="&#x453;" horiz-adv-x="1049" d="M185 0v1098h839v-210h-542v-888h-297zM482 1283l240 321h272l-321 -321h-191z" />
<glyph unicode="&#x454;" horiz-adv-x="1104" d="M86 560q0 273 151 418t435 145q165 0 334 -46v-202q-164 63 -313 63q-295 0 -308 -278h386v-185h-386q30 -315 343 -315q156 0 302 68v-196q-163 -57 -368 -57q-576 0 -576 585z" />
<glyph unicode="&#x455;" horiz-adv-x="1158" d="M156 35v217q220 -92 376 -92q182 0 182 124q0 80 -150 140l-100 40q-163 66 -233 142t-70 188q0 156 119 242.5t333 86.5q134 0 319 -39v-208q-178 62 -295 62q-184 0 -184 -114q0 -75 136 -127l86 -33q193 -73 268.5 -148t75.5 -193q0 -155 -128.5 -251.5t-334.5 -96.5 q-198 0 -400 60z" />
<glyph unicode="&#x456;" horiz-adv-x="666" d="M185 0v1098h296v-1098h-296zM185 1283v247h296v-247h-296z" />
<glyph unicode="&#x457;" horiz-adv-x="666" d="M12 1283v222h222v-222h-222zM184 0v1098h296v-1098h-296zM431 1283v222h222v-222h-222z" />
<glyph unicode="&#x458;" horiz-adv-x="694" d="M25 -223q39 -12 69 -12q71 0 95 47t24 188v1098h296v-1098q0 -419 -354 -419q-61 0 -130 14v182zM213 1283v247h296v-247h-296z" />
<glyph unicode="&#x459;" horiz-adv-x="1786" d="M31 0v198q137 0 182 163q47 172 47 573v164h832v-404h123q258 0 373 -80.5t115 -259.5q0 -185 -125 -269.5t-399 -84.5h-376v901h-272v-18q0 -514 -104.5 -698.5t-395.5 -184.5zM1092 185h88q233 0 233 167q0 87 -51.5 122t-178.5 35h-91v-324z" />
<glyph unicode="&#x45a;" horiz-adv-x="1829" d="M185 0v1098h290v-404h370v404h290v-404h116q261 0 378 -80t117 -260q0 -185 -126.5 -269.5t-403.5 -84.5h-371v509h-370v-509h-290zM1135 185h87q234 0 234 167q0 87 -51.5 122t-178.5 35h-91v-324z" />
<glyph unicode="&#x45b;" horiz-adv-x="1345" d="M12 1147v173h173v247h296v-247h395v-173h-395v-441q144 232 375 232q147 0 231.5 -93t84.5 -254v-591h-296v518q0 187 -124 187q-140 0 -271 -199v-506h-296v1147h-173z" />
<glyph unicode="&#x45c;" horiz-adv-x="1231" d="M185 0v1098h277v-456q88 0 125.5 32t114.5 174l29 52q67 124 127 160.5t196 36.5l44 1v-185h-28q-53 0 -79 -19.5t-65 -91.5l-30 -54l-31 -56q-54 -97 -164 -133q96 -24 149 -72t124 -173l33 -59l56 -91l60 -101q10 -16 43 -63h-313q-19 34 -25 45l-46 85 q-124 230 -221 326h-99v-456h-277zM487 1283l241 321h271l-321 -321h-191z" />
<glyph unicode="&#x45e;" horiz-adv-x="1192" d="M31 1098h291l298 -712l313 712h243l-472 -1079q-126 -289 -211 -351.5t-351 -62.5h-32v198h28q116 0 175.5 27t93.5 95l40 83l20 41zM287 1604h209v-24q0 -167 124 -167q123 0 123 169v22h210q0 -170 -78.5 -245.5t-254.5 -75.5t-254.5 75.5t-78.5 245.5z" />
<glyph unicode="&#x45f;" horiz-adv-x="1357" d="M185 0v1098h297v-901h394v901h296v-1098h-351v-247h-284v247h-352z" />
<glyph unicode="&#x5d0;" horiz-adv-x="1342" d="M109 1049l236 172q235 -186 497 -494q60 104 79.5 182t19.5 214v74h277v-58q0 -338 -227 -585q164 -198 283 -414l-223 -165q-198 356 -538 700q-121 -188 -121 -574v-101h-277v33q0 257 54 440.5t182 362.5l-45 43q-109 102 -197 170z" />
<glyph unicode="&#x5d1;" horiz-adv-x="1236" d="M108 0v296h664v284q0 232 -39 276.5t-244 44.5h-381v296h424q301 0 402 -88q60 -51 78.5 -127.5t18.5 -265.5v-420h149v-296h-1072z" />
<glyph unicode="&#x5d2;" horiz-adv-x="952" d="M41 222q224 109 459 305l-25 159q-22 137 -64.5 186.5t-187.5 107.5l-57 23l112 218q246 -81 337 -162q60 -54 82.5 -118t54.5 -274l39 -256q43 -282 85 -411h-279q-27 107 -57 284q-148 -149 -397 -309z" />
<glyph unicode="&#x5d3;" horiz-adv-x="1150" d="M79 901v296h950v-296h-148v-901h-259v901h-543z" />
<glyph unicode="&#x5d4;" horiz-adv-x="1524" d="M99 901v296h764q302 0 403 -88q59 -51 78 -127.5t19 -265.5v-716h-259v580q0 232 -39 276.5t-245 44.5h-721zM234 0v642h259v-642h-259z" />
<glyph unicode="&#x5d5;" horiz-adv-x="763" d="M16 978l128 243q235 -43 338 -135q68 -61 91.5 -144t23.5 -266v-676h-259v614q0 185 -61.5 254.5t-260.5 109.5z" />
<glyph unicode="&#x5d6;" horiz-adv-x="866" d="M16 964l110 257l710 -302l-107 -260l-200 87q-72 -90 -72 -253v-493h-259v449q0 226 131 382z" />
<glyph unicode="&#x5d7;" horiz-adv-x="1500" d="M57 901v296h784q301 0 402 -88q59 -51 78 -127.5t19 -265.5v-716h-259v580q0 232 -39 276.5t-245 44.5h-333v-901h-259v901h-148z" />
<glyph unicode="&#x5d8;" horiz-adv-x="1331" d="M65 1197h262l112 -901q256 0 408.5 117.5t152.5 315.5q0 215 -231 215q-63 0 -134 -20l90 279q75 19 143 19q184 0 287.5 -110.5t103.5 -307.5q0 -219 -134 -411t-364 -301q-193 -92 -545 -92z" />
<glyph unicode="&#x5d9;" horiz-adv-x="742" d="M43 972l134 249q245 -49 341.5 -134.5t96.5 -252.5q0 -105 -48 -320l-26 -113h-260q70 256 70 366q0 79 -69 125t-239 80z" />
<glyph unicode="&#x5da;" horiz-adv-x="1093" d="M71 901v296h850v-1493h-259v1197h-591z" />
<glyph unicode="&#x5db;" horiz-adv-x="1158" d="M102 0v296h609q82 192 82 324q0 159 -73 220t-263 61h-322v296h400q171 0 263 -30t156 -107q102 -122 102 -344q0 -178 -94 -420l-96 -296h-764z" />
<glyph unicode="&#x5dc;" horiz-adv-x="1140" d="M95 901v703h259v-407h260q240 0 334.5 -69t94.5 -243q0 -330 -253 -586t-646 -324l102 302q196 22 316 117q187 148 187 358q0 87 -61.5 118t-236.5 31h-356z" />
<glyph unicode="&#x5dd;" horiz-adv-x="1476" d="M58 901v296h758q302 0 403 -88q59 -51 78 -127.5t19 -265.5v-420l-99 -296h-1011v901h-148zM465 296h592v284q0 233 -39 277t-245 44h-308v-605z" />
<glyph unicode="&#x5de;" horiz-adv-x="1354" d="M34 1087l231 134q110 -92 188 -251q160 251 384 251q169 0 270 -128.5t120 -368.5l34 -428l-98 -296h-528v296h364l-23 307q-24 322 -211 322q-108 0 -181.5 -107.5t-140.5 -362.5l-120 -455h-271l145 556q40 153 40 211q0 119 -203 320z" />
<glyph unicode="&#x5df;" horiz-adv-x="755" d="M13 1000l119 221q180 -54 318 -155q80 -59 109 -144t29 -263v-955h-259v914q0 195 -69 252q-100 84 -247 130z" />
<glyph unicode="&#x5e0;" horiz-adv-x="909" d="M94 0v296h389v389q0 158 -68 206q-90 65 -244 110l118 220q167 -41 300 -119q88 -51 120.5 -125t32.5 -221v-460l-98 -296h-550z" />
<glyph unicode="&#x5e1;" horiz-adv-x="1425" d="M29 901v296h794q202 0 286 -15t133 -60q85 -76 85 -241q0 -220 -127.5 -425t-342.5 -330q-217 -126 -568 -126l-112 901h-148zM436 901l75 -605q224 17 336 98q186 135 186 354q0 90 -63 121.5t-247 31.5h-287z" />
<glyph unicode="&#x5e2;" horiz-adv-x="1283" d="M-49 -178l100 299q160 0 344 54l-229 1022h268l203 -908q157 119 218.5 296t61.5 507v105h278v-74q0 -383 -117.5 -639t-370.5 -425q-355 -237 -756 -237z" />
<glyph unicode="&#x5e3;" horiz-adv-x="1168" d="M31 676q0 91 46 226l39 112l71 207l459 -111q222 -53 289 -138t67 -312v-956h-259v802q0 188 -37 239t-206 95l-192 50l-15 -46q-15 -45 -15 -69q0 -113 184 -122l-88 -261q-159 11 -251 87.5t-92 196.5z" />
<glyph unicode="&#x5e4;" horiz-adv-x="1218" d="M82 0v271h711v266q0 187 -37.5 241.5t-192.5 95.5l-191 50l-15 -43q-13 -39 -13 -66q0 -97 168 -110l-70 -208q-336 31 -336 258q0 88 73 293l62 173l455 -111q222 -54 289 -138.5t67 -311.5v-389l-91 -271h-879z" />
<glyph unicode="&#x5e5;" horiz-adv-x="1083" d="M0 1197h285l250 -571q122 96 171.5 209t49.5 292v70h278v-49q0 -489 -437 -745v-699h-259v527q0 139 -11 194.5t-65 177.5z" />
<glyph unicode="&#x5e6;" horiz-adv-x="1202" d="M77 0v265h581q-369 356 -554 855l262 101q109 -312 317 -568q141 173 141 415v129h277v-84q0 -380 -260 -623q149 -154 268 -226l-88 -264h-944z" />
<glyph unicode="&#x5e7;" horiz-adv-x="1412" d="M93 901v296h744q191 0 269 -17t131 -70q77 -78 77 -225q0 -292 -215 -546t-554 -363l106 318q160 45 265.5 175.5t105.5 280.5q0 90 -62.5 120.5t-250.5 30.5h-616zM205 -296v935h259v-935h-259z" />
<glyph unicode="&#x5e8;" horiz-adv-x="1118" d="M86 901v296h371q301 0 402 -88q60 -51 78.5 -127.5t18.5 -265.5v-716h-259v580q0 233 -39 277t-244 44h-328z" />
<glyph unicode="&#x5e9;" horiz-adv-x="1473" d="M68 1197h263l72 -568q109 27 153 127.5t44 320.5v120h278v-110q0 -298 -108.5 -452t-343.5 -191l18 -148q261 0 417 87q273 152 273 693v121h277v-100q0 -539 -303.5 -818t-889.5 -279z" />
<glyph unicode="&#x5ea;" horiz-adv-x="1472" d="M34 0l99 296h258q-79 203 -79 498v107h-149l99 296h549q301 0 402 -88q60 -51 79 -127t19 -266v-716h-259v580q0 232 -39 276.5t-245 44.5h-196v-88q0 -322 92 -517l-98 -296h-532z" />
<glyph unicode="&#x2013;" horiz-adv-x="1024" d="M86 537v160h851v-160h-851z" />
<glyph unicode="&#x2014;" horiz-adv-x="2048" d="M80 537v123h1888v-123h-1888z" />
<glyph unicode="&#x2018;" horiz-adv-x="506" d="M93 938v248q0 393 321 393v-111q-56 0 -90 -48.5t-34 -129.5v-32h124v-320h-321z" />
<glyph unicode="&#x2019;" horiz-adv-x="506" d="M93 938v111q56 0 89.5 48.5t33.5 129.5v31h-123v321h321v-248q0 -393 -321 -393z" />
<glyph unicode="&#x201a;" horiz-adv-x="506" d="M93 0v321h321v-249q0 -393 -321 -393v111q56 0 89.5 49t33.5 129v32h-123z" />
<glyph unicode="&#x201c;" horiz-adv-x="925" d="M93 962v224q0 181 75 280.5t221 112.5v-111q-111 -31 -111 -178v-32h111v-296h-296zM537 962v224q0 181 75 280.5t221 112.5v-111q-111 -31 -111 -178v-32h111v-296h-296z" />
<glyph unicode="&#x201d;" horiz-adv-x="925" d="M93 962v111q111 32 111 179v31h-111v296h296v-223q0 -182 -75 -281.5t-221 -112.5zM537 962v111q111 32 111 179v31h-111v296h296v-223q0 -182 -74.5 -281.5t-221.5 -112.5z" />
<glyph unicode="&#x201e;" horiz-adv-x="925" d="M93 0v296h296v-223q0 -182 -75 -281.5t-221 -112.5v111q111 32 111 179v31h-111zM537 0v296h296v-223q0 -182 -75 -281.5t-221 -112.5v111q111 32 111 179v31h-111z" />
<glyph unicode="&#x2020;" d="M179 777v222l352 -24l-25 505h296l-25 -505l352 24v-222l-352 25l25 -1098h-296l25 1098z" />
<glyph unicode="&#x2021;" d="M179 185v222l352 -25v420l-352 -25v222l352 -24l-25 505h296l-25 -505l352 24v-222l-352 25v-420l352 25v-222l-352 25l25 -506h-296l25 506z" />
<glyph unicode="&#x2022;" horiz-adv-x="1277" d="M145 641q0 205 144.5 349.5t348.5 144.5q206 0 350 -145t144 -352q0 -204 -146.5 -347t-355.5 -143q-198 0 -341.5 146t-143.5 347z" />
<glyph unicode="&#x2026;" horiz-adv-x="2048" d="M231 0v222h222v-222h-222zM913 0v222h222v-222h-222zM1596 0v222h222v-222h-222z" />
<glyph unicode="&#x2030;" horiz-adv-x="2381" d="M25 1110q0 173 94 271.5t258 98.5q163 0 257 -98.5t94 -270.5q0 -174 -94 -272.5t-261 -98.5q-161 0 -254.5 99.5t-93.5 270.5zM120 -37l1164 1554h200l-1163 -1554h-201zM247 1110q0 -222 128 -222q131 0 131 223q0 221 -129 221q-130 0 -130 -222zM876 370 q0 173 94 271.5t258 98.5t257.5 -98.5t93.5 -270.5q0 -175 -94 -273t-261 -98q-161 0 -254.5 99.5t-93.5 270.5zM1098 370q0 -222 128 -222q131 0 131 223q0 221 -129 221q-130 0 -130 -222zM1654 370q0 173 93.5 271.5t257.5 98.5t258 -98.5t94 -270.5q0 -175 -94.5 -273 t-261.5 -98q-161 0 -254 99.5t-93 270.5zM1876 370q0 -222 127 -222q132 0 132 223q0 221 -130 221q-129 0 -129 -222z" />
<glyph unicode="&#x2039;" horiz-adv-x="709" d="M86 549l416 444l139 -105l-262 -339l262 -339l-139 -105z" />
<glyph unicode="&#x203a;" horiz-adv-x="709" d="M68 210l262 339l-262 339l139 105l416 -444l-416 -444z" />
<glyph unicode="&#x20ac;" d="M12 481l72 173h76q-3 46 -3 89q0 58 5 108h-150l72 173h113q158 494 712 494q182 0 346 -46v-218q-154 67 -327 67q-332 0 -427 -297h659l-72 -173h-630q-5 -32 -5 -86q0 -62 4 -111h549l-71 -173h-440q71 -180 173 -250.5t291 -70.5q135 0 296 64v-205 q-153 -56 -364 -56q-555 0 -702 518h-177z" />
<glyph unicode="&#x2122;" horiz-adv-x="1764" d="M25 1308v172h716v-172h-235v-568h-247v568h-234zM839 740v740h293l125 -384l140 384h269v-740h-247v460l-133 -401h-143l-125 379v-438h-179z" />
<glyph unicode="&#x2202;" d="M170 320q0 269 175 498t380 229q98 0 207 -77v33q0 175 -108.5 285.5t-279.5 110.5q-162 0 -341 -124q89 176 190.5 252.5t247.5 76.5q219 0 348.5 -180.5t129.5 -485.5q0 -193 -60 -394.5t-158 -336.5q-167 -232 -417 -232q-145 0 -229.5 93t-84.5 252zM481 341 q0 -133 95 -133q114 0 212 160t132 402q-63 72 -140 72q-110 0 -204.5 -158t-94.5 -343z" />
<glyph unicode="&#x2206;" horiz-adv-x="1804" d="M173 0v256l593 1224h294l572 -1224v-256h-1459zM408 256h897l-442 951z" />
<glyph unicode="&#x220f;" horiz-adv-x="1628" d="M111 1277v203h1406v-203h-148v-1277h-308v1277h-494v-1277h-308v1277h-148z" />
<glyph unicode="&#x2211;" horiz-adv-x="1629" d="M148 0v256l523 523l-498 498v203h1270v-203h-853l437 -438l-583 -583h1036v-256h-1332z" />
<glyph unicode="&#x221a;" horiz-adv-x="1517" d="M123 435l361 207l366 -640l542 1627h188l-641 -1925h-195l-387 652l-138 -80z" />
<glyph unicode="&#x221e;" horiz-adv-x="1740" d="M123 562q0 196 112 335.5t269 139.5q207 0 396 -265q177 264 369 264q147 0 247 -119t100 -293q0 -204 -109.5 -340t-272.5 -136q-175 0 -400 244q-155 -244 -355 -244q-155 0 -255.5 116.5t-100.5 297.5zM318 540q0 -96 44 -153t118 -57q58 0 104 41t131 169 q-162 216 -266 216q-57 0 -94 -61t-37 -155zM1019 614q158 -200 263 -200q148 0 148 223q0 87 -46.5 146t-114.5 59q-65 0 -113.5 -44.5t-136.5 -183.5z" />
<glyph unicode="&#x222b;" d="M227 -119q0 60 35 102t85 42q112 0 112 -105q0 -23 -15 -52q56 19 78 59.5t22 121.5q0 48 -8 126q-30 310 -30 378l-3 196q0 417 101 588q107 181 279 181q84 0 141.5 -53t57.5 -130q0 -151 -123 -151q-108 0 -108 103q0 20 11 60q-102 -46 -102 -178q0 -48 8 -120 q23 -210 32 -352l12 -197q22 -346 -87.5 -571t-299.5 -225q-84 0 -141 51t-57 126z" />
<glyph unicode="&#x2248;" horiz-adv-x="1629" d="M271 234q0 172 73 270t202 98q83 0 242 -82l120 -63l98 -52q34 -16 70 -16q108 0 108 169v16h173q0 -174 -72 -272t-200 -98q-86 0 -255 87l-123 63l-93 49q-30 14 -60 14q-110 0 -110 -183h-173zM271 654q0 172 73 270t202 98q83 0 242 -83l120 -62l98 -52 q34 -17 70 -17q48 0 78 47t30 123v15h173q0 -174 -72 -272t-200 -98q-86 0 -255 87l-123 63l-93 49q-30 14 -61 14q-109 0 -109 -182h-173z" />
<glyph unicode="&#x2260;" horiz-adv-x="1628" d="M222 309v172h477l75 222h-552v173h609l86 259h156l-86 -259h419v-173h-476l-74 -222h550v-172h-608l-87 -260h-156l87 260h-420z" />
<glyph unicode="&#x2264;" horiz-adv-x="1628" d="M222 0v185h1184v-185h-1184zM222 888l1184 593v-193l-796 -399v-2l796 -398v-193z" />
<glyph unicode="&#x2265;" horiz-adv-x="1628" d="M222 0v185h1184v-185h-1184zM222 296v193l796 398v2l-796 399v193l1184 -593z" />
<glyph unicode="&#x25ca;" d="M111 543l543 543l543 -543l-543 -543zM369 543l285 -285l285 285l-285 285z" />
<glyph unicode="&#x25fc;" horiz-adv-x="1100" d="M0 0v1100h1100v-1100h-1100z" />
<glyph unicode="&#xfb01;" horiz-adv-x="1388" d="M65 913v185h151v76q0 207 98.5 318.5t280.5 111.5q112 0 238 -41v-202q-124 55 -184 55q-137 0 -137 -250v-68h691v-1098h-296v913h-395v-913h-296v913h-151zM956 1283v247h247v-247h-247z" />
<glyph unicode="&#xfb02;" horiz-adv-x="1388" d="M65 913v185h151v69q0 437 418 437q106 0 264 -25h305v-1579h-296v1387q-86 34 -171 34q-224 0 -224 -230v-93h253v-185h-253v-913h-296v913h-151z" />
</font>
</defs>
</svg>
