<?xml version="1.0" encoding="utf-8"?>
<!-- Generator: Adobe Illustrator 19.1.0, SVG Export Plug-In . SVG Version: 6.00 Build 0)  -->
<svg version="1.1" id="Layer_1" xmlns="http://www.w3.org/2000/svg" xmlns:xlink="http://www.w3.org/1999/xlink" x="0px" y="0px"
	 viewBox="0 0 169 159" style="enable-background:new 0 0 169 159;" xml:space="preserve">
<style type="text/css">
	.st0{fill:#010101;}
</style>
<path class="st0" d="M164.2,71.6L95.6,3c-4.2-4.2-11-4.2-15.3,0c-4.2,4.2-4.2,11,0,15.3l50.2,50.2H11.4c-6,0-10.8,4.8-10.8,10.8
	s4.8,10.8,10.8,10.8h119.1l-50.2,50.2c-4.2,4.2-4.2,11,0,15.3c2.1,2.1,4.9,3.2,7.6,3.2c2.7,0,5.5-1,7.6-3.2L164.1,87
	C168.5,82.7,168.5,75.8,164.2,71.6L164.2,71.6z"/>
</svg>
