<?xml version="1.0" encoding="utf-8"?>
<!-- Generator: Adobe Illustrator 19.1.0, SVG Export Plug-In . SVG Version: 6.00 Build 0)  -->
<svg version="1.1" id="Layer_1" xmlns="http://www.w3.org/2000/svg" xmlns:xlink="http://www.w3.org/1999/xlink" x="0px" y="0px"
	 viewBox="0 0 31 31" style="enable-background:new 0 0 31 31;" xml:space="preserve">
<style type="text/css">
	.st0{fill:#010101;}
</style>
<g>
	<path class="st0" d="M31,15.6C31,7,24.1,0.1,15.5,0.1S0,7,0,15.6s6.9,15.5,15.5,15.5C24,31.1,31,24.2,31,15.6L31,15.6z M1.4,15.6
		c0-7.8,6.3-14.1,14.1-14.1s14.1,6.3,14.1,14.1c0,7.8-6.3,14.1-14.1,14.1S1.4,23.4,1.4,15.6L1.4,15.6z"/>
	<path class="st0" d="M16.1,24.6v-8.9H19l0.5-3h-3.4v-1.5c0-0.8,0.3-1.5,1.4-1.5h2.2v-3h-3.1c-2.6,0-3.4,1.7-3.4,4.2v1.8h-1.9v3h1.8
		v8.9H16.1z"/>
</g>
</svg>
