<?xml version="1.0" encoding="utf-8"?>
<!-- Generator: Adobe Illustrator 19.1.0, SVG Export Plug-In . SVG Version: 6.00 Build 0)  -->
<svg version="1.1" id="Layer_1" xmlns="http://www.w3.org/2000/svg" xmlns:xlink="http://www.w3.org/1999/xlink" x="0px" y="0px"
	 viewBox="0 0 31 31" style="enable-background:new 0 0 31 31;" xml:space="preserve">
<style type="text/css">
	.st0{fill:#010101;}
</style>
<g>
	<g>
		<path class="st0" d="M8.6,15.5c0-3.8,3.1-6.9,6.9-6.9c1.5,0,3,0.5,4.2,1.4l-1.6,2.1c-0.8-0.6-1.7-0.9-2.6-0.9
			c-2.4,0-4.3,1.9-4.3,4.3s1.9,4.3,4.3,4.3c1.9,0,3.5-1.2,4.1-3h-4.1v-2.6h6.9v1.3c0,3.8-3.1,6.9-6.9,6.9
			C11.7,22.4,8.6,19.3,8.6,15.5L8.6,15.5z"/>
	</g>
	<path class="st0" d="M31,15.5C31,6.9,24.1,0,15.5,0S0,6.9,0,15.5S6.9,31,15.5,31C24,31,31,24.1,31,15.5L31,15.5z M1.4,15.5
		c0-7.8,6.3-14.1,14.1-14.1s14.1,6.3,14.1,14.1c0,7.8-6.3,14.1-14.1,14.1S1.4,23.3,1.4,15.5L1.4,15.5z"/>
</g>
</svg>
