<?xml version="1.0" encoding="utf-8"?>
<!-- Generator: Adobe Illustrator 19.1.0, SVG Export Plug-In . SVG Version: 6.00 Build 0)  -->
<svg version="1.1" id="Capa_1" xmlns="http://www.w3.org/2000/svg" xmlns:xlink="http://www.w3.org/1999/xlink" x="0px" y="0px"
	 viewBox="-14 17.5 369.5 369.5" style="enable-background:new -14 17.5 369.5 369.5;" xml:space="preserve">
<path d="M327.7,63.5l-2.2-2.5c-18.2-20.2-42.6-31.3-68.6-31.3S206.5,40.8,188.2,61l-17.5,19.4L153.2,61
	C135,40.8,110.6,29.7,84.6,29.7c-26,0-50.4,11.1-68.6,31.3l-2.2,2.5C-4.1,83.3-14,109.6-14,137.5c0,27.9,9.9,54.2,27.8,74.1
	c0,0,0.1,0.1,0.1,0.1l147.7,159.2c2.4,2.5,5.7,4,9.2,4c3.5,0,6.8-1.5,9.2-4l147.7-159.2c0,0,0.1-0.1,0.1-0.1
	c17.9-19.8,27.8-46.1,27.8-74.1C355.5,109.6,345.6,83.3,327.7,63.5z M78,89.5c-0.1-0.1-0.2-0.1-0.3-0.2c0.8-0.1,1.6-0.3,2.4-0.4
	c0,0,0,0,0.1,0C79.4,89.1,78.7,89.3,78,89.5z M133.4,98.9c0-0.3,0-0.5,0-0.8c0.4,0.3,0.8,0.5,1.2,0.7
	C134.2,98.9,133.8,98.9,133.4,98.9z M178.2,262.1c0.1-0.2,0.2-0.4,0.3-0.6c0.2-0.1,0.5-0.3,0.7-0.4c0.1,0,0.2,0,0.3,0
	c0.1,0.1,0.1,0.1,0.2,0.2C179.2,261.5,178.7,261.8,178.2,262.1z M195.2,91.4c-0.3,0.1-0.6,0.1-0.9,0.2l0.6-0.7
	c0.3,0,0.5-0.1,0.8-0.1C195.5,91,195.3,91.2,195.2,91.4z M287,159.7c0.1-0.1,0.3-0.2,0.4-0.4c1.3,0.1,2.6,0.2,3.9,0.3
	c0,0.1,0.1,0.2,0.1,0.2C290,159.7,288.5,159.7,287,159.7z M299.7,77.3c-0.2-0.4-0.4-0.7-0.6-1.1c0.2,0,0.5,0.1,0.7,0.1
	C299.7,76.7,299.7,77,299.7,77.3C299.7,77.3,299.7,77.3,299.7,77.3z"/>
</svg>
