<?xml version="1.0" encoding="utf-8"?>
<!-- Generator: Adobe Illustrator 19.1.0, SVG Export Plug-In . SVG Version: 6.00 Build 0)  -->
<svg version="1.1" id="Layer_1" xmlns="http://www.w3.org/2000/svg" xmlns:xlink="http://www.w3.org/1999/xlink" x="0px" y="0px"
	 viewBox="0 0 31 31" style="enable-background:new 0 0 31 31;" xml:space="preserve">
<style type="text/css">
	.st0{fill:#010101;}
</style>
<g>
	<g>
		<path class="st0" d="M19.8,12.1c-1.7,0-2.4,0.9-2.8,1.6v-1.3h-3.2c0,0.9,0,9.5,0,9.5H17v-5.3c0-0.3,0-0.6,0.1-0.8
			c0.2-0.6,0.7-1.2,1.6-1.2c1.1,0,1.6,0.9,1.6,2.1v5.1h3.2v-5.4C23.4,13.5,21.9,12.1,19.8,12.1L19.8,12.1z M17,13.7L17,13.7L17,13.7
			L17,13.7z"/>
		<rect x="8.9" y="12.4" class="st0" width="3.2" height="9.5"/>
		<path class="st0" d="M10.5,7.8c-1.1,0-1.8,0.7-1.8,1.6S9.4,11,10.4,11l0,0c1.1,0,1.8-0.7,1.8-1.6C12.3,8.5,11.6,7.8,10.5,7.8
			L10.5,7.8z"/>
	</g>
	<path class="st0" d="M31,15.5C31,6.9,24.1,0,15.5,0S0,6.9,0,15.5S6.9,31,15.5,31S31,24.1,31,15.5L31,15.5z M1.5,15.5
		c0-7.8,6.3-14.1,14.1-14.1s14.1,6.3,14.1,14.1c0,7.8-6.3,14.1-14.1,14.1S1.5,23.3,1.5,15.5L1.5,15.5z"/>
</g>
</svg>
