<?xml version="1.0" encoding="utf-8"?>
<!-- Generator: Adobe Illustrator 19.1.0, SVG Export Plug-In . SVG Version: 6.00 Build 0)  -->
<svg version="1.1" id="Layer_1" xmlns="http://www.w3.org/2000/svg" xmlns:xlink="http://www.w3.org/1999/xlink" x="0px" y="0px"
	 viewBox="0 0 1190.6 841.9" style="enable-background:new 0 0 1190.6 841.9;" xml:space="preserve">
<style type="text/css">
	.st0{stroke:#000000;stroke-miterlimit:10;}
	.st1{fill:#1E201D;stroke:#000000;stroke-miterlimit:10;}
</style>
<path class="st0" d="M550.3,431.3v0.3c0,6.1-4.9,11-11,11h-16.1c-6.1,0-11-4.9-11-11v-8.6c0-6.1,4.9-11,11-11h6.4v-2h-6.4
	c-7.2,0-13,5.8-13,13v8.6c0,7.2,5.8,13,13,13h16.1c7.2,0,13-5.8,13-13v-0.3H550.3z"/>
<path class="st1" d="M552.3,422.3c0,0.5-0.4,0.9-0.9,0.9c-0.5,0-0.9-0.4-0.9-0.9v-9.1l-15,15c-0.3,0.3-0.9,0.3-1.3,0
	c-0.3-0.4-0.3-0.9,0-1.3l15-15h-9.1c-0.5,0-0.9-0.4-0.9-0.9c0-0.5,0.4-0.9,0.9-0.9h11.3c0.5,0,0.9,0.4,0.9,0.9V422.3z M552.3,422.3"
	/>
</svg>
