<?xml version="1.0" encoding="utf-8"?>
<!-- Generator: Adobe Illustrator 19.1.0, SVG Export Plug-In . SVG Version: 6.00 Build 0)  -->
<svg version="1.1" id="Capa_1" xmlns="http://www.w3.org/2000/svg" xmlns:xlink="http://www.w3.org/1999/xlink" x="0px" y="0px"
	 viewBox="122 -123 512 512" style="enable-background:new 122 -123 512 512;" xml:space="preserve">
<g>
	<g>
		<path d="M378-123C236.6-123,122-8.4,122,133s114.6,256,256,256s256-114.6,256-256S519.4-123,378-123z M378,349
			c-119.3,0-216-96.7-216-216S258.7-83,378-83s216,96.7,216,216S497.3,349,378,349z"/>
		<rect x="362" y="229" width="32" height="32"/>
		<path d="M439.7,27.1c-6.5-6.6-14.7-11.9-24.8-16C404.8,7,392.8,5,378.7,5c-12,0-22.9,2-32.8,6.1c-9.9,4.1-18.5,9.8-25.7,17.1
			c-7.1,7.3-12.7,14.5-16.5,24.8c-3.8,10.3-5.7,16-5.7,32h32.7c0-16,4.2-28.1,12.9-38.5c8.6-10.5,20.3-14.8,35.1-14.8
			c14.4,0,25.2,3.9,32.2,10.9c6.9,7,10.4,17.1,10.4,29.8c0,9.9-3.3,18.8-9.7,26.5c-6.4,7.8-13.4,15.3-20.8,22.4
			c-7.6,7.1-13.7,14.8-20,22.6s-8.7,17-8.7,27.5V197h32v-13.8c0-8.2,1.2-15.3,4.4-21.5c3.1-6.2,7-11.9,11.8-16.9
			c4.7-5.1,9.8-10,15.5-14.8c5.5-4.8,10.8-9.9,15.5-15.2c4.8-5.3,8.9-11.3,11.9-18c3.2-6.6,4.8-14.4,4.8-23.5c0-7.9-1.4-15.9-4.4-24
			C450.7,41.1,446,33.8,439.7,27.1z"/>
	</g>
</g>
</svg>
