<?xml version="1.0" encoding="utf-8"?>
<!-- Generator: Adobe Illustrator 19.1.0, SVG Export Plug-In . SVG Version: 6.00 Build 0)  -->
<svg version="1.1" id="Layer_1" xmlns="http://www.w3.org/2000/svg" xmlns:xlink="http://www.w3.org/1999/xlink" x="0px" y="0px"
	 viewBox="0 0 31 31" style="enable-background:new 0 0 31 31;" xml:space="preserve">
<style type="text/css">
	.st0{fill:#010101;}
</style>
<g>
	<path class="st0" d="M22.2,12.4c0-0.2,0-0.3,0-0.5c0.7-0.5,1.3-1.1,1.7-1.8c-0.6,0.3-1.3,0.5-2,0.5c0.7-0.4,1.3-1.1,1.5-2
		C22.7,9,22,9.3,21.2,9.4c-0.6-0.7-1.5-1.2-2.5-1.2c-1.9,0-3.4,1.6-3.4,3.6c0,0.3,0,0.6,0.1,0.8c-2.8-0.2-5.4-1.7-7.1-3.9
		C8,9.2,7.8,9.9,7.8,10.5c0,1.3,0.6,2.4,1.5,3.1c-0.6,0-1.1-0.2-1.6-0.5l0,0c0,1.8,1.2,3.3,2.8,3.6c-0.3,0.1-0.6,0.1-0.9,0.1
		c-0.2,0-0.4,0-0.6-0.1c0.4,1.5,1.7,2.5,3.2,2.6c-1.2,1-2.6,1.6-4.2,1.5c-0.3,0-0.5,0-0.8-0.1c1.5,1,3.3,1.6,5.2,1.6
		C18.7,22.7,22.2,17.2,22.2,12.4L22.2,12.4z"/>
	<path class="st0" d="M31,15.5C31,6.9,24.1,0,15.5,0C6.9,0,0,6.9,0,15.5S6.9,31,15.5,31C24.1,31,31,24.1,31,15.5L31,15.5z M1.5,15.5
		c0-7.8,6.3-14.1,14.1-14.1s14.1,6.3,14.1,14.1c0,7.8-6.3,14.1-14.1,14.1S1.5,23.3,1.5,15.5L1.5,15.5z"/>
</g>
</svg>
