<?xml version="1.0" encoding="utf-8"?>
<!-- Generator: Adobe Illustrator 19.1.0, SVG Export Plug-In . SVG Version: 6.00 Build 0)  -->
<svg version="1.1" id="Layer_1" xmlns="http://www.w3.org/2000/svg" xmlns:xlink="http://www.w3.org/1999/xlink" x="0px" y="0px"
	 viewBox="0 0 400 402" style="enable-background:new 0 0 400 402;" xml:space="preserve">
<style type="text/css">
	.st0{fill:#010101;}
</style>
<path class="st0" d="M374.8,403.3c-9-37.9-30.8-72.4-61.2-97c-31.8-25.7-72-39.9-113.2-39.9S119,280.6,87.1,306.3
	c-30.5,24.7-52.2,59.1-61.2,97H0.3C15,335.7,64.6,278.7,130,254.1l8.2-3.1l-7.5-4.5c-39.4-24-63-66.1-63-112.7
	c0-35.3,13.8-68.5,39-93.7c25.1-25.1,58.4-39,93.7-39s68.5,13.8,93.7,39c25.1,25.1,39,58.4,39,93.7c0,46.6-23.5,88.7-63,112.7
	l-7.7,4.7l8.5,3c65.5,22.9,115,80,129.7,149.2h-25.8V403.3z M200.3,26.9c-59,0-106.9,48-106.9,106.9s48,106.9,106.9,106.9
	c59,0,106.9-48,106.9-106.9S259.3,26.9,200.3,26.9z"/>
</svg>
